<?xml version="1.0" encoding="UTF-8"?>
<svg width="298px" height="283px" viewBox="0 0 298 283" version="1.1" xmlns="http://www.w3.org/2000/svg"
  xmlns:xlink="http://www.w3.org/1999/xlink">

  <defs>
    <linearGradient x1="50.0000142%" y1="100.53803%" x2="50.0000097%" y2="1.11657218%" id="linearGradient-1">
      <stop stop-color="#EA3D00" offset="0%"></stop>
      <stop stop-color="#E96A01" offset="59.1398%"></stop>
      <stop stop-color="#E7230D" offset="100%"></stop>
    </linearGradient>
    <linearGradient x1="16.0071986%" y1="32.5667001%" x2="92.6056343%" y2="68.9819389%" id="linearGradient-2">
      <stop stop-color="#0896C9" offset="0%"></stop>
      <stop stop-color="#005698" offset="100%"></stop>
    </linearGradient>
  </defs>
  <g stroke="none" stroke-width="1" fill="none" fill-rule="evenodd">
    <g transform="translate(0.6598, 0.0379)" fill-rule="nonzero">
      <g id="g22"
        transform="translate(137.5389, 141.4222) scale(-1, 1) rotate(-180) translate(-137.5389, -141.4222)translate(30.5021, 31.4667)"
        fill="url(#linearGradient-1)">
        <path
          d="M4.86802072,143.728982 C-16.2477187,69.9126076 33.613812,-4.73695145e-15 110.269271,-4.73695145e-15 L110.269271,-4.73695145e-15 C186.924696,-4.73695145e-15 214.073522,68.4930716 214.073522,68.4930716 L214.073522,68.4930716 C183.553296,33.3593152 132.449644,23.2450488 93.7670398,40.2795963 L93.7670398,40.2795963 C55.0844395,57.3141412 32.7265934,108.417769 58.8107447,151.359035 L58.8107447,151.359035 C84.8948947,194.300287 144.206337,198.53266 156.93679,179.927381 L156.93679,179.927381 C168.10723,163.602608 168.10723,134.147049 144.338337,120.661356 L144.338337,120.661356 C124.559831,109.439156 104.117658,116.363689 100.332445,122.790689 L100.332445,122.790689 C95.3988131,131.166009 106.720392,150.294382 106.720392,150.294382 L106.720392,150.294382 C72.769847,130.834542 71.5866537,89.5498978 116.538685,94.754667 L116.538685,94.754667 C161.490697,99.9594228 196.506629,131.189435 196.506629,160.763528 L196.506629,160.763528 C196.506629,190.336927 159.125044,219.91102 112.753458,219.91102 L112.753458,219.91102 C66.3818845,219.91102 18.7043204,192.097861 4.86802072,143.728982"
          id="path32"></path>
      </g>
      <g id="g44"
        transform="translate(198.8412, 119.2659) scale(-1, 1) rotate(-180) translate(-198.8412, -119.2659)translate(100.6199, 58.5339)"
        fill="url(#linearGradient-2)">
        <path
          d="M126.62589,119.666804 C126.62589,119.666804 162.824299,111.150241 159.275436,89.3836412 L159.275436,89.3836412 C155.726572,67.6170409 125.724479,36.5062826 78.5976988,18.8797867 L78.5976988,18.8797867 C40.3288826,4.56580004 6.43723482,15.5672773 5.490398,37.3338776 L5.490398,37.3338776 C5.02975549,47.9343333 7.13210232,53.4024224 8.61694687,55.8972736 L8.61694687,55.8972736 C4.41722163,50.0863642 -7.19607976,31.1765992 6.43723482,15.5672773 L6.43723482,15.5672773 C22.7620076,-3.12316793 76.4683807,-8.09157703 130.883817,18.1700139 L130.883817,18.1700139 C185.299253,44.4316049 209.905654,84.1788777 189.08589,106.418187 L189.08589,106.418187 C177.573377,118.716419 159.69775,121.463949 146.013332,121.463949 L146.013332,121.463949 C134.950814,121.463949 126.62589,119.666804 126.62589,119.666804 M8.61694687,55.8972736 C9.44596141,57.0442663 9.98609846,57.6809324 9.98609846,57.6809324 L9.98609846,57.6809324 C9.98609846,57.6809324 9.38421119,57.1855111 8.61694687,55.8972736"
          id="path52"></path>
      </g>
      <g id="g54"
        transform="translate(118.7689, 141.3042) scale(-1, 1) rotate(-180) translate(-118.7689, -141.3042)translate(0, 0)"
        fill="#DC2E0A">
        <g id="g62" transform="translate(90.4957, 246.9597)">
          <path
            d="M21.0568275,34.1109676 L0,29.0240264 L0.516714547,0 C11.7446093,5.05642092 23.772418,8.49526979 36.0337419,10.1476207 L21.0568275,34.1109676 Z"
            id="path64"></path>
        </g>
        <g id="g66" transform="translate(191.543, 225.7136)">
          <path
            d="M28.9218192,0 L37.713774,26.0195585 L19.8509237,38.7954676 L0,21.7474364 C5.37014047,19.1560562 10.4563718,16.1246169 15.1728116,12.6708628 C20.468426,8.79195479 25.0720119,4.52622069 28.9218192,0"
            id="path68"></path>
        </g>
        <g id="g70" transform="translate(9.4634, 68.1382)">
          <path
            d="M0,19.51875 L9.99572934,0 L34.5354117,5.47731615 C27.4291671,15.7846357 22.1150987,27.0700221 18.6698619,38.962974 L0,19.51875 Z"
            id="path72"></path>
        </g>
        <g id="g74" transform="translate(38.9189, 216.2835)">
          <path
            d="M34.2486635,20.8062778 C35.9223076,21.9248796 37.629311,22.998056 39.3604467,24.0336144 L16.7981912,38.9984626 L0,25.2764264 L10.7395712,0 C17.3972394,7.81814661 25.2700385,14.8037298 34.2486635,20.8062778"
            id="path76"></path>
        </g>
        <g id="g78" transform="translate(146.7249, 1.0647)">
          <path
            d="M11.0809718,0 L32.9661042,3.31250933 L35.3693946,30.1688898 C25.0329744,26.3928989 13.2649425,23.8185532 0,23.216666 C2.99737023,16.7953521 11.0809718,0 11.0809718,0"
            id="path80"></path>
        </g>
        <g id="g82" transform="translate(96.8755, 0)">
          <path
            d="M3.79373524,5.20476342 C4.1486216,4.9684091 24.9683851,0 24.9683851,0 L36.8655955,24.3246212 C23.9562491,25.0322646 11.5472925,27.6861048 -6.30404821e-16,32.1079889 C0.943287957,24.8690169 3.50485774,5.39711183 3.79373524,5.20476342"
            id="path84"></path>
        </g>
        <g id="g86" transform="translate(141.7821, 252.7256)">
          <path
            d="M36.6363389,0 L33.1769067,26.4525198 L11.6466607,29.8828514 L0,5.50002888 C0.491162728,5.50570706 0.982325457,5.51422433 1.47348819,5.51422433 C13.6311853,5.51422433 25.5440107,3.61274319 36.6363389,0"
            id="path88"></path>
        </g>
        <g id="g90" transform="translate(198.6095, 22.3581)">
          <path
            d="M0,16.4617589 C5.06351865,12.2116398 20.9468128,0 20.9468128,0 L38.9281951,13.0129732 L29.2334094,39.5911228 C28.806836,39.1318999 28.378843,38.6733867 27.9402035,38.2141637 C20.9780428,30.9311858 11.7318334,23.0356739 0,16.4617589"
            id="path92"></path>
        </g>
        <g id="g94" transform="translate(6.1515, 170.8323)">
          <path
            d="M35.3764924,34.5616733 C28.5562862,35.3892683 9.34486775,37.841533 9.34486775,37.841533 L0,17.9678966 L20.8162146,0 C21.2967307,2.02782069 21.8155746,4.0549316 22.3947491,6.0799132 C25.3104955,16.2729594 29.681276,25.8186928 35.3764924,34.5616733"
            id="path96"></path>
        </g>
        <g id="g98" transform="translate(0, 119.8776)">
          <path
            d="M24.3977278,36.7250605 C17.1573362,34.506311 0,29.2185042 0,28.9388537 L0,7.29078547 L25.1862853,0 C23.1236857,11.914245 22.8461646,24.2713882 24.3977278,36.7250605"
            id="path100"></path>
        </g>
        <g id="g102" transform="translate(45.0706, 24.1328)">
          <path
            d="M9.04889252,36.826558 C6.22186774,30.2207033 0,15.1415816 0,15.1415816 L15.9698864,0 L37.2048669,14.7682412 C26.7350094,20.5599866 17.2410894,27.9693042 9.04889252,36.826558"
            id="path104"></path>
        </g>
      </g>
    </g>
  </g>
</svg>