<svg viewBox="0 0 160 180" version="1.1" xmlns="http://www.w3.org/2000/svg" xmlns:xlink="http://www.w3.org/1999/xlink">
  <g stroke="none" stroke-width="1" fill="none" fill-rule="evenodd">
    <g transform="translate(-60, -50)" fill-rule="nonzero">
      <path
        d="M215.759703,229.994742 C220.203593,229.709027 221.289308,225.907308 218.375253,223.304971 C192.450531,199.7666 180.085157,188.480457 181.279132,189.446543 C179.858129,188.164896 178.151401,187.524072 176.158947,187.524072 L162.639278,187.524072 C158.966715,187.524072 155.514597,188.550301 153.650895,192.819477 L140.220071,221.900924 C138.585376,225.851503 139.658669,230.17167 143.833124,229.994742 L215.759703,229.994742 Z"
        fill="#FF3F57"></path>
      <path
        d="M148.321331,52.6379298 L64.3710499,224.455089 C63.3048084,227.093019 65.2595845,229.994742 68.1917487,229.994742 L111.641091,229.994742 C113.329307,229.994742 114.839815,228.93957 115.46179,227.444743 L199.323217,55.5396525 C200.389459,52.9017228 198.434683,50 195.502519,50 L152.14203,50 C150.453814,50.087931 148.943305,51.0551719 148.321331,52.6379298 Z"
        fill="currentColor"></path>
      <path
        d="M122.361336,50 L69.8843767,50 C67.936741,50 66.254692,51.1623552 65.5464608,52.9505939 L60.3232561,66.2729723 C59.526496,68.3294468 60.2347272,70.7435691 62.093834,71.9059242 L90.3982428,91.4485455 C92.0737976,92.4706694 93.7325344,92.4706694 95.2540862,92.4706694 L105.058851,92.4706694 C107.006487,92.4706694 109.009333,89.9351244 109.717565,88.1468857 L125.879928,55.6523515 C126.942274,52.6123456 125.636905,50 122.361336,50 Z"
        fill="#FF3F57"></path>
    </g>
  </g>
</svg>