<svg xmlns="http://www.w3.org/2000/svg" xmlns:xlink="http://www.w3.org/1999/xlink" width="100" height="100" viewBox="0 0 100 100" fill="none">
<path     fill="#0D0F14"  d="M0 100L100 100L100 0L0 0L0 100Z">
</path>
<path d="M39.8723 77.344C36.5807 74.32 35.5566 68.128 36.9464 63.592C39.3603 66.472 42.652 67.336 46.0899 67.912C51.3566 68.632 56.5501 68.344 61.451 65.968L63.2066 64.96C63.6455 66.256 63.7918 67.624 63.5723 68.992C63.2066 72.232 61.5242 74.752 58.8909 76.696C57.8668 77.488 56.6964 78.136 55.5992 78.856C52.2344 81.16 51.3566 83.752 52.6733 87.568L52.6733 88C52.2758 87.8262 51.8936 87.6245 51.5266 87.3947C51.1596 87.165 50.8119 86.9098 50.4833 86.6292C50.1549 86.3486 49.8493 86.0456 49.5666 85.7204C49.2839 85.395 49.0272 85.0509 48.7964 84.688C48.5563 84.3128 48.3443 83.9227 48.1605 83.5178C47.9767 83.1129 47.8229 82.6973 47.6992 82.2709C47.5754 81.8444 47.4829 81.4116 47.4216 80.9722C47.3604 80.5329 47.331 80.0915 47.3334 79.648C47.3334 78.784 47.3334 77.848 47.1871 76.984C46.8946 74.824 45.8705 73.888 43.8955 73.816C43.7818 73.8096 43.6681 73.8083 43.5543 73.812C43.4405 73.8157 43.3271 73.8244 43.2141 73.838C43.1011 73.8518 42.989 73.8704 42.8777 73.8941C42.7664 73.9177 42.6563 73.9462 42.5476 73.9795C42.4389 74.0129 42.332 74.0509 42.2268 74.0937C42.1216 74.1366 42.0185 74.1839 41.9176 74.2358C41.8167 74.2877 41.7184 74.3439 41.6226 74.4045C41.5268 74.4651 41.434 74.5298 41.3441 74.5986C41.2543 74.6674 41.1677 74.7401 41.0845 74.8165C41.0012 74.8929 40.9216 74.9729 40.8456 75.0564C40.7697 75.1399 40.6977 75.2266 40.6297 75.3164C40.5617 75.4063 40.4979 75.4989 40.4383 75.5944C40.3787 75.69 40.3236 75.7879 40.2729 75.8882C40.2222 75.9885 40.1762 76.0909 40.1349 76.1954C40.0936 76.2999 40.0571 76.4059 40.0255 76.5135C39.9938 76.6211 39.9672 76.73 39.9455 76.84L39.8723 77.344Z"   fill="#E63EB2" >
</path>
<path d="M21 62.7897C21 62.7897 30.8119 58.1314 40.6138 58.1314L48.0018 35.5906C48.2944 34.5106 49.0959 33.779 49.9737 33.779C50.9246 33.779 51.7319 34.5106 52.0245 35.5906L59.3336 58.1314C71.0373 58.1314 79 62.7897 79 62.7897L62.3309 18.148C61.892 16.852 61.0882 16 59.9909 16L40.0091 16C38.9118 16 38.1811 16.852 37.6691 18.148L21 62.7897Z"   fill="#FFFFFF" >
</path>
</svg>
