<svg xmlns="http://www.w3.org/2000/svg" xmlns:xlink="http://www.w3.org/1999/xlink" width="100" height="100" viewBox="0 0 100 100" fill="none">
<path     fill="#FFFFFF"  d="M0 100L100 100L100 0L0 0L0 100Z">
</path>
<path d="M82.3226 55.211L70.189 48.2094C69.3931 47.7502 69.1226 47.9062 69.1226 48.8247L69.1226 52.5487C69.1226 53.576 69.671 54.5252 70.561 55.0387L79.4568 60.172C79.9574 60.4609 80.2683 60.9992 80.2684 61.5771L80.2684 69.9231L66.0204 61.7015L66.0203 47.4576L66.0202 27.7061C66.0202 25.0879 64.6111 22.6487 62.3429 21.34L53.057 15.9816C50.7886 14.673 47.9703 14.6726 45.7021 15.9816L36.416 21.34C34.1404 22.6531 32.7386 25.0799 32.7386 27.7061L32.7386 40.9932C32.7386 41.9117 33.009 42.0678 33.8049 41.6085L37.0318 39.7465C37.9218 39.2329 38.4701 38.2837 38.4701 37.2564L38.4701 27.7061C38.4701 27.1283 38.7811 26.59 39.2819 26.3011L46.5137 22.1279L46.5138 37.8552L34.1715 44.9771L17.6774 54.495C15.4089 55.8041 13.9999 58.2434 14 60.8611L14 71.5778C14.0001 74.1954 15.409 76.6351 17.6774 77.9439L26.9634 83.3023C29.239 84.6155 32.0426 84.6155 34.3183 83.3024L45.211 77.0168C46.0068 76.5576 46.0068 76.2454 45.211 75.7862L41.9842 73.9242C41.0941 73.4106 39.9974 73.4106 39.1074 73.9242L31.4525 78.3413C30.9518 78.6302 30.3299 78.6302 29.8291 78.3413L22.5973 74.1682L35.6045 66.6625L47.9466 73.7844L65.6818 84.0183C67.9503 85.3274 70.7685 85.3273 73.0366 84.0183L82.3225 78.66C84.5906 77.351 86.0001 74.9117 85.9999 72.2939L86 61.5771C86 58.9509 84.5982 56.5241 82.3226 55.211ZM70.1705 79.0574C69.6702 79.3462 69.0482 79.3462 68.5475 79.0573L50.8124 68.8234L38.4702 61.7015L38.4702 53.9222C38.4702 53.0038 38.1998 52.8478 37.4039 53.3069L34.1771 55.169C33.287 55.6826 32.7387 56.6318 32.7387 57.659L32.7387 61.7015L19.7315 69.2071L19.7316 60.8608C19.7316 60.2834 20.0426 59.7449 20.5432 59.456L38.2783 49.2222L49.3795 42.8163L56.1202 46.7059C56.916 47.165 57.1866 47.009 57.1866 46.0906L57.1866 42.3665C57.1866 41.3392 56.6382 40.39 55.7481 39.8765L52.2453 37.8552L52.2453 22.1279L59.4773 26.3012C59.9776 26.5899 60.2887 27.1283 60.2887 27.7061L60.2887 48.1739L60.2889 61.7016L53.5482 65.5912C52.7524 66.0504 52.7524 66.3625 53.5482 66.8218L56.7751 68.6838C57.6652 69.1974 58.7618 69.1974 59.6518 68.6837L63.1546 66.6625L77.4027 74.8842L70.1705 79.0574Z"   fill="url(#linear_fill_KPW0nImH-DYXjpcRpwXTF)" >
</path>
<defs>
<linearGradient id="linear_fill_KPW0nImH-DYXjpcRpwXTF" x1="74.56280517578125" y1="23.84417724609375" x2="36.25408935546875" y2="89.784912109375" gradientUnits="userSpaceOnUse">
<stop offset="0" stop-color="#00EBE7"  />
<stop offset="1" stop-color="#6923BA"  />
</linearGradient>
</defs>
</svg>
