<svg xmlns="http://www.w3.org/2000/svg" xmlns:xlink="http://www.w3.org/1999/xlink" width="100" height="100" viewBox="0 0 100 100" fill="none"><path     fill="#FFFFFF"  d="M0 100L100 100L100 0L0 0L0 100Z"></path><path d="M77.981 36.9623C77.837 36.8069 77.684 36.6514 77.531 36.5052C77.378 36.3589 77.234 36.1943 77.081 36.048C76.928 35.9017 76.784 35.7372 76.631 35.5909C76.478 35.4446 76.334 35.28 76.181 35.1337C76.028 34.9874 75.884 34.8229 75.731 34.6766C75.578 34.5303 75.434 34.3657 75.281 34.2194C75.128 34.0732 74.984 33.9086 74.831 33.7623C75.1065 34.0374 75.3753 34.3191 75.6373 34.6075C75.8994 34.8958 76.1543 35.1905 76.4023 35.4915C76.6502 35.7925 76.8908 36.0994 77.124 36.4123C77.3572 36.7251 77.5827 37.0436 77.8007 37.3676C78.0187 37.6916 78.2288 38.0209 78.431 38.3553C78.6331 38.6897 78.8272 39.0289 79.0131 39.3729C79.1991 39.7169 79.3766 40.0653 79.5459 40.4181C79.7152 40.7708 79.8758 41.1276 80.028 41.4884C80.1802 41.8491 80.3236 42.2133 80.4583 42.5811C80.5931 42.949 80.7189 43.32 80.8358 43.694C80.9527 44.068 81.0606 44.4447 81.1595 44.8241C81.2584 45.2035 81.3482 45.5851 81.4287 45.9688C81.5093 46.3527 81.5807 46.7382 81.6428 47.1256C81.705 47.513 81.7578 47.9016 81.8013 48.2916C81.8448 48.6815 81.879 49.0723 81.9038 49.464C81.9286 49.8556 81.944 50.2476 81.95 50.64C81.95 65.7897 66.812 78.1143 48.2 78.1143C37.778 78.1143 28.454 74.2469 22.253 68.1852L22.703 68.6423L23.153 69.0994L23.603 69.5566L24.053 70.0137L24.503 70.4709L24.953 70.928L25.403 71.3852C31.595 77.7029 41.126 81.7714 51.8 81.7714C70.412 81.7714 85.55 69.4469 85.55 54.3429C85.55 47.888 82.814 41.7714 77.981 36.9623Z"   fill="#000000" ></path><path d="M79.7 50.64C79.7 64.5463 65.597 75.8194 48.2 75.8194C30.803 75.8194 16.7 64.5463 16.7 50.64C16.7 42.0183 22.1 34.4023 30.398 29.8857C38.696 25.3691 43.862 20.7429 48.2 20.7429C52.538 20.7429 56.246 24.5189 66.002 29.8857C74.3 34.4023 79.7 42.0183 79.7 50.64Z"   fill="#FBF0DF" ></path><path d="M79.7 50.64C79.6956 48.8454 79.4556 47.0839 78.98 45.3554C76.523 75.8011 39.965 77.264 25.592 68.1577C25.992 68.4727 26.3984 68.779 26.8112 69.0766C27.2239 69.3742 27.6427 69.6627 28.0674 69.9424C28.4922 70.2221 28.9225 70.4924 29.3585 70.7537C29.7944 71.0149 30.2356 71.2666 30.6821 71.5089C31.1285 71.7511 31.5797 71.9837 32.0358 72.2067C32.4919 72.4297 32.9524 72.6428 33.4173 72.846C33.8822 73.0492 34.3512 73.2424 34.8242 73.4256C35.2971 73.6087 35.7736 73.7816 36.2537 73.9442C36.7339 74.107 37.2172 74.2594 37.7036 74.4014C38.1901 74.5434 38.6792 74.6749 39.1712 74.7959C39.663 74.9169 40.1572 75.0274 40.6537 75.1273C41.1503 75.2272 41.6486 75.3163 42.1488 75.3948C42.649 75.4734 43.1506 75.5411 43.6536 75.5982C44.1566 75.6552 44.6606 75.7015 45.1656 75.7369C45.6705 75.7723 46.176 75.7969 46.6819 75.8107C47.1878 75.8245 47.6939 75.8274 48.2 75.8194C65.57 75.8194 79.7 64.528 79.7 50.64Z"   fill="#F6DECE" ></path><path d="M36.077 28.2126C40.1 25.7623 45.446 21.1634 50.702 21.1543C49.8887 20.8872 49.0547 20.7501 48.2 20.7429C46.022 20.7429 43.7 21.8857 40.775 23.6046C39.758 24.208 38.705 24.8754 37.589 25.5703C35.492 26.8869 33.089 28.3771 30.389 29.8674C21.821 34.576 16.7 42.3383 16.7 50.64C16.7 51.0057 16.7 51.3714 16.7 51.728C22.154 32.1531 32.063 30.6629 36.077 28.2126Z"   fill="#FFFEFC" ></path><path d="M45.608 23.056C45.6095 23.3249 45.604 23.5936 45.5914 23.8622C45.5787 24.1308 45.559 24.3988 45.5321 24.6663C45.5053 24.9338 45.4714 25.2004 45.4304 25.466C45.3895 25.7317 45.3416 25.996 45.2866 26.259C45.2316 26.5221 45.1698 26.7834 45.101 27.043C45.0323 27.3027 44.9567 27.5603 44.8743 27.8158C44.7919 28.0713 44.7028 28.3244 44.607 28.5751C44.5112 28.8257 44.4088 29.0736 44.2999 29.3186C44.191 29.5637 44.0758 29.8056 43.954 30.0443C43.8323 30.2832 43.7043 30.5184 43.5701 30.7502C43.4359 30.982 43.2958 31.2099 43.1496 31.434C43.0033 31.6582 42.8513 31.8781 42.6934 32.0939C42.5355 32.3097 42.3721 32.5211 42.203 32.7279C42.034 32.9349 41.8595 33.1371 41.6798 33.3344C41.5 33.5318 41.3152 33.724 41.1253 33.9113C40.9353 34.0985 40.7406 34.2805 40.541 34.4571C40.289 34.6857 40.487 35.1245 40.811 34.9965C43.844 33.7988 47.939 30.2149 46.211 22.9829C46.139 22.5714 45.608 22.6812 45.608 23.056ZM47.651 23.056C47.7882 23.2833 47.9192 23.5143 48.0441 23.7488C48.169 23.9833 48.2876 24.221 48.3999 24.462C48.5122 24.703 48.6181 24.9469 48.7174 25.1937C48.8168 25.4405 48.9096 25.6898 48.9957 25.9417C49.0818 26.1935 49.1612 26.4476 49.2338 26.7038C49.3066 26.96 49.3724 27.218 49.4314 27.4779C49.4903 27.7376 49.5424 27.9989 49.5875 28.2616C49.6326 28.5242 49.6708 28.7879 49.702 29.0526C49.7332 29.3174 49.7573 29.5828 49.7743 29.8489C49.7914 30.1149 49.8014 30.3813 49.8043 30.648C49.8073 30.9146 49.8032 31.1811 49.792 31.4474C49.7808 31.7138 49.7626 31.9798 49.7373 32.2451C49.712 32.5105 49.6797 32.775 49.6404 33.0386C49.601 33.3023 49.5548 33.5646 49.5016 33.8257C49.4484 34.0868 49.3883 34.3462 49.3213 34.604C49.2543 34.8619 49.1806 35.1177 49.1 35.3714C48.992 35.6914 49.379 35.9657 49.595 35.7005C51.566 33.1405 53.285 28.0571 48.137 22.5714C47.876 22.3337 47.471 22.6994 47.651 23.0194L47.651 23.056ZM50.135 22.9006C50.3498 23.0551 50.5603 23.2153 50.7667 23.3812C50.9731 23.5471 51.175 23.7185 51.3723 23.8953C51.5697 24.0722 51.7622 24.2543 51.95 24.4416C52.1379 24.6289 52.3206 24.8212 52.4982 25.0184C52.6759 25.2157 52.8482 25.4176 53.0153 25.6242C53.1823 25.8308 53.3439 26.0417 53.4998 26.2571C53.6558 26.4724 53.8059 26.6919 53.9504 26.9154C54.0948 27.1389 54.2332 27.3662 54.3656 27.5972C54.4981 27.8282 54.6244 28.0626 54.7445 28.3005C54.8647 28.5384 54.9785 28.7793 55.086 29.0234C55.1935 29.2674 55.2944 29.5142 55.3888 29.7638C55.4833 30.0133 55.5712 30.2652 55.6525 30.5195C55.7337 30.7738 55.8082 31.0301 55.8759 31.2885C55.9437 31.5469 56.0045 31.8068 56.0586 32.0685C56.1127 32.3301 56.16 32.593 56.2002 32.8572C56.2404 33.1214 56.2737 33.3866 56.3 33.6525C56.2978 33.6716 56.2973 33.6908 56.2987 33.7099C56.3 33.7291 56.3031 33.7479 56.3079 33.7665C56.3128 33.785 56.3194 33.8029 56.3276 33.8202C56.3358 33.8375 56.3456 33.8538 56.357 33.8691C56.3682 33.8846 56.3809 33.8988 56.3949 33.9117C56.4088 33.9246 56.4239 33.9361 56.44 33.946C56.4562 33.9561 56.4731 33.9644 56.4908 33.9712C56.5085 33.9779 56.5267 33.9829 56.5453 33.9861C56.564 33.9893 56.5827 33.9906 56.6016 33.9902C56.6205 33.9898 56.6392 33.9875 56.6577 33.9834C56.6761 33.9794 56.6941 33.9736 56.7115 33.966C56.7289 33.9586 56.7454 33.9494 56.7611 33.9386C56.7767 33.9279 56.7912 33.9158 56.8046 33.9021C56.818 33.8886 56.83 33.8739 56.8406 33.858C56.8513 33.8422 56.8603 33.8254 56.8677 33.8077C56.8752 33.7901 56.881 33.7719 56.885 33.7531C57.713 30.5623 57.245 25.1223 50.432 22.2972C50.072 22.1509 49.838 22.6446 50.135 22.864L50.135 22.9006ZM33.521 32.4091C33.7765 32.3316 34.0299 32.2473 34.2811 32.1562C34.5323 32.0652 34.7809 31.9675 35.0271 31.8631C35.2732 31.7589 35.5165 31.6481 35.7569 31.5308C35.9973 31.4135 36.2345 31.2899 36.4685 31.16C36.7025 31.03 36.933 30.8939 37.1601 30.7517C37.387 30.6095 37.6102 30.4614 37.8296 30.3072C38.0489 30.1531 38.2641 29.9933 38.4751 29.8277C38.6862 29.6621 38.8929 29.491 39.0952 29.3144C39.2974 29.1377 39.495 28.9559 39.6878 28.7687C39.8806 28.5816 40.0685 28.3895 40.2515 28.1923C40.4344 27.9951 40.6121 27.7932 40.7845 27.5866C40.9571 27.3799 41.1241 27.1689 41.2857 26.9534C41.4473 26.7378 41.6032 26.5181 41.7535 26.2943C41.9037 26.0704 42.0481 25.8428 42.1866 25.6112C42.325 25.3797 42.4574 25.1446 42.5837 24.906C42.7101 24.6674 42.8302 24.4256 42.944 24.1806C43.106 23.8514 43.619 23.9794 43.538 24.3451C41.981 31.6594 36.77 33.1863 33.53 32.9851C33.188 32.9943 33.197 32.5097 33.521 32.4091Z"   fill="#CCBEA7" ></path><path d="M48.2 78.1143C29.588 78.1143 14.45 65.7897 14.45 50.64C14.45 41.4972 20.012 32.9669 29.327 27.856C32.027 26.3932 34.34 24.9212 36.401 23.632C37.535 22.9189 38.606 22.2514 39.641 21.6297C42.8 19.728 45.5 18.4572 48.2 18.4572C50.9 18.4572 53.258 19.5543 56.21 21.328C57.11 21.8492 58.01 22.416 58.973 23.0377C61.214 24.4457 63.743 26.0366 67.073 27.856C76.388 32.9669 81.95 41.488 81.95 50.64C81.95 65.7897 66.812 78.1143 48.2 78.1143ZM48.2 20.7429C46.022 20.7429 43.7 21.8857 40.775 23.6046C39.758 24.208 38.705 24.8754 37.589 25.5703C35.492 26.8869 33.089 28.3772 30.389 29.8674C21.821 34.576 16.7 42.3383 16.7 50.64C16.7 64.528 30.83 75.8286 48.2 75.8286C65.57 75.8286 79.7 64.528 79.7 50.64C79.7 42.3383 74.579 34.576 66.002 29.8857C62.6 28.0572 59.945 26.3383 57.794 24.9852C56.813 24.3726 55.913 23.8057 55.094 23.3029C52.367 21.6572 50.378 20.7429 48.2 20.7429Z"   fill="#000000" ></path><path d="M54.545 57.3143C54.4445 57.7323 54.3124 58.1396 54.1485 58.5362C53.9847 58.933 53.7913 59.3141 53.5681 59.6797C53.345 60.0454 53.095 60.391 52.8181 60.7165C52.5412 61.0419 52.2408 61.3433 51.917 61.6206C51.6741 61.8598 51.4134 62.0771 51.135 62.2726C50.8566 62.4679 50.5643 62.6387 50.2581 62.7849C49.9519 62.9312 49.6359 63.0508 49.3102 63.1439C48.9844 63.2369 48.6534 63.3021 48.317 63.3394C47.9706 63.308 47.6294 63.2472 47.2932 63.157C46.9569 63.0669 46.6306 62.9487 46.3141 62.8023C45.9976 62.6559 45.6955 62.4835 45.4078 62.2852C45.1201 62.0868 44.8508 61.8653 44.6 61.6206C44.2795 61.342 43.9824 61.0397 43.7087 60.7135C43.4351 60.3874 43.1882 60.0416 42.9682 59.676C42.7481 59.3105 42.5576 58.9297 42.3966 58.5336C42.2356 58.1375 42.1061 57.7311 42.008 57.3143C42.0048 57.2895 42.0029 57.2646 42.0024 57.2395C42.002 57.2145 42.0029 57.1895 42.0053 57.1646C42.0077 57.1397 42.0114 57.115 42.0165 57.0905C42.0216 57.066 42.0281 57.0419 42.0359 57.0182C42.0437 56.9944 42.0528 56.9712 42.0633 56.9485C42.0737 56.9258 42.0854 56.9038 42.0983 56.8825C42.1112 56.8612 42.1253 56.8406 42.1405 56.821C42.1557 56.8013 42.1719 56.7825 42.1893 56.7647C42.2066 56.7469 42.2249 56.7301 42.2441 56.7144C42.2633 56.6987 42.2833 56.6842 42.3041 56.6708C42.3249 56.6574 42.3464 56.6453 42.3686 56.6344C42.3909 56.6235 42.4136 56.614 42.4369 56.6057C42.4601 56.5975 42.4838 56.5906 42.5078 56.5851C42.5318 56.5796 42.5561 56.5755 42.5806 56.5728C42.6051 56.5701 42.6297 56.5689 42.6543 56.569C42.679 56.5692 42.7035 56.5707 42.728 56.5737L53.834 56.5737C53.8583 56.5711 53.8827 56.5699 53.9071 56.5701C53.9315 56.5703 53.9558 56.5718 53.9801 56.5747C54.0044 56.5777 54.0284 56.5821 54.0521 56.5878C54.0759 56.5935 54.0993 56.6006 54.1223 56.609C54.1453 56.6174 54.1677 56.6272 54.1896 56.6382C54.2115 56.6492 54.2328 56.6614 54.2533 56.6748C54.2738 56.6882 54.2935 56.7028 54.3124 56.7185C54.3314 56.7342 54.3494 56.7509 54.3664 56.7687C54.3835 56.7865 54.3995 56.8052 54.4145 56.8248C54.4295 56.8444 54.4434 56.8647 54.456 56.886C54.4688 56.9072 54.4802 56.929 54.4904 56.9515C54.5008 56.9741 54.5098 56.9971 54.5174 57.0206C54.5252 57.0442 54.5316 57.0681 54.5366 57.0924C54.5417 57.1167 54.5453 57.1412 54.5476 57.1659C54.5499 57.1906 54.5509 57.2153 54.5504 57.2402C54.55 57.265 54.5482 57.2897 54.545 57.3143Z"   fill="#B71422" ></path><path d="M44.6 61.6937C44.8503 61.9386 45.1189 62.1606 45.4059 62.3598C45.6929 62.5589 45.9941 62.7324 46.3097 62.8803C46.6253 63.0281 46.9507 63.1482 47.2861 63.2407C47.6215 63.3331 47.9622 63.3965 48.308 63.4309C48.6531 63.396 48.9929 63.3322 49.3275 63.2395C49.6621 63.1468 49.9868 63.0266 50.3015 62.8788C50.6163 62.731 50.9168 62.5576 51.203 62.3588C51.4893 62.1598 51.7573 61.9381 52.007 61.6937C52.3291 61.3886 52.6292 61.0625 52.907 60.7154C52.7688 60.5561 52.6229 60.4043 52.4694 60.2601C52.3159 60.1159 52.1556 59.98 51.9885 59.8524C51.8213 59.7249 51.6482 59.6062 51.4692 59.4966C51.2901 59.3869 51.106 59.2868 50.9169 59.1962C50.7278 59.1057 50.5347 59.0251 50.3375 58.9546C50.1403 58.8841 49.9401 58.8239 49.7369 58.7741C49.5336 58.7243 49.3284 58.6852 49.1213 58.6566C48.9141 58.6281 48.706 58.6104 48.497 58.6034C48.2737 58.6088 48.0515 58.6278 47.8304 58.6606C47.6093 58.6932 47.3909 58.7394 47.1754 58.799C46.9598 58.8585 46.7486 58.9311 46.5417 59.0166C46.3347 59.1022 46.1336 59.2001 45.9384 59.3104C45.7431 59.4207 45.5551 59.5425 45.3744 59.6759C45.1936 59.8093 45.0215 59.9533 44.8579 60.1079C44.6944 60.2625 44.5406 60.4266 44.3965 60.6C44.2525 60.7736 44.1194 60.9553 43.997 61.1451C44.204 61.3371 44.384 61.52 44.6 61.6937Z"   fill="#FF6164" ></path><path d="M44.744 60.9714C44.8552 60.8254 44.9741 60.6862 45.1007 60.5539C45.2275 60.4215 45.3611 60.2969 45.5016 60.1798C45.6422 60.0628 45.7888 59.9542 45.9414 59.854C46.094 59.7538 46.2517 59.6627 46.4145 59.5806C46.5772 59.4985 46.744 59.426 46.9149 59.3631C47.0857 59.3001 47.2595 59.2472 47.4362 59.2042C47.6129 59.1612 47.7915 59.1285 47.9718 59.106C48.1522 59.0835 48.3332 59.0714 48.515 59.0697C48.849 59.0797 49.1793 59.1208 49.5059 59.1931C49.8324 59.2655 50.1495 59.3677 50.4573 59.4998C50.7652 59.6319 51.0585 59.7917 51.3371 59.9791C51.6157 60.1666 51.875 60.3785 52.115 60.6148C52.322 60.3863 52.52 60.1486 52.709 59.9108C52.5674 59.7739 52.4199 59.6439 52.2664 59.5209C52.113 59.3979 51.9542 59.2824 51.7901 59.1744C51.626 59.0664 51.4574 58.9664 51.2842 58.8743C51.1109 58.7823 50.9338 58.6986 50.7529 58.6233C50.572 58.548 50.3881 58.4814 50.2011 58.4235C50.0141 58.3656 49.8249 58.3166 49.6334 58.2766C49.4419 58.2366 49.249 58.2057 49.0546 58.1839C48.8603 58.1622 48.6655 58.1496 48.47 58.1463C48.2594 58.1481 48.0496 58.1617 47.8405 58.1871C47.6314 58.2125 47.4243 58.2495 47.2192 58.298C47.0142 58.3466 46.8123 58.4065 46.6137 58.4778C46.4152 58.549 46.2211 58.6311 46.0314 58.724C45.8418 58.817 45.6577 58.9203 45.4793 59.034C45.3009 59.1476 45.1292 59.2708 44.9641 59.4037C44.799 59.5366 44.6417 59.6782 44.4921 59.8287C44.3424 59.9792 44.2014 60.1376 44.069 60.304C44.2819 60.539 44.5069 60.7615 44.744 60.9714Z"   fill="#000000" ></path><path d="M48.2809 63.888C47.9086 63.8549 47.5417 63.7904 47.1801 63.6947C46.8184 63.599 46.4671 63.4733 46.1263 63.3177C45.7854 63.1621 45.4597 62.9787 45.1491 62.7675C44.8386 62.5563 44.5475 62.3203 44.2759 62.0594C43.9299 61.7621 43.609 61.4388 43.3134 61.0897C43.0178 60.7406 42.7512 60.37 42.5135 59.978C42.2758 59.5859 42.07 59.1772 41.8962 58.7519C41.7223 58.3266 41.5826 57.8901 41.4769 57.4423C41.4617 57.3621 41.4554 57.2811 41.458 57.1995C41.4605 57.1177 41.4719 57.0373 41.4922 56.9583C41.5124 56.8792 41.5409 56.8033 41.5778 56.7307C41.6148 56.6581 41.6592 56.5905 41.7109 56.528C41.7726 56.4524 41.8419 56.3848 41.9188 56.3252C41.9957 56.2656 42.0782 56.2156 42.1663 56.1752C42.2544 56.1348 42.3459 56.1051 42.4408 56.0859C42.5356 56.0667 42.6313 56.0587 42.7279 56.0617L53.8339 56.0617C53.9304 56.0597 54.026 56.0684 54.1205 56.0881C54.2152 56.1077 54.3064 56.1377 54.3944 56.178C54.4824 56.2183 54.5648 56.268 54.6419 56.327C54.7189 56.3861 54.7886 56.4531 54.8509 56.528C54.9022 56.5908 54.9461 56.6585 54.9823 56.7313C55.0186 56.804 55.0465 56.88 55.0659 56.9591C55.0855 57.0382 55.0961 57.1185 55.0977 57.2001C55.0994 57.2817 55.0921 57.3624 55.0759 57.4423C54.9703 57.8901 54.8306 58.3266 54.6567 58.7519C54.4829 59.1772 54.2772 59.5859 54.0394 59.978C53.8017 60.37 53.535 60.7406 53.2395 61.0897C52.9439 61.4388 52.6231 61.7621 52.2769 62.0594C52.006 62.3198 51.7156 62.5555 51.4057 62.7664C51.0959 62.9773 50.7709 63.1606 50.4308 63.3162C50.0907 63.4718 49.7403 63.5976 49.3795 63.6936C49.0186 63.7896 48.6525 63.8544 48.2809 63.888ZM42.7279 57.1223C42.5839 57.1223 42.5479 57.1863 42.5389 57.2046C42.6334 57.5929 42.7574 57.9713 42.9109 58.3397C43.0644 58.7081 43.2455 59.0619 43.4542 59.4012C43.6628 59.7404 43.8964 60.0609 44.1549 60.3625C44.4135 60.6642 44.6938 60.9434 44.9959 61.2C45.2167 61.421 45.4539 61.6219 45.7075 61.803C45.9611 61.9839 46.2275 62.1425 46.507 62.2786C46.7864 62.4147 47.075 62.5265 47.3727 62.614C47.6704 62.7015 47.9731 62.7635 48.2809 62.8C48.588 62.7639 48.8902 62.7026 49.1873 62.6161C49.4845 62.5297 49.7727 62.4193 50.0521 62.2848C50.3314 62.1503 50.5981 61.9935 50.852 61.8146C51.106 61.6356 51.344 61.4369 51.5659 61.2183C51.8671 60.9613 52.1465 60.6818 52.4042 60.3799C52.6619 60.078 52.8947 59.7574 53.1025 59.4183C53.3104 59.079 53.4908 58.7253 53.6436 58.3571C53.7964 57.9889 53.9199 57.6108 54.0139 57.2229C53.9939 57.1931 53.9678 57.1707 53.9354 57.1559C53.903 57.1411 53.8692 57.136 53.8339 57.1406L42.7279 57.1223Z"   fill="#000000" ></path><ellipse cx="61.89799499511719" cy="54.73599433898926" rx="5.2649993896484375" ry="3.145143508911133"   fill="#FEBBD0" ></ellipse><ellipse cx="34.655014514923096" cy="54.73599433898926" rx="5.264999866485596" ry="3.145143508911133"   fill="#FEBBD0" ></ellipse><path d="M37.13 53.4743C37.2112 53.4744 37.2923 53.4726 37.3734 53.4686C37.4545 53.4647 37.5354 53.4588 37.6163 53.4509C37.6971 53.4429 37.7777 53.4331 37.858 53.4211C37.9383 53.4091 38.0183 53.3952 38.0979 53.3792C38.1776 53.3632 38.2569 53.3453 38.3356 53.3254C38.4144 53.3055 38.4927 53.2837 38.5704 53.2599C38.6481 53.236 38.7252 53.2103 38.8017 53.1826C38.8782 53.155 38.954 53.1255 39.0291 53.094C39.1041 53.0626 39.1784 53.0293 39.2518 52.9942C39.3253 52.959 39.3979 52.9221 39.4695 52.8833C39.5412 52.8445 39.6119 52.804 39.6816 52.7617C39.7513 52.7195 39.8199 52.6755 39.8875 52.6298C39.9551 52.5841 40.0215 52.5367 40.0869 52.4876C40.1521 52.4386 40.2162 52.388 40.279 52.3357C40.3418 52.2835 40.4034 52.2297 40.4636 52.1745C40.5238 52.1192 40.5827 52.0624 40.6403 52.0042C40.6977 51.9459 40.7538 51.8863 40.8084 51.8253C40.863 51.7643 40.9161 51.7019 40.9677 51.6382C41.0193 51.5745 41.0693 51.5096 41.1178 51.4435C41.1663 51.3773 41.2131 51.3099 41.2583 51.2414C41.3035 51.1729 41.347 51.1033 41.3889 51.0326C41.4307 50.962 41.4708 50.8903 41.5092 50.8176C41.5476 50.7449 41.5841 50.6713 41.6189 50.5968C41.6538 50.5223 41.6868 50.4469 41.7179 50.3708C41.7492 50.2946 41.7784 50.2177 41.8059 50.1401C41.8333 50.0625 41.8589 49.9843 41.8825 49.9054C41.9062 49.8265 41.928 49.747 41.9478 49.667C41.9677 49.5871 41.9855 49.5066 42.0014 49.4257C42.0173 49.3449 42.0314 49.2636 42.0434 49.1821C42.0554 49.1005 42.0655 49.0187 42.0735 48.9366C42.0815 48.8546 42.0876 48.7723 42.0917 48.6899C42.0957 48.6076 42.0979 48.5252 42.098 48.4427C42.0981 48.3602 42.0962 48.2778 42.0923 48.1954C42.0885 48.113 42.0825 48.0308 42.0747 47.9487C42.0669 47.8666 42.057 47.7848 42.0452 47.7031C42.0334 47.6215 42.0195 47.5403 42.0038 47.4594C41.988 47.3784 41.9704 47.298 41.9508 47.2179C41.931 47.138 41.9095 47.0585 41.886 46.9795C41.8626 46.9006 41.8372 46.8222 41.8099 46.7445C41.7826 46.6669 41.7536 46.5899 41.7225 46.5137C41.6916 46.4374 41.6587 46.362 41.6241 46.2875C41.5894 46.2129 41.553 46.1392 41.5148 46.0664C41.4766 45.9936 41.4367 45.9218 41.395 45.851C41.3533 45.7802 41.31 45.7105 41.265 45.6419C41.2199 45.5732 41.1732 45.5058 41.1249 45.4396C41.0766 45.3732 41.0267 45.3082 40.9753 45.2444C40.9239 45.1805 40.871 45.1181 40.8165 45.0569C40.762 44.9958 40.7061 44.936 40.6487 44.8776C40.5914 44.8192 40.5326 44.7623 40.4725 44.7069C40.4124 44.6515 40.351 44.5976 40.2883 44.5452C40.2256 44.4928 40.1616 44.442 40.0965 44.3928C40.0313 44.3436 39.965 44.2961 39.8975 44.2502C39.8301 44.2043 39.7615 44.1602 39.6919 44.1177C39.6223 44.0753 39.5517 44.0346 39.4802 43.9956C39.4086 43.9567 39.3361 43.9196 39.2627 43.8843C39.1893 43.8489 39.1152 43.8154 39.0402 43.7838C38.9652 43.7522 38.8895 43.7225 38.8131 43.6946C38.7366 43.6668 38.6596 43.6408 38.582 43.6168C38.5043 43.5928 38.4261 43.5708 38.3473 43.5507C38.2686 43.5306 38.1894 43.5125 38.1097 43.4963C38.0301 43.4802 37.9502 43.466 37.8699 43.4539C37.7896 43.4417 37.7091 43.4316 37.6282 43.4235C37.5474 43.4153 37.4665 43.4092 37.3854 43.4051C37.3043 43.401 37.2232 43.3989 37.142 43.3989C37.0608 43.3988 36.9797 43.4008 36.8986 43.4048C36.8175 43.4088 36.7365 43.4148 36.6557 43.4228C36.5749 43.4309 36.4944 43.4409 36.414 43.453C36.3337 43.4651 36.2537 43.4791 36.1741 43.4951C36.0945 43.5112 36.0153 43.5292 35.9365 43.5493C35.8577 43.5693 35.7795 43.5912 35.7018 43.6151C35.6241 43.639 35.547 43.6648 35.4706 43.6925C35.3941 43.7203 35.3184 43.75 35.2433 43.7815C35.1683 43.813 35.0941 43.8464 35.0207 43.8816C34.9473 43.9168 34.8748 43.9539 34.8031 43.9927C34.7316 44.0316 34.6609 44.0722 34.5913 44.1146C34.5216 44.1569 34.453 44.201 34.3854 44.2469C34.3179 44.2926 34.2516 44.3401 34.1864 44.3892C34.1211 44.4383 34.0571 44.489 33.9943 44.5413C33.9315 44.5936 33.8701 44.6474 33.8099 44.7028C33.7497 44.7582 33.6909 44.815 33.6335 44.8733C33.5761 44.9316 33.5201 44.9913 33.4656 45.0524C33.411 45.1135 33.358 45.1759 33.3064 45.2397C33.255 45.3034 33.205 45.3684 33.1566 45.4346C33.1082 45.5009 33.0615 45.5683 33.0164 45.6369C32.9712 45.7054 32.9278 45.7751 32.886 45.8458C32.8443 45.9165 32.8043 45.9883 32.766 46.061C32.7277 46.1337 32.6912 46.2073 32.6565 46.2819C32.6217 46.3564 32.5888 46.4318 32.5577 46.508C32.5266 46.5842 32.4974 46.6612 32.4701 46.7388C32.4427 46.8165 32.4172 46.8948 32.3937 46.9736C32.3701 47.0526 32.3484 47.132 32.3288 47.2121C32.309 47.292 32.2912 47.3725 32.2754 47.4534C32.2595 47.5343 32.2456 47.6156 32.2337 47.6971C32.2218 47.7787 32.2119 47.8605 32.2039 47.9426C32.196 48.0247 32.19 48.1069 32.1859 48.1893C32.182 48.2717 32.18 48.3541 32.18 48.4366C32.18 48.5189 32.182 48.6012 32.1859 48.6835C32.1899 48.7658 32.1959 48.8479 32.2038 48.9298C32.2118 49.0118 32.2217 49.0935 32.2335 49.175C32.2454 49.2564 32.2593 49.3375 32.275 49.4182C32.2909 49.499 32.3086 49.5793 32.3282 49.6593C32.3479 49.7392 32.3695 49.8185 32.393 49.8973C32.4165 49.9761 32.442 50.0543 32.4693 50.1318C32.4965 50.2094 32.5256 50.2862 32.5566 50.3623C32.5876 50.4384 32.6204 50.5137 32.655 50.5882C32.6896 50.6627 32.726 50.7362 32.7642 50.8088C32.8024 50.8814 32.8423 50.9531 32.8839 51.0238C32.9255 51.0945 32.9688 51.164 33.0138 51.2326C33.0588 51.3011 33.1055 51.3684 33.1537 51.4345C33.2019 51.5007 33.2517 51.5657 33.3031 51.6294C33.3545 51.6931 33.4074 51.7554 33.4618 51.8165C33.5162 51.8776 33.572 51.9373 33.6293 51.9955C33.6866 52.0539 33.7452 52.1107 33.8052 52.166C33.8652 52.2214 33.9265 52.2752 33.9891 52.3275C34.0517 52.3798 34.1156 52.4305 34.1806 52.4796C34.2457 52.5288 34.3119 52.5763 34.3792 52.6221C34.4466 52.6679 34.515 52.7121 34.5845 52.7545C34.654 52.7969 34.7244 52.8376 34.7958 52.8764C34.8673 52.9154 34.9397 52.9525 35.0129 52.9878C35.0861 53.0231 35.1602 53.0566 35.235 53.0882C35.3099 53.1198 35.3854 53.1495 35.4618 53.1774C35.538 53.2053 35.6149 53.2312 35.6925 53.2552C35.77 53.2793 35.8481 53.3013 35.9267 53.3214C36.0053 53.3416 36.0843 53.3597 36.1638 53.3759C36.2433 53.3921 36.3231 53.4064 36.4033 53.4185C36.4835 53.4308 36.5639 53.441 36.6445 53.4492C36.7252 53.4574 36.806 53.4636 36.887 53.4678C36.9679 53.472 37.0489 53.4742 37.13 53.4743ZM59.423 53.4743C59.5043 53.4749 59.5855 53.4735 59.6667 53.47C59.748 53.4665 59.8291 53.461 59.91 53.4535C59.9909 53.446 60.0716 53.4365 60.1521 53.425C60.2326 53.4134 60.3127 53.3999 60.3926 53.3843C60.4724 53.3688 60.5519 53.3512 60.6308 53.3318C60.7097 53.3123 60.7882 53.2908 60.8661 53.2674C60.9442 53.2439 61.0215 53.2186 61.0982 53.1912C61.1749 53.164 61.2509 53.1348 61.3262 53.1036C61.4016 53.0726 61.476 53.0396 61.5497 53.0048C61.6234 52.97 61.6962 52.9334 61.7681 52.8949C61.84 52.8565 61.911 52.8163 61.9811 52.7743C62.051 52.7323 62.1199 52.6886 62.1878 52.6431C62.2556 52.5977 62.3224 52.5506 62.388 52.5019C62.4537 52.453 62.518 52.4026 62.5811 52.3506C62.6443 52.2987 62.7061 52.2452 62.7667 52.1901C62.8272 52.135 62.8864 52.0784 62.9442 52.0204C63.0021 51.9624 63.0584 51.9029 63.1134 51.8421C63.1683 51.7813 63.2218 51.7191 63.2737 51.6555C63.3257 51.592 63.3761 51.5272 63.4248 51.4612C63.4736 51.3952 63.5208 51.328 63.5663 51.2595C63.6119 51.1911 63.6557 51.1217 63.6979 51.0511C63.7401 50.9805 63.7805 50.9089 63.8193 50.8363C63.858 50.7637 63.8949 50.6902 63.9301 50.6158C63.9653 50.5413 63.9986 50.466 64.0301 50.3899C64.0616 50.3138 64.0913 50.237 64.1191 50.1594C64.1469 50.0818 64.1727 50.0035 64.1968 49.9246C64.2208 49.8457 64.2428 49.7663 64.263 49.6863C64.2832 49.6063 64.3013 49.5258 64.3176 49.4449C64.3339 49.3641 64.3482 49.2828 64.3606 49.2012C64.3729 49.1196 64.3832 49.0377 64.3916 48.9555C64.4 48.8734 64.4064 48.7911 64.4108 48.7087C64.4152 48.6262 64.4175 48.5437 64.4179 48.4612C64.4184 48.3786 64.4167 48.2961 64.4131 48.2136C64.4095 48.1311 64.4039 48.0487 64.3964 47.9665C64.3887 47.8843 64.3792 47.8023 64.3677 47.7206C64.3561 47.6389 64.3426 47.5575 64.3271 47.4764C64.3115 47.3953 64.2941 47.3147 64.2747 47.2345C64.2554 47.1543 64.234 47.0747 64.2107 46.9956C64.1875 46.9165 64.1624 46.838 64.1353 46.7601C64.1082 46.6822 64.0793 46.6051 64.0485 46.5286C64.0178 46.4522 63.9852 46.3766 63.9507 46.3018C63.9162 46.227 63.8801 46.1532 63.842 46.0802C63.8039 46.0072 63.7641 45.9352 63.7226 45.8642C63.6812 45.7932 63.638 45.7233 63.593 45.6545C63.5481 45.5856 63.5016 45.5179 63.4535 45.4514C63.4053 45.3849 63.3556 45.3197 63.3042 45.2556C63.2529 45.1916 63.2001 45.1289 63.1458 45.0675C63.0914 45.0061 63.0356 44.9461 62.9783 44.8875C62.921 44.8289 62.8623 44.7718 62.8023 44.7161C62.7423 44.6604 62.681 44.6063 62.6183 44.5537C62.5557 44.5011 62.4918 44.4501 62.4267 44.4006C62.3616 44.3512 62.2952 44.3035 62.2278 44.2574C62.1604 44.2113 62.0919 44.1669 62.0223 44.1242C61.9527 44.0815 61.8821 44.0406 61.8106 44.0015C61.7391 43.9623 61.6666 43.9249 61.5933 43.8894C61.5199 43.8538 61.4456 43.8202 61.3707 43.7884C61.2957 43.7565 61.2199 43.7266 61.1434 43.6986C61.067 43.6705 60.9899 43.6443 60.9122 43.6201C60.8345 43.596 60.7562 43.5738 60.6775 43.5535C60.5987 43.5332 60.5195 43.5149 60.4398 43.4985C60.3602 43.4822 60.2801 43.4679 60.1997 43.4556C60.1193 43.4432 60.0388 43.4328 59.9579 43.4246C59.8769 43.4163 59.796 43.41 59.7148 43.4057C59.6336 43.4015 59.5523 43.3992 59.4711 43.399C59.3898 43.3988 59.3086 43.4006 59.2273 43.4045C59.1461 43.4084 59.0651 43.4143 58.9842 43.4222C58.9033 43.43 58.8226 43.4399 58.7422 43.4519C58.6618 43.4638 58.5817 43.4778 58.5019 43.4937C58.4222 43.5096 58.3429 43.5276 58.264 43.5474C58.185 43.5674 58.1067 43.5892 58.0289 43.613C57.951 43.6368 57.8739 43.6626 57.7973 43.6903C57.7207 43.7179 57.6449 43.7475 57.5697 43.7789C57.4946 43.8104 57.4201 43.8437 57.3466 43.8789C57.2731 43.914 57.2004 43.951 57.1287 43.9899C57.057 44.0287 56.9862 44.0693 56.9164 44.1116C56.8466 44.1539 56.7779 44.198 56.7102 44.2438C56.6426 44.2895 56.5761 44.337 56.5108 44.386C56.4453 44.4351 56.3813 44.4858 56.3184 44.5381C56.2554 44.5904 56.1939 44.6442 56.1336 44.6996C56.0733 44.755 56.0143 44.8118 55.9567 44.8701C55.8992 44.9285 55.8431 44.9882 55.7884 45.0492C55.7338 45.1104 55.6807 45.1728 55.629 45.2366C55.5774 45.3004 55.5273 45.3654 55.4788 45.4317C55.4303 45.4979 55.3835 45.5654 55.3383 45.634C55.2931 45.7027 55.2495 45.7724 55.2077 45.8431C55.1658 45.9139 55.1258 45.9857 55.0873 46.0585C55.049 46.1313 55.0125 46.205 54.9776 46.2796C54.9428 46.3542 54.9099 46.4297 54.8787 46.506C54.8475 46.5822 54.8182 46.6592 54.7908 46.7369C54.7633 46.8146 54.7379 46.893 54.7142 46.9721C54.6905 47.0511 54.6688 47.1306 54.6491 47.2107C54.6293 47.2908 54.6115 47.3713 54.5956 47.4523C54.5797 47.5333 54.5658 47.6146 54.5538 47.6963C54.5418 47.778 54.5319 47.8599 54.5239 47.942C54.5159 48.0242 54.51 48.1065 54.506 48.189C54.502 48.2715 54.5 48.354 54.5 48.4366C54.4999 48.5187 54.5017 48.6008 54.5055 48.6828C54.5093 48.7648 54.515 48.8466 54.5229 48.9284C54.5306 49.0101 54.5403 49.0916 54.552 49.1729C54.5637 49.2541 54.5773 49.335 54.5929 49.4155C54.6084 49.4961 54.626 49.5762 54.6454 49.656C54.6649 49.7356 54.6862 49.8148 54.7095 49.8934C54.7328 49.972 54.7579 50.05 54.785 50.1275C54.812 50.2048 54.8409 50.2815 54.8716 50.3574C54.9023 50.4333 54.9349 50.5085 54.9692 50.5828C55.0035 50.6571 55.0397 50.7306 55.0776 50.8031C55.1155 50.8756 55.1551 50.9472 55.1964 51.0177C55.2377 51.0883 55.2807 51.1578 55.3255 51.2262C55.3702 51.2946 55.4165 51.3619 55.4643 51.4279C55.5123 51.4941 55.5618 51.559 55.6128 51.6226C55.6639 51.6862 55.7164 51.7486 55.7705 51.8096C55.8246 51.8706 55.8801 51.9303 55.9371 51.9886C55.9941 52.0469 56.0523 52.1037 56.112 52.159C56.1716 52.2143 56.2327 52.2682 56.295 52.3206C56.3572 52.3729 56.4208 52.4237 56.4855 52.4728C56.5502 52.522 56.6161 52.5695 56.6831 52.6154C56.7501 52.6613 56.8181 52.7055 56.8873 52.748C56.9565 52.7905 57.0266 52.8313 57.0977 52.8703C57.1688 52.9094 57.2409 52.9466 57.3138 52.9819C57.3867 53.0174 57.4604 53.0511 57.5349 53.0828C57.6095 53.1145 57.6847 53.1444 57.7607 53.1725C57.8366 53.2006 57.9132 53.2266 57.9905 53.2508C58.0677 53.2751 58.1454 53.2973 58.2237 53.3177C58.3021 53.338 58.3809 53.3563 58.46 53.3728C58.5392 53.3892 58.6188 53.4036 58.6987 53.4161C58.7785 53.4286 58.8587 53.439 58.9391 53.4475C59.0194 53.456 59.1 53.4624 59.1807 53.4669C59.2614 53.4714 59.3422 53.4738 59.423 53.4743Z"   fill="#000000" ></path><path d="M35.6 48.7566C35.6611 48.7569 35.722 48.7541 35.7828 48.7483C35.8436 48.7426 35.904 48.7337 35.9639 48.7219C36.0239 48.7101 36.0832 48.6953 36.1417 48.6776C36.2002 48.6598 36.2578 48.6392 36.3143 48.6157C36.3708 48.5922 36.4261 48.566 36.4801 48.537C36.5341 48.508 36.5865 48.4763 36.6374 48.4421C36.6883 48.4078 36.7375 48.3711 36.7849 48.332C36.8323 48.2928 36.8776 48.2513 36.921 48.2076C36.9644 48.1639 37.0055 48.1182 37.0445 48.0704C37.0834 48.0226 37.1199 47.973 37.154 47.9215C37.1881 47.87 37.2197 47.817 37.2487 47.7624C37.2777 47.7078 37.3039 47.6518 37.3275 47.5946C37.3511 47.5374 37.3719 47.4791 37.3898 47.4198C37.4077 47.3605 37.4228 47.3004 37.4349 47.2396C37.447 47.1788 37.4562 47.1175 37.4623 47.0558C37.4686 46.9941 37.4718 46.9322 37.472 46.8701C37.4722 46.8081 37.4694 46.7462 37.4636 46.6844C37.4578 46.6226 37.449 46.5613 37.4372 46.5004C37.4255 46.4395 37.4109 46.3793 37.3933 46.3199C37.3758 46.2605 37.3554 46.2021 37.3322 46.1447C37.309 46.0873 37.283 46.0312 37.2544 45.9764C37.2257 45.9216 37.1945 45.8684 37.1607 45.8167C37.1269 45.765 37.0907 45.7151 37.052 45.6671C37.0134 45.619 36.9726 45.573 36.9295 45.5291C36.8864 45.4851 36.8413 45.4433 36.7942 45.4038C36.7471 45.3644 36.6982 45.3273 36.6474 45.2927C36.5967 45.2582 36.5445 45.2262 36.4907 45.1968C36.4369 45.1674 36.3818 45.1408 36.3254 45.117C36.269 45.0931 36.2116 45.0721 36.1532 45.054C36.0948 45.0359 36.0356 45.0207 35.9757 45.0085C35.9158 44.9963 35.8555 44.9871 35.7947 44.9809C35.734 44.9747 35.673 44.9716 35.6119 44.9714C35.5509 44.9714 35.4899 44.9743 35.4292 44.9803C35.3684 44.9863 35.308 44.9953 35.2481 45.0073C35.1882 45.0193 35.129 45.0343 35.0705 45.0523C35.0121 45.0702 34.9546 45.091 34.8982 45.1146C34.8417 45.1383 34.7865 45.1648 34.7326 45.194C34.6787 45.2232 34.6263 45.255 34.5755 45.2893C34.5247 45.3238 34.4757 45.3606 34.4284 45.4C34.3812 45.4393 34.3359 45.4808 34.2927 45.5247C34.2495 45.5686 34.2085 45.6145 34.1697 45.6624C34.1309 45.7103 34.0946 45.76 34.0606 45.8116C34.0266 45.8632 33.9952 45.9164 33.9664 45.971C33.9376 46.0258 33.9115 46.0818 33.8881 46.1391C33.8647 46.1964 33.8441 46.2547 33.8263 46.3141C33.8086 46.3734 33.7938 46.4336 33.7819 46.4945C33.7699 46.5553 33.761 46.6166 33.755 46.6783C33.749 46.7401 33.746 46.802 33.746 46.864C33.746 46.9258 33.7489 46.9875 33.7549 47.049C33.7608 47.1105 33.7697 47.1715 33.7815 47.2321C33.7933 47.2927 33.8081 47.3526 33.8257 47.4118C33.8433 47.4709 33.8637 47.529 33.8869 47.5862C33.9101 47.6433 33.936 47.6991 33.9646 47.7536C33.9932 47.8082 34.0244 47.8612 34.0581 47.9126C34.0918 47.964 34.1278 48.0137 34.1664 48.0615C34.2048 48.1094 34.2455 48.1552 34.2884 48.199C34.3314 48.2428 34.3763 48.2844 34.4232 48.3238C34.4701 48.3631 34.5188 48.4 34.5693 48.4345C34.6198 48.469 34.6717 48.5009 34.7253 48.5301C34.7788 48.5594 34.8337 48.586 34.8898 48.6099C34.9459 48.6338 35.003 48.6548 35.0611 48.6729C35.1193 48.6911 35.1782 48.7063 35.2378 48.7186C35.2974 48.7309 35.3574 48.7403 35.418 48.7466C35.4785 48.7529 35.5391 48.7563 35.6 48.7566ZM57.893 48.7566C57.9541 48.7569 58.015 48.7541 58.0758 48.7483C58.1366 48.7426 58.197 48.7337 58.2569 48.7219C58.317 48.7101 58.3762 48.6953 58.4347 48.6776C58.4933 48.6598 58.5508 48.6392 58.6073 48.6157C58.6638 48.5922 58.7191 48.566 58.7731 48.537C58.8271 48.508 58.8796 48.4763 58.9304 48.4421C58.9813 48.4078 59.0305 48.3711 59.0779 48.332C59.1253 48.2928 59.1706 48.2513 59.214 48.2076C59.2574 48.1639 59.2985 48.1182 59.3375 48.0704C59.3764 48.0226 59.4129 47.973 59.447 47.9215C59.4811 47.87 59.5127 47.817 59.5417 47.7624C59.5707 47.7078 59.5969 47.6518 59.6205 47.5946C59.6441 47.5374 59.6649 47.4791 59.6828 47.4198C59.7007 47.3605 59.7157 47.3004 59.7279 47.2396C59.74 47.1788 59.7491 47.1175 59.7553 47.0558C59.7616 46.9941 59.7648 46.9322 59.765 46.8701C59.7652 46.8081 59.7624 46.7462 59.7565 46.6844C59.7507 46.6226 59.742 46.5613 59.7302 46.5004C59.7185 46.4395 59.7039 46.3793 59.6863 46.3199C59.6688 46.2605 59.6483 46.2021 59.6251 46.1447C59.602 46.0873 59.5761 46.0312 59.5473 45.9764C59.5187 45.9216 59.4875 45.8684 59.4537 45.8167C59.4199 45.765 59.3836 45.7151 59.345 45.6671C59.3064 45.619 59.2656 45.573 59.2225 45.5291C59.1793 45.4851 59.1343 45.4433 59.0872 45.4038C59.0401 45.3644 58.9911 45.3273 58.9404 45.2927C58.8897 45.2582 58.8374 45.2262 58.7836 45.1968C58.7299 45.1674 58.6748 45.1408 58.6184 45.117C58.5619 45.0931 58.5046 45.0721 58.4462 45.054C58.3878 45.0359 58.3286 45.0207 58.2687 45.0085C58.2089 44.9963 58.1485 44.9871 58.0877 44.9809C58.027 44.9747 57.966 44.9716 57.9049 44.9714C57.8438 44.9714 57.7829 44.9743 57.7222 44.9803C57.6614 44.9863 57.601 44.9953 57.5411 45.0073C57.4812 45.0193 57.422 45.0343 57.3635 45.0523C57.305 45.0702 57.2476 45.091 57.1912 45.1146C57.1347 45.1383 57.0795 45.1648 57.0256 45.194C56.9716 45.2231 56.9193 45.2549 56.8685 45.2893C56.8176 45.3238 56.7687 45.3606 56.7214 45.4C56.6742 45.4393 56.6289 45.4808 56.5857 45.5247C56.5424 45.5686 56.5015 45.6145 56.4627 45.6624C56.4239 45.7103 56.3875 45.76 56.3535 45.8116C56.3196 45.8631 56.2882 45.9163 56.2594 45.971C56.2306 46.0258 56.2045 46.0818 56.1811 46.1391C56.1577 46.1964 56.1371 46.2547 56.1193 46.3141C56.1016 46.3734 56.0868 46.4336 56.0749 46.4945C56.0629 46.5553 56.054 46.6166 56.048 46.6783C56.0419 46.7401 56.039 46.802 56.039 46.864C56.039 46.9254 56.0419 46.9867 56.0478 47.0478C56.0536 47.1089 56.0624 47.1696 56.0741 47.2299C56.0858 47.2901 56.1003 47.3497 56.1177 47.4086C56.1351 47.4674 56.1552 47.5252 56.1781 47.582C56.2011 47.6388 56.2267 47.6944 56.255 47.7487C56.2831 47.803 56.3139 47.8558 56.3473 47.907C56.3806 47.9582 56.4163 48.0077 56.4543 48.0554C56.4924 48.1031 56.5326 48.1489 56.575 48.1926C56.6175 48.2364 56.6619 48.278 56.7083 48.3173C56.7547 48.3566 56.803 48.3936 56.8529 48.4282C56.9029 48.4628 56.9544 48.4948 57.0074 48.5243C57.0604 48.5538 57.1147 48.5806 57.1704 48.6047C57.2259 48.6289 57.2825 48.6502 57.3402 48.6687C57.3979 48.6872 57.4562 48.7028 57.5153 48.7156C57.5745 48.7284 57.6341 48.7381 57.6942 48.745C57.7543 48.7518 57.8146 48.7557 57.875 48.7566L57.893 48.7566Z"   fill="#FFFFFF" ></path></svg>