<svg xmlns="http://www.w3.org/2000/svg" xmlns:xlink="http://www.w3.org/1999/xlink" width="100" height="100" viewBox="0 0 100 100" fill="none">
<path     fill="#FFFFFF"  d="M0 100L100 100L100 0L0 0L0 100Z">
</path>
<path d="M19.4646 67.1125C17.4754 62.8199 16.3652 58.0386 16.3652 53C16.3652 51.696 16.4396 50.4091 16.5843 49.1437C16.7311 47.8649 16.9489 46.6101 17.233 45.3826C18.8296 38.4975 22.5429 32.4197 27.6493 27.8735C31.9383 24.0601 37.1924 21.3392 42.9522 20.1058C45.2253 19.6204 47.5829 19.365 50 19.365C50.8472 19.3659 51.7004 19.3984 52.5588 19.4639C56.6296 19.7746 60.4764 20.7994 63.9857 22.4061C66.8168 23.7035 69.437 25.3827 71.7807 27.3773C77.6676 32.3922 81.7732 39.3779 83.1386 47.2171C83.4649 49.096 83.6348 51.0282 83.6348 53C83.6342 53.8485 83.6014 54.7031 83.5357 55.5628C83.2877 58.8118 82.5847 61.9182 81.4943 64.8244C79.9721 68.8721 77.6914 72.5499 74.8259 75.6838C71.0988 79.4894 66.3624 81.1828 62.4067 81.1124C59.5301 81.0611 56.7157 79.9166 54.7709 78.242C51.9926 75.8495 50.8705 73.1147 50.4857 70.063C50.3902 69.3044 50.4462 67.2374 50.8411 65.8061C51.1353 64.7392 51.8816 62.6788 52.973 61.7776C51.6964 61.2278 50.0532 60.0303 49.5352 59.4556C49.4078 59.3143 49.4244 59.093 49.5383 58.9408C49.6524 58.7887 49.8522 58.7286 50.0314 58.793C51.129 59.1697 52.4657 59.5413 53.8753 59.7772C55.7291 60.0871 58.0345 60.4772 60.3699 60.5921C66.0644 60.8717 72.0126 58.3158 73.8587 53.2303C75.7047 48.1448 74.9884 43.1146 68.3658 40.0975C61.7429 37.0801 58.6836 33.4925 53.3326 31.3288C49.8374 29.9154 45.9473 30.7545 41.9534 32.9617C31.1958 38.9068 21.5579 57.6906 26.0007 75.0934C26.0641 75.3315 25.957 75.5822 25.741 75.7009C25.5385 75.8119 25.2896 75.7803 25.1219 75.6266C23.8289 74.2059 22.6557 72.6743 21.6186 71.0475C20.8163 69.7886 20.096 68.4743 19.4646 67.1125Z"   fill="#000000" >
</path>
<path d="M51.7192 16.0406C72.1177 16.9896 87.9081 34.3208 86.9594 54.7194C86.0104 75.118 68.679 90.9083 48.2807 89.9593C27.8823 89.0106 12.0919 71.6793 13.0406 51.2809C13.9896 30.8823 31.3207 15.0919 51.7192 16.0406ZM60.3699 60.592C58.0344 60.4772 55.729 60.0871 53.8753 59.7772C52.4657 59.5413 51.129 59.1697 50.0314 58.793C49.8522 58.7286 49.6524 58.7887 49.5383 58.9407C49.4244 59.093 49.4078 59.3143 49.5351 59.4556C50.0531 60.0303 51.6963 61.2278 52.9729 61.7776C51.8816 62.6788 51.1353 64.7391 50.8411 65.8061C50.4462 67.2374 50.3902 69.3044 50.4857 70.063C50.8705 73.1147 51.9926 75.8495 54.7709 78.2419C56.7157 79.9165 59.5301 81.0611 62.4066 81.1124C66.3761 81.1831 71.1315 79.4777 74.8644 75.6443C79.7449 70.2938 82.9421 63.3365 83.5357 55.5628C84.9491 37.0527 71.069 20.8772 52.5588 19.4639C34.049 18.0505 17.8736 31.9309 16.4602 50.4409C15.7283 60.027 19.0982 68.9869 25.0892 75.5939C25.256 75.7753 25.5251 75.8195 25.741 75.7009C25.957 75.5822 26.0641 75.3315 26.0007 75.0934C21.5578 57.6906 31.1958 38.9067 41.9534 32.9617C45.9473 30.7545 49.8374 29.9154 53.3326 31.3288C58.6836 33.4925 61.7429 37.0801 68.3658 40.0974C74.9884 43.1146 75.7046 48.1447 73.8587 53.2303C72.0125 58.3158 66.0644 60.8717 60.3699 60.592Z"   fill="#FFFFFF" >
</path>
<path d="M48.7961 33.6638C50.6106 33.5216 52.1937 35.0702 52.4666 37.1299C52.8308 39.8735 51.8237 42.7076 48.5126 42.7729C45.6841 42.8294 44.8271 39.9768 45.0145 38.2488C45.2006 36.5209 46.625 33.8342 48.7961 33.6638Z"   fill="#000000" >
</path>
</svg>
