<svg xmlns="http://www.w3.org/2000/svg" xmlns:xlink="http://www.w3.org/1999/xlink" width="100" height="100" viewBox="0 0 100 100" fill="none">
<path     fill="#FFFFFF"  d="M0 100L100 100L100 0L0 0L0 100Z">
</path>
<path d="M73.6818 80.1898C81.2313 73.5694 86 63.8371 86 52.9874C86 33.0409 69.8823 16.8711 50 16.8711C30.1177 16.8711 14 33.0409 14 52.9874C14 63.5201 18.4941 72.9997 25.6636 79.6015L25.6967 79.3693L72.9421 63.8505L73.6818 80.1898Z" fill-rule="evenodd"  fill="#333333" >
</path>
<path d="M40.7068 21.208L34.3203 20.257L35.277 19.9617C35.8534 19.7837 36.3942 19.5053 36.8743 19.1391L37.0245 19.0247C37.6032 18.5834 38.0638 18.0049 38.3645 17.3409C38.527 16.9823 38.6409 16.6034 38.7029 16.2144L38.7743 15.7664C38.8512 15.2836 38.8473 14.7912 38.7627 14.3097C38.7267 14.1051 38.9299 13.9412 39.1213 14.0203L39.3825 14.1282C39.7103 14.2636 40.0274 14.424 40.3309 14.6078L41.417 15.2657C42.8603 16.1399 44.1255 17.2805 45.1456 18.6272L45.8679 19.5805C46.1369 19.9357 46.4539 20.2517 46.8096 20.5194C47.1999 20.813 47.6324 21.0453 48.0924 21.2081L48.5938 21.3856L45.9604 21.4913C44.2041 21.5618 42.4453 21.4669 40.7068 21.208Z"   fill="#CCCCCC" >
</path>
<path d="M39.0764 26.8886L40.9705 23.415C40.989 23.3809 40.9902 23.34 40.9736 23.3049L40.3278 21.9409C39.9224 21.0847 39.0621 20.5391 38.1172 20.5391L37.9386 20.533C36.7021 20.4902 35.474 20.311 34.2764 19.9987L34.0396 19.9369C33.0577 19.6807 32.1049 19.3221 31.1975 18.8668L30.7971 18.666C30.1942 18.3637 29.6233 18.0014 29.0926 17.5847L28.5617 17.1679C28.4039 17.0441 28.1754 17.0757 28.057 17.2378C27.692 17.7371 27.4632 18.3233 27.3931 18.9385L27.2966 19.7854C27.2448 20.2397 27.2391 20.6981 27.2795 21.1536L27.5145 23.8065C27.6894 25.7803 28.3684 27.6755 29.4861 29.3093L29.7254 29.6592C30.0688 30.1612 30.469 30.6215 30.918 31.0311C30.9813 31.0888 31.0619 31.1243 31.1473 31.1319C34.3947 31.4243 37.5117 29.7584 39.0764 26.8886Z"   fill="#CCCCCC" >
</path>
<path d="M31.9125 31.196L34.1623 30.219C35.1553 29.7879 35.4577 28.521 34.7669 27.6853C34.2054 27.0059 33.2066 26.899 32.5148 27.4443L31.9813 27.8648C31.8535 27.9656 31.7366 28.0796 31.6325 28.2048L30.3495 29.7494C30.1693 29.9663 30.1837 30.2855 30.3828 30.4852L30.7791 30.9397C30.8427 31.0125 30.9166 31.0757 30.9985 31.127C31.2734 31.2994 31.6151 31.3251 31.9125 31.196Z"   fill="#EDEDED" >
</path>
<path d="M34.8108 20.0939L34.7422 20.1159L34.9478 20.1815C35.8382 20.4657 36.7617 20.6323 37.695 20.6768C37.7417 20.6791 37.7885 20.6736 37.8335 20.6607L38.2578 20.5391L38.4688 20.4686L37.1214 20.1748C36.9441 20.1361 36.7787 20.0551 36.6394 19.9385C36.5307 19.8476 36.5314 19.6797 36.6409 19.5898L36.8407 19.4258C37.0794 19.2299 37.2725 18.9839 37.4062 18.7051C36.6313 19.3208 35.7522 19.7912 34.8108 20.0939Z"   fill="#B2B2B2" >
</path>
<path d="M42.5154 44.7241L24.1659 77.633C24.0748 77.7964 23.8534 77.8271 23.7215 77.6948L23.3516 77.3236L21.8047 75.5601L20.8187 74.2801C19.8838 73.0663 19.0492 71.7781 18.323 70.4282L18.1827 70.1674C17.4113 68.7334 16.7652 67.2352 16.2516 65.6893L15.7578 64.2032C15.016 61.5056 14.8458 58.6821 15.258 55.9144L15.2754 55.7976C15.456 54.5848 15.7442 53.3909 16.1366 52.2297L16.9531 49.8131L17.5625 48.5272C18.5076 46.5329 19.8105 44.7303 21.4063 43.2093L22.1804 42.4716C23.7809 40.9463 25.7272 39.8344 27.8516 39.2322C27.3547 39.373 26.8476 39.4743 26.3349 39.5351L25.3203 39.6554L24.5469 39.7259L23.7031 39.867L22.8594 39.9462L22.2969 40.0081L21.8917 40.0335C21.7615 40.0417 21.7003 39.8751 21.8047 39.7965L22.371 39.5242C24.1962 38.6468 25.6967 37.2108 26.6562 35.423L27.2817 34.4442C28.0275 33.2769 29.0197 32.2882 30.1883 31.5479L30.4297 31.3949C30.8659 31.1186 31.3315 30.8921 31.818 30.7199L34.0315 29.936C34.4396 29.7916 34.769 29.4822 34.9396 29.0831L34.9733 29.0039C35.0523 28.8187 35.0843 28.6166 35.0661 28.416C35.0387 28.1136 34.8992 27.8325 34.6752 27.6282L34.2861 27.2733C34.2622 27.2514 34.2402 27.2273 34.2208 27.2014L31.7188 23.8545L29.7224 21.0938C29.3274 20.5475 29.0974 19.8986 29.0601 19.2247C29.054 19.118 29.1645 19.0439 29.2607 19.0902L31.4208 20.1304C33.2902 21.0306 35.4215 21.2199 37.4193 20.6631C37.8838 20.5337 38.3583 20.4438 38.8378 20.3945L39.8294 20.2924C42.3228 20.0359 44.8419 20.2436 47.2601 20.9053L47.4688 20.9624L49.831 21.8155C52.7941 22.8857 55.1423 25.2028 56.2579 28.1574L56.7532 30.095C56.8913 30.6358 57.0864 31.1603 57.3354 31.6596C57.9202 32.8331 58.7884 33.8414 59.8608 34.5925L61.1213 35.4752C61.6752 35.8632 62.2565 36.21 62.8606 36.5131L65.6501 37.9124C65.7751 37.975 65.8125 38.1363 65.728 38.2478C64.9586 39.2633 63.9428 40.0638 62.7771 40.5731L61.1616 41.2789C60.5184 41.56 59.8552 41.7927 59.1775 41.9754L57.9907 42.2953C56.3271 42.7436 54.612 42.9708 52.8894 42.9708L50.0469 42.9708C49.4584 42.9708 48.8752 42.8597 48.3278 42.6433C46.1443 41.7803 43.6611 42.6693 42.5154 44.7241Z"   fill="#FFFFFF" >
</path>
<path d="M52.1354 32.8576L53.3732 32.872C53.5412 32.874 53.5792 32.6364 53.4189 32.5856C53.1558 32.5023 52.9001 32.3966 52.6549 32.2699L51.6886 31.7705C51.0336 31.432 50.4175 31.0225 49.8515 30.5492L49.6614 30.3903C49.2322 30.0314 48.8427 29.6272 48.4995 29.1848L48.2799 28.9013C48.2048 28.8044 48.0501 28.8635 48.0583 28.986C48.2017 31.1463 49.9774 32.8325 52.1354 32.8576Z"   fill="#666666" >
</path>
<path d="M25.5626 78.1552L46.5284 59.3924C48.5048 57.6236 50.2222 55.5837 51.6299 53.3331L51.7578 53.1285C52.4475 51.7448 52.7418 50.1964 52.6082 48.6553L52.4244 46.5342C52.3113 45.2293 51.7744 43.9978 50.8962 43.0286C50.8622 42.9911 50.817 42.9653 50.7674 42.9551L47.3985 42.2654C44.954 41.525 42.3624 41.4182 39.8656 41.955L39.7344 41.9832L37.7741 42.443C32.057 43.7838 27.0182 47.1587 23.5923 51.9423L23.5058 52.0629C22.5619 53.3809 21.76 54.7956 21.1136 56.2833L20.9982 56.5489C19.3655 60.3067 18.8151 64.4484 19.4096 68.504L19.6041 69.8304C19.8043 71.1965 20.2147 72.5232 20.8205 73.763C21.38 74.9081 22.1002 75.9668 22.9592 76.907L24.0291 78.0779C24.4331 78.5201 25.1164 78.5545 25.5626 78.1552Z"   fill="#CCCCCC" >
</path>
<path d="M43.9178 53.1085L43.85 53.1473C42.0808 54.1615 41.1291 56.0759 41.2222 58.118C41.2486 58.6989 41.8287 59.2309 42.3863 59.0724L43.4135 58.7804C44.7416 58.4029 45.9715 57.7391 47.0172 56.8352L50 54.2571L50.8848 53.6001C56.0287 49.7805 62.4921 48.2066 68.8092 49.2354C69.0041 49.2671 69.0102 49.5461 68.817 49.5865L68.0703 49.7426L67.7318 49.8614C67.0367 50.1054 66.4329 50.5575 66.0017 51.1565C65.9207 51.2689 66.0287 51.42 66.1609 51.3792L66.4057 51.3036C67.7844 50.8781 69.2306 50.7166 70.6688 50.8276L71.2344 50.8712C74.306 51.0052 77.1566 52.5114 79.0045 54.9766L79.697 55.9007C81.7497 58.6395 82.6184 62.0913 82.1074 65.4793L81.8405 67.2487C81.4771 69.6578 80.6025 71.9607 79.2759 74.0015L79.1797 74.1494L77.7031 76.1245L76.0859 77.9585L74.6044 79.3854C73.2518 80.6881 71.7725 81.8519 70.1891 82.8593L69.6875 83.1785L68.7277 83.637C68.4805 83.755 68.2742 83.4152 68.4922 83.249L69.8281 81.9793L70.1028 81.6899C70.8451 80.9079 71.3788 79.9506 71.6543 78.9067L71.7813 78.4253C71.8384 78.2091 71.8672 77.9831 71.8672 77.7593C71.8672 76.5349 71.0029 75.4611 69.8051 75.2259C69.0623 75.0801 68.2932 75.2726 67.7057 75.7515L66.3828 76.8299L64.0476 78.7467C62.5149 80.0047 60.8541 81.0968 59.0928 82.005L56.6797 83.249L52.6016 84.8009L51.7454 85.0351C50.2562 85.4426 48.7361 85.7263 47.2004 85.8835L46.0625 86L42.4062 86L37.5547 85.471L34.9295 84.901C33.5448 84.6004 32.2048 84.1211 30.9428 83.4751C29.9161 82.9496 28.9475 82.317 28.0528 81.5878L26.0234 79.9336C23.5632 78.0488 22.0219 75.2001 21.7871 72.1034L21.6641 70.4813L21.8088 68.1989C22.0345 64.6417 23.3925 61.2513 25.683 58.5266C26.6092 57.4249 27.674 56.4487 28.8508 55.6221L29.2827 55.3189C31.08 54.0567 33.0856 53.123 35.207 52.5608L36.6332 52.1828C38.4877 51.6913 40.4307 51.6394 42.3088 52.0309L43.7966 52.341C44.17 52.4189 44.2489 52.9187 43.9178 53.1085Z"   fill="#5E5E5E" >
</path>
</svg>
