<svg xmlns="http://www.w3.org/2000/svg" xmlns:xlink="http://www.w3.org/1999/xlink" width="100" height="100" viewBox="0 0 100 100" fill="none"><g  clip-path="url(#clip-path-wHpJTGwd2WX0VOF1vgH10)"><rect x="0" y="0" width="100.00000027489705" height="100"   fill="#000000" ></rect><path d="M22.6223 42.7003L22.6223 41.2698L39.8246 41.2698L39.8246 42.7003L22.6223 42.7003ZM19.7553 45.5614L19.7553 44.1309L42.6916 44.1309L42.6916 45.5614L19.7553 45.5614ZM16.8882 48.4225L16.8882 46.9921L25.4894 46.9921L25.4894 48.4225L16.8882 48.4225ZM36.9574 48.4225L36.9574 46.9921L45.5587 46.9921L45.5587 48.4225L36.9574 48.4225ZM39.8246 51.2836L39.8246 49.8529L45.5587 49.8529L45.5587 51.2836L39.8246 51.2836ZM16.8882 51.2836L16.8882 49.8529L22.6223 49.8529L22.6223 51.2836L16.8882 51.2836ZM42.6916 54.1447L42.6916 52.714L48.4257 52.714L48.4257 54.1447L42.6916 54.1447ZM14.0212 54.1447L14.0212 52.714L19.7553 52.714L19.7553 54.1447L14.0212 54.1447ZM42.6916 57.0056L42.6916 55.5751L48.4257 55.5751L48.4257 57.0056L42.6916 57.0056ZM14.0212 57.0056L14.0212 55.5751L19.7553 55.5751L19.7553 57.0056L14.0212 57.0056ZM14.0212 59.8667L14.0212 58.4362L48.4257 58.4362L48.4257 59.8667L14.0212 59.8667ZM14.0212 62.7278L14.0212 61.2973L48.4257 61.2973L48.4257 62.7278L14.0212 62.7278ZM14.0212 65.5889L14.0212 64.1585L19.7553 64.1585L19.7553 65.5889L14.0212 65.5889ZM14.0212 68.45L14.0212 67.0193L19.7553 67.0193L19.7553 68.45L14.0212 68.45ZM42.6916 71.3111L42.6916 69.8804L48.4257 69.8804L48.4257 71.3111L42.6916 71.3111ZM16.8882 71.3111L16.8882 69.8804L22.6223 69.8804L22.6223 71.3111L16.8882 71.3111ZM16.8882 74.172L16.8882 72.7415L25.4894 72.7415L25.4894 74.172L16.8882 74.172ZM39.8246 74.172L39.8246 72.7415L48.4257 72.7415L48.4257 74.172L39.8246 74.172ZM19.7553 77.0331L19.7553 75.6026L45.5587 75.6026L45.5587 77.0331L19.7553 77.0331ZM22.6223 79.8942L22.6223 78.4638L39.8246 78.4638L39.8246 79.8942L22.6223 79.8942Z"   fill="#FFFFFF" ></path><path d="M79.9802 42.7003L79.9802 41.2698L85.7143 41.2698L85.7143 42.7003L79.9802 42.7003ZM54.1768 42.7003L54.1768 41.2698L59.9109 41.2698L59.9109 42.7003L54.1768 42.7003ZM79.9802 45.5614L79.9802 44.1309L85.7143 44.1309L85.7143 45.5614L79.9802 45.5614ZM54.1768 45.5614L54.1768 44.1309L59.9109 44.1309L59.9109 45.5614L54.1768 45.5614ZM79.9802 48.4225L79.9802 46.9921L85.7143 46.9921L85.7143 48.4225L79.9802 48.4225ZM54.1768 48.4225L54.1768 46.9921L59.9109 46.9921L59.9109 48.4225L54.1768 48.4225ZM79.9802 51.2836L79.9802 49.8529L85.7143 49.8529L85.7143 51.2836L79.9802 51.2836ZM54.1768 51.2836L54.1768 49.8529L59.9109 49.8529L59.9109 51.2836L54.1768 51.2836ZM77.1133 54.1447L77.1133 52.714L82.8474 52.714L82.8474 54.1447L77.1133 54.1447ZM57.044 54.1447L57.044 52.714L62.7781 52.714L62.7781 54.1447L57.044 54.1447ZM57.044 57.0056L57.044 55.5751L62.7781 55.5751L62.7781 57.0056L57.044 57.0056ZM77.1133 57.0056L77.1133 55.5751L82.8474 55.5751L82.8474 57.0056L77.1133 57.0056ZM57.044 59.8667L57.044 58.4362L62.7781 58.4362L62.7781 59.8667L57.044 59.8667ZM77.1133 59.8667L77.1133 58.4362L82.8474 58.4362L82.8474 59.8667L77.1133 59.8667ZM74.2461 62.7278L74.2461 61.2973L79.9802 61.2973L79.9802 62.7278L74.2461 62.7278ZM59.9109 62.7278L59.9109 61.2973L65.645 61.2973L65.645 62.7278L59.9109 62.7278ZM74.2461 65.5889L74.2461 64.1585L79.9802 64.1585L79.9802 65.5889L74.2461 65.5889ZM59.9109 65.5889L59.9109 64.1585L65.645 64.1585L65.645 65.5889L59.9109 65.5889ZM74.2461 68.45L74.2461 67.0193L79.9802 67.0193L79.9802 68.45L74.2461 68.45ZM59.9109 68.45L59.9109 67.0193L65.645 67.0193L65.645 68.45L59.9109 68.45ZM71.3791 71.3111L71.3791 69.8804L77.1133 69.8804L77.1133 71.3111L71.3791 71.3111ZM62.7781 71.3111L62.7781 69.8804L68.5122 69.8804L68.5122 71.3111L62.7781 71.3111ZM71.3791 74.172L71.3791 72.7415L77.1133 72.7415L77.1133 74.172L71.3791 74.172ZM62.7781 74.172L62.7781 72.7415L68.5122 72.7415L68.5122 74.172L62.7781 74.172ZM65.645 77.0331L65.645 75.6026L74.2461 75.6026L74.2461 77.0331L65.645 77.0331ZM65.645 79.8942L65.645 78.4638L74.2461 78.4638L74.2461 79.8942L65.645 79.8942Z"   fill="#FFFFFF" ></path><path d="M22.6223 42.7003L22.6223 41.2698L39.8246 41.2698L39.8246 42.7003L22.6223 42.7003ZM19.7553 45.5614L19.7553 44.1309L42.6916 44.1309L42.6916 45.5614L19.7553 45.5614ZM16.8882 48.4225L16.8882 46.9921L25.4894 46.9921L25.4894 48.4225L16.8882 48.4225ZM36.9574 48.4225L36.9574 46.9921L45.5587 46.9921L45.5587 48.4225L36.9574 48.4225ZM39.8246 51.2836L39.8246 49.8529L45.5587 49.8529L45.5587 51.2836L39.8246 51.2836ZM16.8882 51.2836L16.8882 49.8529L22.6223 49.8529L22.6223 51.2836L16.8882 51.2836ZM42.6916 54.1447L42.6916 52.714L48.4257 52.714L48.4257 54.1447L42.6916 54.1447ZM14.0212 54.1447L14.0212 52.714L19.7553 52.714L19.7553 54.1447L14.0212 54.1447ZM42.6916 57.0056L42.6916 55.5751L48.4257 55.5751L48.4257 57.0056L42.6916 57.0056ZM14.0212 57.0056L14.0212 55.5751L19.7553 55.5751L19.7553 57.0056L14.0212 57.0056ZM14.0212 59.8667L14.0212 58.4362L48.4257 58.4362L48.4257 59.8667L14.0212 59.8667ZM14.0212 62.7278L14.0212 61.2973L48.4257 61.2973L48.4257 62.7278L14.0212 62.7278ZM14.0212 65.5889L14.0212 64.1585L19.7553 64.1585L19.7553 65.5889L14.0212 65.5889ZM14.0212 68.45L14.0212 67.0193L19.7553 67.0193L19.7553 68.45L14.0212 68.45ZM42.6916 71.3111L42.6916 69.8804L48.4257 69.8804L48.4257 71.3111L42.6916 71.3111ZM16.8882 71.3111L16.8882 69.8804L22.6223 69.8804L22.6223 71.3111L16.8882 71.3111ZM16.8882 74.172L16.8882 72.7415L25.4894 72.7415L25.4894 74.172L16.8882 74.172ZM39.8246 74.172L39.8246 72.7415L48.4257 72.7415L48.4257 74.172L39.8246 74.172ZM19.7553 77.0331L19.7553 75.6026L45.5587 75.6026L45.5587 77.0331L19.7553 77.0331ZM22.6223 79.8942L22.6223 78.4638L39.8246 78.4638L39.8246 79.8942L22.6223 79.8942Z"   fill="#FFFFFF" ></path><path d="M79.9802 42.7003L79.9802 41.2698L85.7143 41.2698L85.7143 42.7003L79.9802 42.7003ZM54.1768 42.7003L54.1768 41.2698L59.9109 41.2698L59.9109 42.7003L54.1768 42.7003ZM79.9802 45.5614L79.9802 44.1309L85.7143 44.1309L85.7143 45.5614L79.9802 45.5614ZM54.1768 45.5614L54.1768 44.1309L59.9109 44.1309L59.9109 45.5614L54.1768 45.5614ZM79.9802 48.4225L79.9802 46.9921L85.7143 46.9921L85.7143 48.4225L79.9802 48.4225ZM54.1768 48.4225L54.1768 46.9921L59.9109 46.9921L59.9109 48.4225L54.1768 48.4225ZM79.9802 51.2836L79.9802 49.8529L85.7143 49.8529L85.7143 51.2836L79.9802 51.2836ZM54.1768 51.2836L54.1768 49.8529L59.9109 49.8529L59.9109 51.2836L54.1768 51.2836ZM77.1133 54.1447L77.1133 52.714L82.8474 52.714L82.8474 54.1447L77.1133 54.1447ZM57.044 54.1447L57.044 52.714L62.7781 52.714L62.7781 54.1447L57.044 54.1447ZM57.044 57.0056L57.044 55.5751L62.7781 55.5751L62.7781 57.0056L57.044 57.0056ZM77.1133 57.0056L77.1133 55.5751L82.8474 55.5751L82.8474 57.0056L77.1133 57.0056ZM57.044 59.8667L57.044 58.4362L62.7781 58.4362L62.7781 59.8667L57.044 59.8667ZM77.1133 59.8667L77.1133 58.4362L82.8474 58.4362L82.8474 59.8667L77.1133 59.8667ZM74.2461 62.7278L74.2461 61.2973L79.9802 61.2973L79.9802 62.7278L74.2461 62.7278ZM59.9109 62.7278L59.9109 61.2973L65.645 61.2973L65.645 62.7278L59.9109 62.7278ZM74.2461 65.5889L74.2461 64.1585L79.9802 64.1585L79.9802 65.5889L74.2461 65.5889ZM59.9109 65.5889L59.9109 64.1585L65.645 64.1585L65.645 65.5889L59.9109 65.5889ZM74.2461 68.45L74.2461 67.0193L79.9802 67.0193L79.9802 68.45L74.2461 68.45ZM59.9109 68.45L59.9109 67.0193L65.645 67.0193L65.645 68.45L59.9109 68.45ZM71.3791 71.3111L71.3791 69.8804L77.1133 69.8804L77.1133 71.3111L71.3791 71.3111ZM62.7781 71.3111L62.7781 69.8804L68.5122 69.8804L68.5122 71.3111L62.7781 71.3111ZM71.3791 74.172L71.3791 72.7415L77.1133 72.7415L77.1133 74.172L71.3791 74.172ZM62.7781 74.172L62.7781 72.7415L68.5122 72.7415L68.5122 74.172L62.7781 74.172ZM65.645 77.0331L65.645 75.6026L74.2461 75.6026L74.2461 77.0331L65.645 77.0331ZM65.645 79.8942L65.645 78.4638L74.2461 78.4638L74.2461 79.8942L65.645 79.8942Z"   fill="#FFFFFF" ></path><rect x="42.32806396484375" y="32.01055908203125" width="32.01058250665665" height="15.60845947265625" transform="rotate(-90 42.32806396484375 32.01055908203125)"   fill="url(#linear_fill_H4lGGpSp8Jgyuaeuyl5OF)" ></rect></g><defs><clipPath id="clip-path-wHpJTGwd2WX0VOF1vgH10"><path d="M0 100L100 100L100 0L0 0L0 100Z" fill="white"/></clipPath><linearGradient id="linear_fill_H4lGGpSp8Jgyuaeuyl5OF" x1="42.32806396484375" y1="39.814788818359375" x2="74.3386464715004" y2="39.814788818359375" gradientUnits="userSpaceOnUse"><stop offset="0" stop-color="#001E99"  /><stop offset="1" stop-color="#0032FF" stop-opacity="0" /></linearGradient></defs></svg>