<svg xmlns="http://www.w3.org/2000/svg" xmlns:xlink="http://www.w3.org/1999/xlink" width="100" height="100" viewBox="0 0 100 100" fill="none">
<path     fill="#FFFFFF"  d="M0 100L100 100L100 0L0 0L0 100Z">
</path>
<path d="M53.7215 43.9095C53.7215 43.9095 70.7569 16.6169 71.145 15.9348C71.5331 15.2526 71.6154 14 70.5452 14C69.475 14 42.937 41.0926 42.937 41.0926L24.0905 52.266C24.0905 52.266 22.8262 53.0423 23.0203 54.0126C23.2143 54.9829 24.0611 55.0241 24.4492 55.0241C24.8373 55.0241 44.9422 54.9182 46.1124 54.883C47.5648 54.8418 47.2061 56.9059 47.2061 56.9059L34.481 76.9122C34.481 76.9122 28.9241 84.6043 28.9241 85.1276C28.9241 85.898 29.8532 86.2803 30.7176 85.7628C31.388 85.3629 74.7261 48.6376 76.6372 46.1148C77.1547 45.4267 77.4193 43.6154 75.2848 43.6154C73.1502 43.6154 56.1501 48.567 56.1501 48.567L53.7215 43.9095Z"   fill="#FEB804" >
</path>
<path d="M50.7402 41.7395C50.2169 42.4569 50.0758 43.6566 51.2048 43.7272C52.3279 43.7919 75.2848 43.6213 75.2848 43.6213C75.2848 43.6213 58.8845 58.6937 53.9215 63.1925C48.9585 67.6912 32.5229 82.2637 31.4174 83.2929C30.3354 84.3043 29.3534 85.2335 28.9536 85.1041C28.8889 85.0865 28.8066 84.7395 30.3531 82.1932C31.7644 79.8703 45.3127 57.1647 45.8419 56.3061C46.3711 55.4475 46.8357 54.7183 47.1003 54.3184C47.3649 53.9185 48.2235 51.7368 46.4358 51.7368C44.6482 51.7368 24.0905 52.266 24.0905 52.266C24.0905 52.266 38.2915 40.2164 42.396 36.9761C46.5005 33.7358 69.7632 14 70.5453 14C71.3273 14 51.2695 41.0162 50.7402 41.7395Z"   fill="#FFC927" >
</path>
<path d="M50.0582 53.7363C51.1166 52.2132 52.1574 52.1015 52.7866 52.4779C53.5981 52.966 53.6805 54.0892 52.6573 55.4476C51.0461 57.6 39.203 73.4486 38.7502 74.0073C37.8917 75.0658 36.6274 74.6012 37.4507 73.0664C38.1387 71.7961 48.9644 55.3124 50.0582 53.7363ZM33.2286 50.6431C31.1999 52.0015 29.3123 49.9727 30.6706 48.4847C32.029 46.9969 40.9436 39.5754 42.7489 38.0405C44.5541 36.5057 55.0916 27.3376 55.909 26.6789C56.991 25.8086 57.6613 26.6907 56.9792 27.5963C56.303 28.502 48.8527 35.947 45.5656 38.9697C43.0253 41.3102 35.1573 49.3492 33.2286 50.6431Z"   fill="#FFE567" >
</path>
</svg>
