<svg xmlns="http://www.w3.org/2000/svg" xmlns:xlink="http://www.w3.org/1999/xlink" width="100" height="100" viewBox="0 0 100 100" fill="none">
<path     fill="#FFFFFF"  d="M0 100L100 100L100 0L0 0L0 100Z">
</path>
<path d="M46.705 14.2196C38.2309 15.0373 30.6475 18.5968 24.6048 24.6575C12.2065 37.0435 10.4973 55.9232 20.44 70.546C22.39 73.408 26.603 77.6168 29.4679 79.5647C40.5179 87.0685 54.1922 88.0786 65.9645 82.2343C69.5516 80.4546 72.4646 78.3622 75.4017 75.4039C84.1647 66.6498 87.8 54.384 85.1518 42.3106C83.7073 35.6245 80.3851 29.636 75.4017 24.6575C69.2386 18.5006 61.8719 15.0613 53.0125 14.1955C50.2921 13.931 49.5217 13.931 46.705 14.2196ZM60.6922 29.2271C63.4608 29.4195 65.796 29.66 65.8923 29.7562C65.9886 29.8524 65.8201 32.9549 65.5312 36.6347C65.146 41.5891 64.9293 43.3929 64.6645 43.6334C64.4719 43.8018 62.7867 44.9081 60.8848 46.0625C58.983 47.2169 57.5144 48.2511 57.6348 48.3473C57.7311 48.4195 59.4404 49.1891 61.4145 50.0549C63.8941 51.1131 65.0497 51.7384 65.1701 52.0751C65.3145 52.46 67.746 67.1065 67.8905 68.5495C67.9386 68.8624 66.8793 68.9586 61.0774 69.2953C57.2977 69.4875 54.1922 69.6561 54.1681 69.6318C54.144 69.6078 53.9273 67.0586 53.7107 63.9559C53.494 60.8777 53.3014 58.3283 53.2773 58.3042C52.9403 57.9675 46.5606 53.8789 46.4884 53.927C46.4402 53.9751 46.5124 57.3182 46.6569 61.3346C46.7772 65.3511 46.8013 68.7181 46.705 68.8143C46.4884 69.0305 34.0661 69.4875 33.8494 69.271C33.7531 69.1991 33.5605 60.1802 33.416 49.1891C33.2235 33.4119 33.2235 29.2031 33.4642 29.0587C33.8253 28.8182 45.3569 28.8182 45.5013 29.0347C45.5735 29.1549 45.6939 32.7144 45.7902 36.9714L45.9828 44.6916L48.655 42.7676C52.6995 39.8575 52.2662 40.7714 52.4107 34.5663C52.4829 31.6322 52.6273 29.0828 52.7236 28.9385C52.8681 28.722 53.3496 28.6739 54.2885 28.7701C55.0348 28.8182 57.9237 29.0347 60.6922 29.2271Z"   fill="#0D83CD" >
</path>
</svg>
