<svg xmlns="http://www.w3.org/2000/svg" xmlns:xlink="http://www.w3.org/1999/xlink" width="100" height="100" viewBox="0 0 100 100" fill="none"><path d="M68.6483 20.0373C68.0761 19.3962 67.7272 18.5446 67.7272 17.61C67.7272 15.6163 69.3145 14 71.2727 14C72.1867 14 73.0199 14.3522 73.6488 14.9306C78.4496 19.3086 82.1842 24.4711 84.8525 30.4181C87.6174 36.5806 88.9999 43.0745 88.9999 49.8996C88.9999 67.8435 74.7135 82.3898 57.0909 82.3898C39.468 82.3898 25.1818 67.8435 25.1818 49.8996C25.1818 39.9308 33.1185 31.8495 42.909 31.8495C52.6995 31.8495 60.6363 39.9308 60.6363 49.8996C60.6363 50.1367 60.6136 50.3714 60.5682 50.6039C60.5228 50.8364 60.4555 51.0621 60.3664 51.2811C60.2773 51.5001 60.1681 51.7082 60.0388 51.9053C59.9095 52.1023 59.7625 52.2847 59.5979 52.4523C59.4333 52.6199 59.2542 52.7696 59.0606 52.9013C58.867 53.033 58.6627 53.1442 58.4476 53.2349C58.2326 53.3256 58.0109 53.3941 57.7825 53.4403C57.5542 53.4865 57.3236 53.5097 57.0909 53.5097C56.8581 53.5097 56.6275 53.4865 56.3992 53.4403C56.1708 53.3941 55.9491 53.3256 55.7341 53.2349C55.519 53.1442 55.3147 53.033 55.1211 52.9013C54.9275 52.7696 54.7485 52.6199 54.5838 52.4523C54.4192 52.2847 54.2723 52.1023 54.1429 51.9053C54.0136 51.7082 53.9044 51.5001 53.8153 51.2811C53.7262 51.0621 53.6589 50.8364 53.6135 50.6039C53.5681 50.3714 53.5454 50.1367 53.5454 49.8996C53.5454 43.9184 48.7833 39.0696 42.909 39.0696C37.0347 39.0696 32.2727 43.9184 32.2727 49.8996C32.2727 63.8559 43.3842 75.1697 57.0909 75.1697C70.7976 75.1697 81.909 63.8559 81.909 49.8996C81.909 44.1219 80.7402 38.6281 78.4026 33.4183C76.1451 28.3866 72.9841 24.0173 68.9196 20.3105C68.9114 20.303 68.9029 20.2954 68.8947 20.2878C68.8085 20.2084 68.7263 20.1249 68.6483 20.0373Z" fill-rule="evenodd"  fill="#2D3748" ></path><path d="M57.0909 60.7298C51.2164 60.7298 46.4545 55.881 46.4545 49.8997C46.4545 49.6627 46.4318 49.4279 46.3864 49.1955C46.341 48.963 46.2737 48.7372 46.1847 48.5183C46.0956 48.2992 45.9864 48.0912 45.857 47.8941C45.7277 47.697 45.5807 47.5147 45.4161 47.3471C45.2515 47.1795 45.0724 47.0298 44.8788 46.8981C44.6853 46.7664 44.481 46.6552 44.2659 46.5645C44.0508 46.4738 43.8291 46.4053 43.6008 46.3591C43.3724 46.3128 43.1419 46.2897 42.9091 46.2897C42.6763 46.2897 42.4457 46.3128 42.2174 46.3591C41.9891 46.4053 41.7674 46.4738 41.5523 46.5645C41.3372 46.6552 41.1329 46.7664 40.9393 46.8981C40.7458 47.0298 40.5667 47.1795 40.4021 47.3471C40.2375 47.5147 40.0905 47.697 39.9612 47.8941C39.8318 48.0912 39.7226 48.2992 39.6335 48.5183C39.5444 48.7372 39.4772 48.963 39.4317 49.1955C39.3863 49.4279 39.3636 49.6627 39.3636 49.8997C39.3636 59.8685 47.3004 67.9499 57.0909 67.9499C66.8813 67.9499 74.8182 59.8685 74.8182 49.8997C74.8182 31.9559 60.5321 17.4095 42.9091 17.4095C25.2862 17.4095 11 31.9559 11 49.8997C11 56.7829 12.4051 63.3269 15.2154 69.5318C17.9274 75.5201 21.7191 80.7047 26.5906 85.0856C26.5947 85.0892 26.5988 85.0928 26.6028 85.0964C26.9227 85.384 27.2818 85.6055 27.6801 85.761C28.0784 85.9165 28.4909 85.9961 28.9174 86L28.9461 86L28.949 86L28.9805 86C29.9241 85.9913 30.7798 85.6076 31.4105 84.9881C31.4411 84.958 31.4712 84.9275 31.5007 84.8964C32.1151 84.2481 32.4934 83.3658 32.4944 82.3939L32.4944 82.39L32.4944 82.3856C32.4939 81.9375 32.4142 81.5046 32.2554 81.0867C32.0965 80.669 31.8692 80.2942 31.5733 79.9626C31.4875 79.8663 31.3968 79.7751 31.3012 79.6889C31.2992 79.687 31.2971 79.6852 31.2951 79.6835C31.2907 79.6794 31.2864 79.6755 31.282 79.6716C27.1582 75.9624 23.949 71.5747 21.6546 66.5084C19.2788 61.2625 18.0909 55.7263 18.0909 49.8997C18.0909 35.9434 29.2024 24.6296 42.9091 24.6296C56.6158 24.6296 67.7273 35.9434 67.7273 49.8997C67.7273 55.881 62.9654 60.7298 57.0909 60.7298Z" fill-rule="evenodd"  fill="#F56565" ></path></svg>