<svg xmlns="http://www.w3.org/2000/svg" xmlns:xlink="http://www.w3.org/1999/xlink" width="100" height="100" viewBox="0 0 100 100" fill="none"><rect  x="51.5894775390625" y="38" width="41.41054153442383" height="24" rx="1.86667"    fill="#FFD848" ></rect><path d="M57.7179 43.4716L57.7179 56.2857L61.4056 56.2857C64.3558 56.2857 66.2406 53.6146 66.2406 49.7884C66.2406 46.0345 64.5033 43.4716 61.4384 43.4716L57.7179 43.4716ZM61.2746 54.517L59.7339 54.517L59.7339 45.2403L61.3073 45.2403C63.2249 45.2403 64.1756 47.1174 64.1756 49.7884C64.1756 52.5137 63.1594 54.517 61.2746 54.517ZM72.3232 56.5926C75.2406 56.5926 76.6665 54.3004 76.6665 50.5284L76.6665 49.229C76.6665 45.4569 75.2406 43.1649 72.3232 43.1649C69.4058 43.1649 67.9799 45.4569 67.9799 49.229L67.9799 50.5284C67.9799 54.3004 69.4058 56.5926 72.3232 56.5926ZM72.3232 54.7697C70.7498 54.7697 70.045 53.4703 70.045 50.5826L70.045 49.1748C70.045 46.2872 70.7498 44.9877 72.3232 44.9877C73.8966 44.9877 74.6014 46.2872 74.6014 49.1748L74.6014 50.5826C74.6014 53.4703 73.8966 54.7697 72.3232 54.7697ZM82.7982 56.5926C85.4862 56.5926 86.9449 54.7155 87.1091 52.0083L85.1094 51.5932C85.0106 53.6507 84.2571 54.7516 82.8802 54.7516C81.3395 54.7516 80.5857 53.2537 80.5857 50.4562L80.5857 49.1748C80.5857 46.3593 81.3068 45.0057 82.8802 45.0057C84.2408 45.0057 85.0106 46.1247 85.1094 48.1461L87.1255 47.8032C86.9122 44.6448 85.3881 43.1649 82.8966 43.1649C79.9792 43.1649 78.5205 45.475 78.5205 49.2109L78.5205 50.5465C78.5205 54.2824 79.93 56.5926 82.7982 56.5926Z"   fill="#18181B" ></path><path d="M11.6875 53.1634L12.5234 48.6153C12.6709 47.8753 12.884 46.5398 12.9659 45.7276L13.0806 45.7276C13.0315 46.7744 12.9987 48.3446 12.9987 49.3552L12.9987 56.2857L14.8016 56.2857L14.8016 43.4716L12.2611 43.4716L11.163 49.265C11.0811 49.8064 10.9827 50.5103 10.95 50.8894L10.8516 50.8894C10.8188 50.5103 10.7205 49.8064 10.6385 49.265L9.54043 43.4716L7 43.4716L7 56.2857L8.80288 56.2857L8.80288 49.3552C8.80288 48.3446 8.77011 46.7744 8.72093 45.7276L8.83566 45.7276C8.934 46.5398 9.13068 47.8753 9.27819 48.6153L10.1141 53.1634L11.6875 53.1634ZM23.2279 53.019L24.0802 56.2857L26.0633 56.2857L22.5559 43.4716L20.2286 43.4716L16.7211 56.2857L18.7043 56.2857L19.5402 53.019L23.2279 53.019ZM21.3595 45.3125L21.425 45.3125C21.6873 46.8826 22.1134 48.7958 22.769 51.2322L19.9991 51.2322C20.6547 48.7958 21.0973 46.8826 21.3595 45.3125ZM31.8509 51.0337L34.1947 56.2857L36.4072 56.2857L33.8177 50.6547C35.2272 50.1313 36.0303 48.9221 36.0303 47.2978C36.0303 44.8613 34.5716 43.4716 32.0148 43.4716L28.0485 43.4716L28.0485 56.2857L30.0644 56.2857L30.0644 51.0337L31.8509 51.0337ZM30.0644 49.4455L30.0644 45.1862L31.8345 45.1862C33.1949 45.1862 33.916 45.9442 33.916 47.3158C33.916 48.6874 33.1949 49.4455 31.8345 49.4455L30.0644 49.4455ZM42.1456 50.0771L44.9483 56.2857L47.2756 56.2857L43.6371 48.5431L46.9315 43.4716L44.6041 43.4716L40.8509 49.4996L40.8509 43.4716L38.8349 43.4716L38.8349 56.2857L40.8509 56.2857L40.8509 52.0624L42.1456 50.0771Z"   fill="#18181B" ></path></svg>