<svg xmlns="http://www.w3.org/2000/svg" xmlns:xlink="http://www.w3.org/1999/xlink" width="100" height="100" viewBox="0 0 100 100" fill="none"><path    stroke="rgba(0, 143, 214, 1.00)" stroke-width="4"    d="M74.7679 76.0787C73.9723 76.8346 73.1388 77.5523 72.2675 78.2329C57.4562 89.8776 36.1465 88.1425 23.4242 74.2557C10.7019 60.3687 10.8815 39.0393 23.8357 25.3673C36.79 11.6954 58.1259 10.3174 72.7391 22.2089C87.3521 34.1003 90.3144 54.9145 79.4926 70.3221"></path><ellipse cx="75.00000762939453" cy="75.85368728637695" rx="2.0000076293945312" ry="1.9952888488769531"   fill="#008FD6" ></ellipse><path    stroke="rgba(0, 143, 214, 1.00)" stroke-width="4"    d="M19.5889 32.1417C29.8535 30.8975 40.006 30.2835 50.0463 30.2994C60.0865 30.3154 69.7288 30.961 78.9733 32.2362"></path><ellipse cx="50.27547836303711" cy="49.999996185302734" rx="17.71108627319336" ry="35.999996185302734" stroke="rgba(0, 143, 214, 1.00)" stroke-width="4"   ></ellipse><path    stroke="rgba(0, 143, 214, 1.00)" stroke-width="4"    d="M21.3884 69.8425C30.8227 71.103 40.3461 71.7333 49.9584 71.7333C59.5706 71.7333 69.2422 71.103 78.9733 69.8425"></path><path    stroke="rgba(0, 143, 214, 1.00)" stroke-width="4"    d="M14.6375 51.2283L85.6976 51.2283"></path></svg>