<svg xmlns="http://www.w3.org/2000/svg" xmlns:xlink="http://www.w3.org/1999/xlink" width="100" height="100" viewBox="0 0 100 100" fill="none">
<path     fill="#FFFFFF"  d="M0 100L100 100L100 0L0 0L0 100Z">
</path>
<path d="M77.3876 26.636C64.4842 11.5104 41.7624 9.70897 26.6369 22.6124C11.5115 35.5159 9.71011 58.238 22.6134 73.3635C35.5168 88.4891 58.2386 90.2905 73.364 77.3872C88.4896 64.4837 90.2909 41.7616 77.3876 26.636ZM59.4529 45.5307C60.8402 45.5307 61.7262 47.034 61.03 48.234L60.8298 48.5791L47.2441 70.9314C46.9916 71.3469 46.5407 71.6003 46.0547 71.6003L44.7578 71.6003C43.8692 71.6003 43.2194 70.7614 43.4421 69.901L47.1285 55.648C47.4232 54.5085 46.563 53.3974 45.386 53.3974L39.7236 53.3974C38.5466 53.3974 37.6864 52.2864 37.9809 51.1469L43.5436 29.6288C43.7459 28.9046 44.4016 28.3948 45.1535 28.4034C45.2445 28.4044 45.3272 28.4059 45.3957 28.4081L51.0983 28.408C52.1892 28.4075 53.0298 29.3697 52.8827 30.4507L52.8476 30.708L50.673 43.4274C50.485 44.5268 51.3317 45.5307 52.4472 45.5307L59.4529 45.5307Z" fill-rule="evenodd"  fill="url(#linear_fill_tQGWa-HuUNBxOmEWCtKeX)" >
</path>
<g filter="url(#filter_-XKdgQSpKjDDEHj1Vf0LO)">
<path d="M16.0005 38.1674C14.1266 43.5514 13.5581 49.3036 14.3419 54.9502C15.1256 60.597 17.2393 65.9769 20.5088 70.6469C23.7782 75.317 28.1101 79.1439 33.1479 81.8125C38.1855 84.4811 43.785 85.915 49.4852 85.9963C55.1854 86.0777 60.8233 84.804 65.9351 82.2803C71.0469 79.7566 75.4861 76.0548 78.8876 71.4799C82.289 66.9049 84.5553 61.5877 85.4999 55.9655C86.4443 50.3436 86.0402 44.5774 84.3205 39.1421L73.8536 42.4536C75.0487 46.2314 75.3295 50.239 74.6731 54.1465C74.0166 58.054 72.4415 61.7497 70.0773 64.9295C67.7133 68.1093 64.6278 70.682 61.0749 72.436C57.5222 74.1902 53.6036 75.0753 49.6418 75.0188C45.6799 74.9622 41.7881 73.9656 38.2869 72.1109C34.7855 70.2563 31.7747 67.5965 29.5023 64.3506C27.2299 61.1046 25.7608 57.3655 25.2161 53.4409C24.6713 49.5161 25.0664 45.5182 26.3689 41.7761L16.0005 38.1674Z"   fill="#FFFFFF" >
</path>
</g>
<defs>
<radialGradient id="linear_fill_tQGWa-HuUNBxOmEWCtKeX" cx="0" cy="0" r="1" gradientTransform="translate(21.791397094726562 49.999786376953125) rotate(90) scale(774.5552589270119, 75.95533752441406)" gradientUnits="userSpaceOnUse">
<stop offset="0" stop-color="#31B2F3"  />
<stop offset="0.473958" stop-color="#F27CEC"  />
<stop offset="1" stop-color="#FD6641"  />
</radialGradient>
<filter id="filter_-XKdgQSpKjDDEHj1Vf0LO" x="4" y="28.16741943359375" width="91.99736022949219" height="67.83256530761719" filterUnits="userSpaceOnUse" color-interpolation-filters="sRGB">
<feFlood flood-opacity="0" result="feFloodId_-XKdgQSpKjDDEHj1Vf0LO"/>
<feColorMatrix in="SourceAlpha" type="matrix" values="0 0 0 0 0 0 0 0 0 0 0 0 0 0 0 0 0 0 127 0" result="hardAlpha_-XKdgQSpKjDDEHj1Vf0LO"/>
<feOffset dx="undefined" dy="undefined"/>
<feComposite in2="hardAlpha_-XKdgQSpKjDDEHj1Vf0LO" operator="out"/>
<feColorMatrix type="matrix" values="0 0 0 0 0 0 0 0 0 0 0 0 0 0 0 0 0 0 0 0"/>
<feBlend mode="normal" in2="feFloodId_-XKdgQSpKjDDEHj1Vf0LO" result="dropShadow_1_-XKdgQSpKjDDEHj1Vf0LO"/>
<feBlend mode="normal" in="SourceGraphic" in2="dropShadow_1_-XKdgQSpKjDDEHj1Vf0LO" result="shape_-XKdgQSpKjDDEHj1Vf0LO"/>
<feGaussianBlur result="gaussian_blur_-XKdgQSpKjDDEHj1Vf0LO" stdDeviation="5"/>
</filter>
</defs>
</svg>
