<svg xmlns="http://www.w3.org/2000/svg" xmlns:xlink="http://www.w3.org/1999/xlink" width="100" height="100" viewBox="0 0 100 100" fill="none"><path d="M13 61.7003L42.9807 61.7003L13 20L13 61.7003Z"   fill="#22B573" ></path><path d="M13.4097 68.0582L15.7346 68.0582L20.5095 76.7819L20.5375 76.7819L20.5375 68.0582L22.2915 68.0582L22.2915 79.8006L20.0641 79.8006L15.1916 70.7948L15.1637 70.7948L15.1637 79.8006L13.4097 79.8006L13.4097 68.0582Z"   fill="#353535" ></path><path d="M27.6379 78.2087C28.863 78.2087 29.6008 77.0644 29.6008 75.82C29.6008 74.5764 28.863 73.432 27.6379 73.432C26.4129 73.432 25.6751 74.5764 25.6751 75.82C25.6751 77.0644 26.4129 78.2087 27.6379 78.2087ZM27.6379 71.6407C29.6565 71.6407 31.2712 73.3158 31.2712 75.82C31.2712 78.325 29.6565 80 27.6379 80C25.6194 80 24.0046 78.325 24.0046 75.82C24.0046 73.3158 25.6194 71.6407 27.6379 71.6407Z"   fill="#353535" ></path><path d="M36.1304 78.2086C37.3554 78.2086 38.0933 77.0643 38.0933 75.8199C38.0933 74.5763 37.3554 73.4319 36.1304 73.4319C34.9051 73.4319 34.1673 74.5763 34.1673 75.8199C34.1673 77.0643 34.9051 78.2086 36.1304 78.2086ZM38.1208 78.6068L38.0933 78.6068C37.6061 79.5685 36.7288 79.9999 35.7962 79.9999C33.7358 79.9999 32.4969 78.1754 32.4969 75.8199C32.4969 73.4652 33.8194 71.6406 35.7265 71.6406C36.9795 71.6406 37.6479 72.3371 37.9957 72.8511L38.0375 72.8511L38.0375 67.2622L39.7079 67.2622L39.7079 79.8009L38.1208 79.8009L38.1208 78.6068Z"   fill="#353535" ></path><path d="M46.3627 75.024C46.3488 73.863 45.7086 73.1335 44.6645 73.1335C43.6761 73.1335 43.0637 73.8796 42.9383 75.024L46.3627 75.024ZM42.9383 76.5167C43.0497 77.6946 43.8015 78.4076 44.7341 78.4076C45.5695 78.4076 46.1125 77.9434 46.53 77.3297L47.7272 78.4076C46.9475 79.552 45.9591 80 44.9011 80C42.8825 80 41.2678 78.325 41.2678 75.82C41.2678 73.3158 42.8825 71.6407 44.9011 71.6407C46.7666 71.6407 48.0335 73.1999 48.0335 75.9694L48.0335 76.5167L42.9383 76.5167Z"   fill="#353535" ></path><path d="M49.6489 73.7637C49.6489 73.1832 49.6071 72.6193 49.5792 72.0388L50.5675 72.0388L50.5675 73.216L50.5955 73.216C51.0409 72.3204 51.9181 71.8396 52.6976 71.8396C53.4076 71.8396 54.3402 72.1216 54.7717 73.4485C55.1477 72.4532 56.0389 71.8396 56.9157 71.8396C58.5726 71.8396 59.3658 72.9511 59.3658 74.8749L59.3658 79.8006L58.4471 79.8006L58.4471 75.273C58.4471 73.6972 58.0711 72.8348 56.8043 72.8348C55.4401 72.8348 54.9668 74.228 54.9668 75.6712L54.9668 79.8006L54.0479 79.8006L54.0479 75.273C54.0479 73.6972 53.6721 72.8348 52.4053 72.8348C52.1823 72.8348 50.5675 72.984 50.5675 75.8203L50.5675 79.8006L49.6489 79.8006L49.6489 73.7637Z"   fill="#353535" ></path><path d="M65.2137 75.9362C64.281 75.9362 62.1788 76.0191 62.1788 77.5783C62.1788 78.6068 62.9721 79.0046 63.7099 79.0046C65.0465 79.0046 65.687 77.8769 65.687 76.5004L65.687 75.9362L65.2137 75.9362ZM65.687 75.0408L65.687 74.8416C65.687 73.498 65.144 72.8348 64.0162 72.8348C63.2505 72.8348 62.5824 73.15 62.0255 73.747L61.4689 72.9673C62.0673 72.2377 63.0003 71.8396 64.2253 71.8396C65.5061 71.8396 66.6057 72.702 66.6057 74.5929L66.6057 78.0592C66.6057 78.6566 66.6614 79.3862 66.7172 79.8006L65.826 79.8006C65.7706 79.4194 65.7424 78.9548 65.7424 78.5404L65.7149 78.5404C65.1858 79.5685 64.4619 79.9999 63.4178 79.9999C62.2622 79.9999 61.1765 79.2368 61.1765 77.7278C61.1765 75.2065 63.6684 75.0408 65.2276 75.0408L65.687 75.0408Z"   fill="#353535" ></path><path d="M69.8638 79.8006L68.9448 79.8006L68.9448 72.0385L69.8638 72.0385L69.8638 79.8006ZM69.4042 69.8495C69.0703 69.8495 68.7361 69.5177 68.7361 69.0531C68.7361 68.5889 69.0703 68.2571 69.4042 68.2571C69.7384 68.2571 70.0726 68.5889 70.0726 69.0531C70.0726 69.5177 69.7384 69.8495 69.4042 69.8495Z"   fill="#353535" ></path><path d="M73.2046 79.8006L72.2859 79.8006L72.2859 67.2618L73.2046 67.2618L73.2046 79.8006Z"   fill="#353535" ></path><path d="M80.4858 75.3228C80.4858 73.8464 79.6922 72.8348 78.3699 72.8348C77.1725 72.8348 76.0866 74.0456 76.0866 75.3228L80.4858 75.3228ZM76.0589 76.2185C76.1702 77.7773 77.1586 79.0046 78.4532 79.0046C79.4277 79.0046 80.1794 78.3581 80.5415 77.6614L81.2515 78.3581C80.4858 79.519 79.5253 79.9999 78.4532 79.9999C76.5183 79.9999 75.0845 78.2585 75.0845 75.9199C75.0845 73.5811 76.5183 71.8396 78.3699 71.8396C80.3464 71.8562 81.4881 73.5976 81.4881 75.7206L81.4881 76.2185L76.0589 76.2185Z"   fill="#353535" ></path><path d="M83.2568 74.46C83.2568 73.7637 83.2289 73.1666 83.201 72.0388L84.1058 72.0388L84.1058 73.4817L84.134 73.4817C84.3985 72.6522 85.0805 71.8396 86.222 71.8396C86.4865 71.8396 86.7092 71.8728 86.904 71.9392L86.7231 73.0171C86.6119 72.9673 86.4447 72.9344 86.194 72.9344C84.8021 72.9344 84.1755 74.3774 84.1755 75.4221L84.1755 79.8006L83.2568 79.8006L83.2568 74.46Z"   fill="#353535" ></path><path d="M65.011 50.5889L73.0026 61.7003L87 61.7003L87 20.2101L65.011 50.5889Z"   fill="#0F9DCE" ></path><path d="M65.0095 50.5889L43.0189 20L43.0189 61.7003L73.0026 61.7003L65.0095 50.5889Z"   fill="#29ABE2" ></path></svg>