<svg xmlns="http://www.w3.org/2000/svg" xmlns:xlink="http://www.w3.org/1999/xlink" width="100" height="100" viewBox="0 0 100 100" fill="none">
<path     fill="#FFFFFF"  d="M0 100L100 100L100 0L0 0L0 100Z">
</path>
<path d="M50.0006 14C51.9886 14 53.6005 15.6656 53.6005 17.7202L53.6005 21.4403C53.6005 23.4949 51.9886 25.1605 50.0006 25.1605C48.0123 25.1605 46.4006 23.4949 46.4006 21.4403L46.4006 17.7202C46.4006 15.6656 48.0123 14 50.0006 14ZM75.4562 24.8959C76.862 26.3487 76.862 28.7041 75.4562 30.1571L72.911 32.7872C71.505 34.2399 69.2256 34.2399 67.8198 32.7872C66.414 31.3343 66.414 28.9789 67.8198 27.526L70.365 24.8959C71.771 23.4431 74.0502 23.4431 75.4562 24.8959ZM50.0006 40.0411C47.1361 40.0411 44.3892 41.2169 42.364 43.3099C40.958 44.7626 38.6787 44.7626 37.2727 43.3099C35.8669 41.8572 35.8669 39.5016 37.2727 38.0489C40.6484 34.5606 45.2268 32.6007 50.0006 32.6007C54.7743 32.6007 59.3525 34.5606 62.7282 38.0489C66.1038 41.537 68.0003 46.2684 68.0003 51.2015C68.0003 56.1347 66.1038 60.866 62.7282 64.3544C61.3224 65.8071 59.0429 65.8071 57.6372 64.3544C56.2314 62.9014 56.2314 60.5461 57.6372 59.0931C59.6626 57.0003 60.8004 54.1616 60.8004 51.2015C60.8004 48.2417 59.6626 45.403 57.6372 43.3099C55.6118 41.2169 52.8648 40.0411 50.0006 40.0411ZM75.2002 51.2015C75.2002 49.1471 76.8118 47.4814 78.8001 47.4814L82.4001 47.4814C84.3881 47.4814 86 49.1471 86 51.2015C86 53.2562 84.3881 54.9217 82.4001 54.9217L78.8001 54.9217C76.8118 54.9217 75.2002 53.2562 75.2002 51.2015Z" fill-rule="evenodd"  fill="#00DC82" >
</path>
<path d="M40.4459 15.089C41.4665 16.143 41.7794 17.7248 41.241 19.1082C39.1348 24.5207 38.6144 30.4535 39.7443 36.1693C40.8743 41.8849 43.6048 47.1314 47.5967 51.2564C51.5884 55.3816 56.6654 58.2033 62.1963 59.371C67.7274 60.5386 73.4684 60.0008 78.7061 57.8243C80.0444 57.2682 81.5743 57.5911 82.5945 58.6451C83.6144 59.6988 83.9274 61.2801 83.3896 62.6631C80.7094 69.5547 76.0952 75.4599 70.1402 79.6188C64.1855 83.7777 57.1624 86.0003 49.9751 86L49.9713 86C41.6134 85.9905 33.5187 82.9772 27.0751 77.476C20.6315 71.9748 16.2403 64.329 14.6543 55.8487C13.0683 47.3684 14.3863 38.5823 18.3822 30.9962C22.3782 23.41 28.8032 17.4965 36.5561 14.2695C37.8944 13.7124 39.4253 14.035 40.4459 15.089ZM32.2735 25.3258C29.1886 27.8164 26.6046 30.9487 24.7059 34.5533C21.5089 40.6226 20.4545 47.6523 21.7234 54.4369C22.9923 61.2215 26.5055 67.3388 31.6608 71.74C36.816 76.1412 43.2923 78.5521 49.9792 78.5597C55.7281 78.559 61.3456 76.7811 66.1087 73.4543C68.6294 71.694 70.8497 69.5426 72.6996 67.0898C68.7435 67.6327 64.7063 67.4949 60.7552 66.6606C53.8415 65.2011 47.4952 61.6737 42.5057 56.5176C37.516 51.3613 34.1027 44.8031 32.6902 37.6585C31.8836 33.5789 31.7498 29.4107 32.2735 25.3258Z" fill-rule="evenodd"  fill="#000000" >
</path>
</svg>
