<svg xmlns="http://www.w3.org/2000/svg" xmlns:xlink="http://www.w3.org/1999/xlink" width="100" height="100" viewBox="0 0 100 100" fill="none">
<path     fill="#FFFFFF"  d="M0 100L100 100L100 0L0 0L0 100Z">
</path>
<path d="M52.6415 15L75.7461 15C77.091 14.9958 78.4237 15.2611 79.6675 15.7811C80.9115 16.301 82.0421 17.0651 82.9947 18.0297C83.9472 18.9945 84.7032 20.1406 85.2188 21.4026C85.7345 22.6646 86 24.0174 86 25.3838L86 48.8566C85.9999 51.5771 84.9515 54.1895 83.0795 56.135C81.2074 58.0806 78.6602 59.2043 75.9827 59.2663L71.9453 66.3619C71.2416 67.5975 70.0918 67.6149 69.3898 66.3775L65.3556 59.3044L52.6415 59.3044C49.9187 59.2975 47.3099 58.1936 45.3874 56.2349C43.4652 54.2759 42.3862 51.6226 42.3876 48.8566L42.3876 25.3838C42.3876 24.0174 42.6529 22.6646 43.1686 21.4026C43.6844 20.1406 44.4401 18.9945 45.3929 18.0297C46.3453 17.0651 47.4761 16.301 48.7199 15.7811C49.9637 15.2611 51.2966 14.9958 52.6415 15Z"   fill="#001427" >
</path>
<path d="M68.5468 32.0616C67.4523 34.9701 66.0009 37.3896 64.1681 39.3971C62.2081 37.3125 60.7059 34.8415 59.6112 32.0616L68.5468 32.0616ZM75.7767 32.0616L75.7767 29.0758L65.6701 29.0758L65.6701 25.0089L62.5899 25.0089L62.5899 29.0758L52.6102 29.0758L52.6102 32.0616L56.2509 32.0616C57.6254 35.8195 59.3822 39.037 61.6733 41.6879C59.1021 43.6701 55.9198 45.1371 52.1523 46.141C52.763 46.8873 53.7051 48.3288 54.0615 49.1268C57.9308 47.8913 61.215 46.2181 63.9898 43.9789C66.6628 46.2697 69.9724 47.9942 74.0711 49.0496C74.5294 48.1745 75.4967 46.7331 76.235 45.9865C72.3654 45.1115 69.1579 43.5927 66.5357 41.5594C68.8779 38.9854 70.7362 35.8711 72.111 32.0616L75.7767 32.0616Z"   fill="#00DE83" >
</path>
<path d="M47.3584 32.703L24.254 32.703C22.909 32.6987 21.5763 32.964 20.3325 33.484C19.0885 34.0039 17.9579 34.768 17.0052 35.7326C16.0527 36.6974 15.2969 37.8435 14.7812 39.1055C14.2655 40.3675 14 41.7204 14 43.0867L14 66.5594C14.0002 69.2799 15.0484 71.8923 16.9205 73.8379C18.7927 75.7834 21.3398 76.9072 24.0172 76.9691L28.0547 84.0647C28.7585 85.3003 29.9082 85.3177 30.6102 84.0803L34.6443 77.0072L47.3584 77.0072C50.0813 77.0003 52.6902 75.8964 54.6125 73.9377C56.5348 71.9787 57.6137 69.3254 57.6123 66.5594L57.6123 43.0867C57.6123 41.7204 57.3471 40.3675 56.8314 39.1055C56.3155 37.8435 55.5597 36.6974 54.6072 35.7326C53.6547 34.768 52.5238 34.0039 51.28 33.484C50.0363 32.964 48.7034 32.6987 47.3584 32.703Z"   fill="#00DE83" >
</path>
<path d="M33.5366 67.104C31.5604 67.104 29.9391 66.7918 28.6728 66.1672C27.4069 65.5119 26.465 64.653 25.8473 63.5914C25.2299 62.5301 24.921 61.3594 24.921 60.079C24.921 57.9248 25.7548 56.1764 27.4225 54.8338C29.0897 53.4915 31.5912 52.82 34.9261 52.82L40.7624 52.82L40.7624 52.2581C40.7624 50.666 40.3147 49.4951 39.4189 48.7459C38.5234 47.9964 37.4119 47.6217 36.084 47.6217C34.8797 47.6217 33.8298 47.9183 32.9344 48.5118C32.0389 49.0737 31.4832 49.9167 31.2668 51.0405L25.4768 51.0405C25.6312 49.3548 26.187 47.8872 27.1444 46.6384C28.1326 45.3895 29.3985 44.4373 30.9426 43.7816C32.4867 43.0947 34.2159 42.7512 36.1304 42.7512C39.4037 42.7512 41.9819 43.5788 43.8656 45.2334C45.7494 46.8884 46.6912 49.2298 46.6912 52.2581L46.6912 66.5418L41.6423 66.5418L41.0866 62.7954C40.4071 64.0441 39.4501 65.0745 38.215 65.8864C37.0106 66.6979 35.451 67.104 33.5366 67.104ZM34.8797 62.4207C36.5782 62.4207 37.8905 61.8588 38.8168 60.7347C39.7741 59.611 40.3763 58.2213 40.6232 56.5667L35.5747 56.5667C33.9998 56.5667 32.8727 56.8633 32.1933 57.4564C31.514 58.0187 31.1742 58.7209 31.1742 59.564C31.1742 60.4693 31.514 61.172 32.1933 61.6716C32.8727 62.1708 33.7682 62.4207 34.8797 62.4207Z"   fill="#001427" >
</path>
</svg>
