<svg xmlns="http://www.w3.org/2000/svg" xmlns:xlink="http://www.w3.org/1999/xlink" width="100" height="100" viewBox="0 0 100 100" fill="none">
<path     fill="#FFFFFF"  d="M0 100L100 100L100 0L0 0L0 100Z">
</path>
<path d="M54.32 74L80.96 74C81.8101 74 82.6237 73.7014 83.36 73.28C84.0963 72.8586 84.8552 72.3298 85.28 71.6C85.7048 70.8702 86.0005 70.0424 86 69.1998C85.9995 68.3571 85.7055 67.5296 85.28 66.8002L67.28 35.84C66.8552 35.1104 66.3361 34.5812 65.6 34.16C64.8639 33.7388 63.8101 33.44 62.96 33.44C62.1099 33.44 61.2961 33.7388 60.56 34.16C59.8239 34.5812 59.3048 35.1104 58.88 35.84L54.32 43.76L45.2 28.3994C44.7747 27.6699 44.2563 26.9012 43.52 26.48C42.7837 26.0588 41.9701 26 41.12 26C40.2699 26 39.4563 26.0588 38.72 26.48C37.9838 26.9012 37.2252 27.6699 36.8 28.3994L14.48 66.8002C14.0545 67.5296 14.0004 68.3571 14 69.1998C13.9996 70.0424 14.0551 70.8702 14.48 71.6C14.9049 72.3296 15.6638 72.8586 16.4 73.28C17.1362 73.7014 17.9499 74 18.8 74L35.6 74C42.2569 74 47.102 71.0139 50.48 65.36L58.64 51.2L62.96 43.76L76.16 66.32L58.64 66.32L54.32 74ZM35.36 66.32L23.6 66.32L41.12 36.08L50 51.2L44.1178 61.454C41.8746 65.1224 39.3171 66.32 35.36 66.32Z"   fill="#00DC82" >
</path>
</svg>
