<svg xmlns="http://www.w3.org/2000/svg" xmlns:xlink="http://www.w3.org/1999/xlink" width="100" height="100" viewBox="0 0 100 100" fill="none"><path d="M50 17.8614C29.4285 17.8614 19.1428 35.146 19.1428 48.9737C19.1428 62.8015 29.4285 76.6292 39.7142 80.0861L39.7142 86.9999L46.5714 86.9999L46.5714 80.0861C46.5714 80.0861 50 81.4688 53.4285 80.0861L53.4285 86.9999L60.2857 86.9999L60.2857 80.0861C70.5714 76.6292 80.8571 62.8015 80.8571 48.9737C80.8571 35.146 70.5714 17.8614 50 17.8614Z"   fill="url(#linear_fill_IukCssvWtIFW3Ey4ZMS0B)" ></path><path d="M22.5714 42.0599C12.2857 38.603 8.85714 45.5169 12.2857 52.4307C15.7143 59.3446 22.5714 55.8876 26 48.9738C28.0571 44.1341 26 42.0599 22.5714 42.0599Z"   fill="url(#linear_fill_mhdb9htXtWwhFFSMtscLb)" ></path><path d="M77.4285 42.0599C87.7142 38.603 91.1428 45.5169 87.7142 52.4307C84.2856 59.3446 77.4285 55.8876 74 48.9738C71.9428 44.1341 74 42.0599 77.4285 42.0599Z"   fill="url(#linear_fill_sgpkQ-RAQOoVICM7t0-Yp)" ></path><path    stroke="rgba(255, 77, 77, 1.00)" stroke-width="3"  stroke-linecap="round"  d="M39.7143 21.3184C35.1429 16.7091 31.7143 15.0959 29.4286 16.4787"></path><path    stroke="rgba(255, 77, 77, 1.00)" stroke-width="3"  stroke-linecap="round"  d="M60.2857 21.3184C64.8571 16.7091 68.2857 15.0959 70.5714 16.4787"></path><ellipse cx="39.71426010131836" cy="35.14605522155762" rx="4.114284515380859" ry="4.148313522338867"   fill="#050810" ></ellipse><ellipse cx="60.28567123413086" cy="35.14605522155762" rx="4.114284515380859" ry="4.148313522338867"   fill="#050810" ></ellipse><ellipse cx="40.399953842163086" cy="34.45469093322754" rx="1.714284896850586" ry="1.728464126586914"   fill="#00E5CC" ></ellipse><ellipse cx="60.97136688232422" cy="34.45469093322754" rx="1.7142868041992188" ry="1.728464126586914"   fill="#00E5CC" ></ellipse><defs><linearGradient id="linear_fill_IukCssvWtIFW3Ey4ZMS0B" x1="19.142822265625" y1="17.861419677734375" x2="80.85711669921875" y2="86.99993896484375" gradientUnits="userSpaceOnUse"><stop offset="0" stop-color="#FF4D4D"  /><stop offset="1" stop-color="#991B1B"  /></linearGradient><linearGradient id="linear_fill_mhdb9htXtWwhFFSMtscLb" x1="11" y1="41.14044189453125" x2="26.82073974609375" y2="56.199371337890625" gradientUnits="userSpaceOnUse"><stop offset="0" stop-color="#FF4D4D"  /><stop offset="1" stop-color="#991B1B"  /></linearGradient><linearGradient id="linear_fill_sgpkQ-RAQOoVICM7t0-Yp" x1="73.17919921875" y1="41.14044189453125" x2="88.99993896484375" y2="56.199371337890625" gradientUnits="userSpaceOnUse"><stop offset="0" stop-color="#FF4D4D"  /><stop offset="1" stop-color="#991B1B"  /></linearGradient></defs></svg>