<svg xmlns="http://www.w3.org/2000/svg" xmlns:xlink="http://www.w3.org/1999/xlink" width="100" height="100" viewBox="0 0 100 100" fill="none">
<path     fill="#FFFFFF"  d="M0 100L100 100L100 0L0 0L0 100Z">
</path>
<path d="M48.4 88C36.0288 88 26 77.4886 26 64.5217C26 51.5549 36.0288 41.0435 48.4 41.0435L48.4 88Z"   fill="#000000" >
</path>
<path d="M48.4 16L26 16L26 37.913L48.4 37.913L48.4 16Z"   fill="#000000" >
</path>
<path d="M62.8 37.913C68.9856 37.913 74 33.0077 74 26.9565C74 20.9054 68.9856 16 62.8 16C56.6145 16 51.6 20.9054 51.6 26.9565C51.6 33.0077 56.6145 37.913 62.8 37.913Z"   fill="#000000" >
</path>
</svg>
