<svg xmlns="http://www.w3.org/2000/svg" xmlns:xlink="http://www.w3.org/1999/xlink" width="100" height="100" viewBox="0 0 100 100" fill="none">
<path     fill="#FFFFFF"  d="M0 100L100 100L100 0L0 0L0 100Z">
</path>
<ellipse cx="49.99996566772461" cy="50.00008010864258" rx="6.857143402099609" ry="6.728046417236328"   fill="#58C4DC" >
</ellipse>
<path d="M82.8406 57.0444C84.9468 54.8457 86 52.4975 86 50C86 47.5026 84.9468 45.1544 82.8406 42.9557C80.9496 40.9817 78.3185 39.2504 74.9473 37.7619C71.6607 36.3109 67.9002 35.19 63.6659 34.3992C59.3135 33.5864 54.7582 33.1799 50 33.1799C45.2419 33.1799 40.6866 33.5864 36.3339 34.3992C32.0996 35.19 28.3393 36.3109 25.0529 37.7619C21.6816 39.2504 19.0505 40.9817 17.1595 42.9557C15.0532 45.1544 14 47.5026 14 50C14 52.4975 15.0532 54.8457 17.1595 57.0444C19.0505 59.0184 21.6816 60.7496 25.0529 62.2382C28.3393 63.6892 32.0996 64.8101 36.3339 65.6009C40.6866 66.4137 45.2419 66.8202 50 66.8202C54.7582 66.8202 59.3135 66.4137 63.6659 65.6009C67.9002 64.8101 71.6607 63.6892 74.9473 62.2382C78.3185 60.7497 80.9496 59.0184 82.8406 57.0444ZM80.3422 45.2596C81.8283 46.8109 82.5714 48.3911 82.5714 50C82.5714 51.609 81.8283 53.1892 80.3422 54.7405C78.7632 56.3887 76.4959 57.8654 73.5402 59.1704C70.4995 60.513 66.9945 61.5549 63.0251 62.2962C58.8841 63.0695 54.5424 63.4561 50 63.4561C45.4575 63.4561 41.1158 63.0695 36.975 62.2962C33.0055 61.5549 29.5004 60.513 26.4598 59.1704C23.504 57.8654 21.2367 56.3887 19.6578 54.7405C18.1716 53.1891 17.4286 51.609 17.4286 50C17.4286 48.3911 18.1716 46.8109 19.6578 45.2596C21.2367 43.6114 23.504 42.1347 26.4598 40.8297C29.5004 39.4871 33.0055 38.4452 36.975 37.7039C41.1159 36.9306 45.4575 36.544 50 36.544C54.5424 36.544 58.8841 36.9306 63.0251 37.7039C66.9945 38.4452 70.4995 39.4871 73.5402 40.8297C76.4959 42.1347 78.7632 43.6114 80.3422 45.2596Z" fill-rule="evenodd"  fill="#58C4DC" >
</path>
<path d="M60.2026 81.4275C63.1965 82.1179 65.7956 81.8387 68 80.59C70.2044 79.3412 71.7504 77.2723 72.638 74.3831C73.4348 71.7894 73.6474 68.688 73.2756 65.0792C72.913 61.561 72.0222 57.8052 70.603 53.8118C69.1442 49.707 67.2253 45.6331 64.8462 41.59C62.4672 37.5469 59.8307 33.8794 56.937 30.5872C54.1219 27.3847 51.2523 24.7499 48.3284 22.6828C45.3289 20.5625 42.4853 19.1924 39.7975 18.5725C36.8036 17.8821 34.2044 18.1613 32 19.4101C29.7956 20.6588 28.2497 22.7278 27.3621 25.617C26.5653 28.2107 26.3528 31.3121 26.7246 34.921C27.087 38.439 27.9778 42.1947 29.397 46.1881C30.8559 50.293 32.7748 54.367 35.1539 58.4101C37.533 62.4532 40.1694 66.1207 43.0631 69.4127C45.8782 72.6153 48.7477 75.2502 51.6718 77.3173C54.6712 79.4377 57.5148 80.8077 60.2026 81.4275ZM69.3552 73.4122C68.7291 75.4507 67.7059 76.8722 66.2858 77.6767C64.8656 78.4811 63.0994 78.6398 60.987 78.1526C58.7427 77.6351 56.3057 76.4468 53.676 74.5878C50.9707 72.6754 48.2985 70.218 45.6595 67.2158C42.9065 64.0838 40.3943 60.5878 38.1231 56.7281C35.8519 52.8682 34.0223 48.9857 32.6344 45.0805C31.304 41.3368 30.4711 37.8376 30.1358 34.5826C29.8098 31.4185 29.9795 28.7536 30.6448 26.5878C31.271 24.5493 32.2942 23.1279 33.7143 22.3234C35.1345 21.5189 36.9007 21.3602 39.013 21.8474C41.2573 22.3649 43.6943 23.5532 46.3241 25.4122C49.0294 27.3247 51.7016 29.782 54.3406 32.7843C57.0936 35.9163 59.6057 39.4121 61.877 43.272C64.1482 47.1317 65.9777 51.0143 67.3657 54.9197C68.6961 58.6632 69.529 62.1625 69.8643 65.4174C70.1903 68.5815 70.0206 71.2464 69.3552 73.4122Z" fill-rule="evenodd"  fill="#58C4DC" >
</path>
<path d="M27.3621 74.3831C28.2497 77.2723 29.7956 79.3412 32 80.59C34.2044 81.8387 36.8036 82.1179 39.7974 81.4276C42.4852 80.8077 45.3288 79.4377 48.3283 77.3173C51.2523 75.2502 54.1219 72.6153 56.937 69.4127C59.8307 66.1207 62.4671 62.4532 64.8462 58.4101C67.2252 54.3671 69.1442 50.2931 70.603 46.1881C72.0222 42.1947 72.913 38.439 73.2755 34.921C73.6473 31.3121 73.4348 28.2107 72.638 25.617C71.7504 22.7278 70.2044 20.6588 68 19.4101C65.7956 18.1613 63.1965 17.8822 60.2026 18.5726C57.5148 19.1924 54.6712 20.5625 51.6717 22.6829C48.7478 24.7499 45.8782 27.3847 43.0631 30.5873C40.1693 33.8794 37.5329 37.5469 35.1539 41.59C32.7748 45.6331 30.8559 49.7071 29.3971 53.8119C27.9779 57.8052 27.087 61.561 26.7245 65.0792C26.3527 68.6881 26.5652 71.7894 27.3621 74.3831ZM39.0131 78.1526C36.9007 78.6398 35.1345 78.4811 33.7143 77.6767C32.2942 76.8722 31.271 75.4507 30.6448 73.4122C29.9795 71.2464 29.8098 68.5815 30.1357 65.4175C30.4711 62.1625 31.304 58.6632 32.6344 54.9197C34.0223 51.0143 35.8519 47.1318 38.1231 43.272C40.3944 39.4121 42.9065 35.9162 45.6594 32.7843C48.2985 29.782 50.9707 27.3247 53.676 25.4122C56.3057 23.5532 58.7428 22.3649 60.987 21.8474C63.0994 21.3602 64.8656 21.5189 66.2858 22.3234C67.7059 23.1279 68.7291 24.5494 69.3553 26.5878C70.0206 28.7536 70.1903 31.4185 69.8643 34.5826C69.529 37.8376 68.6961 41.3369 67.3656 45.0805C65.9778 48.9857 64.1482 52.8682 61.877 56.7281C59.6058 60.5878 57.0936 64.0838 54.3406 67.2158C51.7016 70.218 49.0294 72.6754 46.3241 74.5879C43.6944 76.4468 41.2574 77.6351 39.0131 78.1526Z" fill-rule="evenodd"  fill="#58C4DC" >
</path>
</svg>
