<svg xmlns="http://www.w3.org/2000/svg" xmlns:xlink="http://www.w3.org/1999/xlink" width="100" height="100" viewBox="0 0 100 100" fill="none"><path d="M63.1168 62.697C65.6263 62.4397 67.53 60.2949 67.4434 57.7212C67.3569 55.1475 65.1936 53.0885 62.5976 53.0885L62.4245 53.0885C59.742 53.1743 57.6652 55.4048 57.7518 58.0643C57.8383 59.3512 58.3575 60.4665 59.1363 61.2386C56.1942 66.9866 51.6945 71.1903 44.9449 74.7078C40.3587 77.1099 35.5993 77.9678 30.84 77.3673C26.9461 76.8525 23.9174 75.1367 22.0137 72.3056C19.2447 68.1019 18.9851 63.555 21.3214 59.008C22.9656 55.748 25.5615 53.3458 27.2057 52.1448C26.8595 51.0295 26.3403 49.1421 26.0807 47.7694C13.5335 56.7775 14.8315 68.9598 18.6389 74.7078C21.4945 78.9973 27.2922 81.6568 33.6956 81.6568C35.4263 81.6568 37.1569 81.4852 38.8876 81.0563C49.9638 78.9115 58.3575 72.3914 63.1168 62.697Z"   fill="#764ABC" ></path><path d="M78.3465 52.059C71.77 44.4236 62.0783 40.2198 51.0021 40.2198L49.6176 40.2198C48.8388 38.6756 47.1947 37.6461 45.3775 37.6461L45.2044 37.6461C42.5219 37.7319 40.4451 39.9625 40.5317 42.622C40.6182 45.1957 42.7815 47.2547 45.3775 47.2547L45.5506 47.2547C47.4543 47.1689 49.0984 45.9678 49.7907 44.3378L51.3483 44.3378C57.9248 44.3378 64.1551 46.2252 69.7798 49.9142C74.1064 52.7453 77.2216 56.4343 78.9522 60.8954C80.4233 64.4987 80.3368 68.0161 78.7792 71.0188C76.3562 75.5657 72.2892 78.0536 66.9242 78.0536C63.4629 78.0536 60.1746 77.0241 58.4439 76.252C57.4921 77.1099 55.7614 78.4826 54.55 79.3405C58.2709 81.0563 62.0783 82 65.7127 82C74.0199 82 80.1637 77.4531 82.5001 72.9062C85.0095 67.9303 84.8365 59.3512 78.3465 52.059Z"   fill="#764ABC" ></path><path d="M34.3879 64.1555C34.4745 66.7292 36.6378 68.7882 39.2338 68.7882L39.4069 68.7882C42.0894 68.7024 44.1662 66.4718 44.0797 63.8123C43.9931 61.2386 41.8298 59.1796 39.2338 59.1796L39.0607 59.1796C38.8877 59.1796 38.6281 59.1796 38.455 59.2654C34.9071 53.4316 33.4361 47.0831 33.9553 40.2198C34.3014 35.0724 36.0321 30.6113 39.0607 26.9222C41.5702 23.748 46.416 22.2038 49.7043 22.118C58.8768 21.9464 62.7707 33.2708 63.0303 37.8177C64.1553 38.0751 66.059 38.6756 67.357 39.1046C66.3186 25.2064 57.6653 18 49.3582 18C41.5702 18 34.3879 23.5764 31.5323 31.8123C27.5518 42.7936 30.1478 53.3458 34.9937 61.6675C34.561 62.2681 34.3014 63.2118 34.3879 64.1555Z"   fill="#764ABC" ></path></svg>