<svg xmlns="http://www.w3.org/2000/svg" xmlns:xlink="http://www.w3.org/1999/xlink" width="100" height="100" viewBox="0 0 100 100" fill="none">
<path     fill="#FFFFFF"  d="M0 100L100 100L100 0L0 0L0 100Z">
</path>
<path d="M82.4046 55.2087L55.2087 82.4046L55.2066 82.4066C54.2222 83.3911 52.8622 84 51.36 84C49.8578 84 48.4978 83.3911 47.5133 82.4066C47.4749 82.3682 47.437 82.3292 47.3997 82.2896C46.4822 81.3157 45.92 80.0035 45.92 78.56C45.92 77.1236 46.4767 75.8172 47.3861 74.8448C47.4204 74.8082 47.4551 74.7721 47.4903 74.7365C47.498 74.7287 47.5056 74.721 47.5133 74.7133L47.5154 74.7113L74.7113 47.5154L74.7133 47.5133C74.7518 47.4749 74.7908 47.437 74.8304 47.3997C75.8042 46.4822 77.1164 45.92 78.56 45.92C79.9981 45.92 81.3058 46.478 82.2785 47.3893C82.314 47.4225 82.349 47.4562 82.3835 47.4903C82.3912 47.498 82.399 47.5056 82.4066 47.5133C83.3911 48.4978 84 49.8578 84 51.36C84 52.8622 83.3911 54.2222 82.4066 55.2066L82.4046 55.2087Z" fill-rule="evenodd"  fill="#000000" >
</path>
<path d="M76.9637 25.2895L25.2895 76.9637L25.2867 76.9668C24.3022 77.9511 22.9422 78.56 21.44 78.56C19.9378 78.56 18.5778 77.9511 17.5933 76.9668C17.5395 76.9128 17.4868 76.8578 17.4352 76.8019C16.5441 75.8332 16 74.5402 16 73.12C16 72.9418 16.0087 72.7641 16.0262 72.5869C16.0437 72.4094 16.0698 72.2334 16.1045 72.0589C16.1393 71.8841 16.1825 71.7114 16.2343 71.5407C16.286 71.3702 16.3459 71.2027 16.4141 71.0382C16.4823 70.8736 16.5584 70.7128 16.6424 70.5557C16.7263 70.3984 16.8178 70.2458 16.9168 70.0977C17.0158 69.9495 17.1218 69.8066 17.2348 69.669C17.3479 69.5312 17.4674 69.3993 17.5933 69.2732L17.5962 69.2705L69.2705 17.5962L69.2732 17.5933C69.3993 17.4674 69.5312 17.3479 69.669 17.2348C69.8066 17.1218 69.9495 17.0158 70.0977 16.9168C70.2458 16.8178 70.3984 16.7263 70.5557 16.6424C70.7128 16.5584 70.8736 16.4823 71.0382 16.4141C71.2027 16.3459 71.3702 16.286 71.5407 16.2343C71.7114 16.1825 71.8841 16.1393 72.0589 16.1045C72.2334 16.0698 72.4094 16.0437 72.5869 16.0262C72.7641 16.0087 72.9418 16 73.12 16C74.5296 16 75.8142 16.5362 76.7808 17.4159C76.8361 17.4662 76.8904 17.5177 76.9436 17.5703C76.9513 17.578 76.959 17.5857 76.9668 17.5933C77.9511 18.5778 78.56 19.9378 78.56 21.44C78.56 22.9422 77.9511 24.3022 76.9668 25.2867L76.9637 25.2895Z" fill-rule="evenodd"  fill="#000000" >
</path>
</svg>
