<svg xmlns="http://www.w3.org/2000/svg" xmlns:xlink="http://www.w3.org/1999/xlink" width="100" height="100" viewBox="0 0 100 100" fill="none">
<path     fill="#FFFFFF"  d="M0 100L100 100L100 0L0 0L0 100Z">
</path>
<path d="M67.1387 30.6032L67.1387 14L56.6625 14L56.6625 32.0155L35.9276 34.8119L36.0937 36.0613L32.9445 36.0613L32.9445 58.791L14.3955 61.2922L15.7854 71.752L33.2571 69.3961L33.2571 86L43.7333 86L43.7333 67.9827L62.5954 65.4392L61.9005 60.2093L67.1387 60.2093L67.1387 41.2504L86 38.7079L84.6104 28.2478L67.1387 30.6032ZM56.6625 42.6628L43.4208 44.4487L43.4208 57.3775L56.6625 55.5921L56.6625 42.6628Z" fill-rule="evenodd"  fill="#99CC00" >
</path>
<path d="M43.3375 44.4472L43.3375 17.1959L32.8613 17.1959L32.8613 35.2124L14 37.7557L15.3899 48.2155L43.3375 44.4472ZM56.6624 55.5917L56.6624 82.844L67.1387 82.844L67.1387 64.827L85.9997 62.2853L84.6106 51.8252L56.6624 55.5917Z" fill-rule="evenodd"  fill="#009900" >
</path>
</svg>
