<svg xmlns="http://www.w3.org/2000/svg" xmlns:xlink="http://www.w3.org/1999/xlink" width="100" height="100" viewBox="0 0 100 100" fill="none">
<path     fill="#FFFFFF"  d="M0 100L100 100L100 0L0 0L0 100Z">
</path>
<ellipse cx="73.41349411010742" cy="26.58646583557129" rx="12.586467742919922" ry="12.586465835571289"   fill="#CB7676" >
</ellipse>
<rect x="14" y="26.992481231689453" width="72" height="17.593982696533203"   fill="#4B9978" >
</rect>
<path d="M43.629 53.0928C43.507 51.5678 42.935 50.3781 41.9132 49.5241C40.9066 48.6699 39.3739 48.243 37.315 48.243C36.0034 48.243 34.9282 48.403 34.0894 48.7235C33.2658 49.0285 32.6558 49.4478 32.2592 49.9816C31.8627 50.5154 31.6568 51.1255 31.6416 51.8116C31.6111 52.376 31.7102 52.887 31.939 53.3445C32.183 53.7868 32.5643 54.1909 33.0828 54.5568C33.6013 54.9076 34.2648 55.2281 35.0731 55.5177C35.8814 55.8076 36.8422 56.0669 37.9556 56.2957L41.7987 57.1191C44.3916 57.6683 46.6106 58.3926 48.4561 59.2923C50.3013 60.1923 51.8114 61.2523 52.9856 62.4722C54.1601 63.677 55.0216 65.0345 55.5706 66.5443C56.1349 68.0542 56.4248 69.7012 56.44 71.4858C56.4248 74.5664 55.6545 77.1743 54.1295 79.3097C52.6042 81.4448 50.4234 83.0689 47.5867 84.1824C44.7652 85.2957 41.3719 85.8522 37.4065 85.8522C33.3344 85.8522 29.7809 85.25 26.7459 84.0452C23.7262 82.8401 21.3776 80.9871 19.6999 78.486C18.0375 75.9696 17.1987 72.7515 17.1835 68.8321L29.2624 68.8321C29.3386 70.2656 29.697 71.4704 30.3376 72.4467C30.9782 73.4228 31.878 74.1622 33.0371 74.6657C34.2114 75.1689 35.6069 75.4206 37.2235 75.4206C38.5808 75.4206 39.7171 75.2528 40.6321 74.9172C41.5473 74.5818 42.241 74.1165 42.7139 73.5218C43.1868 72.9269 43.4306 72.2483 43.4461 71.4858C43.4306 70.769 43.1943 70.1435 42.7369 69.6097C42.2946 69.0608 41.5624 68.5728 40.5406 68.1456C39.5188 67.7034 38.1386 67.2917 36.3999 66.9103L31.7331 65.9039C27.5848 65.0039 24.3134 63.5016 21.919 61.3971C19.5398 59.2772 18.3578 56.3872 18.3731 52.7268C18.3578 49.7529 19.1509 47.1525 20.7523 44.9259C22.3689 42.6839 24.6032 40.9377 27.4551 39.6871C30.3223 38.4365 33.609 37.8112 37.315 37.8112C41.0974 37.8112 44.3686 38.4441 47.1292 39.71C49.8896 40.9758 52.0171 42.7602 53.5118 45.0631C55.0216 47.3509 55.7841 50.0273 55.7996 53.0928L43.629 53.0928Z"   fill="#83D0DA" >
</path>
<rect x="72.73681640625" y="14" width="72" height="17.593982696533203" transform="rotate(90 72.73681640625 14)"   fill="#E6CC78" >
</rect>
</svg>
