<svg width="100" height="100" viewBox="0 0 100 100" fill="none" xmlns="http://www.w3.org/2000/svg">
<path fill-rule="evenodd" clip-rule="evenodd" d="M31.5 42.3333C33.9667 32.1111 40.1333 27 50 27C59.1705 27 63.3693 31.4154 66.9967 35.2303L67.0023 35.2362C69.2269 37.575 71.2376 39.6889 74.05 40.4167C78.9833 41.6944 83.3 39.7778 87 34.6667C84.5333 44.8889 78.3667 50 68.5 50C59.3295 50 55.1307 45.5846 51.5033 41.7697L51.4977 41.7638C49.2731 39.425 47.2624 37.3111 44.45 36.5833C39.5167 35.3056 35.2 37.2222 31.5 42.3333ZM13 65.3333C15.4667 55.1111 21.6333 50 31.5 50C40.6705 50 44.8693 54.4154 48.4967 58.2303L48.5023 58.2362C50.7269 60.575 52.7376 62.6889 55.55 63.4167C60.4833 64.6944 64.8 62.7778 68.5 57.6667C66.0333 67.8889 59.8667 73 50 73C40.8295 73 36.6307 68.5846 33.0033 64.7697L33.0019 64.7683C30.7756 62.4277 28.7642 60.3129 25.95 59.5833C21.0167 58.3056 16.7 60.2222 13 65.3333Z" fill="#38BDF8"/>
</svg>
