<svg xmlns="http://www.w3.org/2000/svg" xmlns:xlink="http://www.w3.org/1999/xlink" width="100" height="100" viewBox="0 0 100 100" fill="none">
<path     fill="#FFFFFF"  d="M0 100L100 100L100 0L0 0L0 100Z">
</path>
<path d="M50 27C40.1333 27 33.9667 32.1111 31.5 42.3333C35.2 37.2222 39.5167 35.3056 44.45 36.5833C47.2647 37.3117 49.2764 39.4285 51.5033 41.7697C55.1307 45.5846 59.3295 50 68.5 50C78.3667 50 84.5333 44.8889 87 34.6667C83.3 39.7778 78.9833 41.6944 74.05 40.4167C71.2353 39.6883 69.2236 37.5715 66.9967 35.2303C63.3693 31.4154 59.1705 27 50 27ZM31.5 50C21.6333 50 15.4667 55.1111 13 65.3333C16.7 60.2222 21.0167 58.3056 25.95 59.5833C28.7647 60.3131 30.7764 62.4285 33.0033 64.7697C36.6307 68.5846 40.8295 73 50 73C59.8667 73 66.0333 67.8889 68.5 57.6667C64.8 62.7778 60.4833 64.6944 55.55 63.4167C52.7353 62.6883 50.7236 60.5715 48.4967 58.2303C44.8693 54.4154 40.6705 50 31.5 50Z" fill-rule="evenodd"  fill="#38BDF8" >
</path>
</svg>
