<svg xmlns="http://www.w3.org/2000/svg" xmlns:xlink="http://www.w3.org/1999/xlink" width="100" height="100" viewBox="0 0 100 100" fill="none">
<path     fill="#FFFFFF"  d="M0 100L100 100L100 0L0 0L0 100Z">
</path>
<path d="M49.9999 14C43.2336 14 36.8946 15.7928 31.4505 18.9201C30.3539 19.55 29.8729 20.9502 30.8043 21.798C31.6239 22.5439 32.7218 23.0001 33.9285 23.0001L66.0713 23.0001C67.2782 23.0001 68.376 22.5439 69.1955 21.798C70.1269 20.9502 69.646 19.55 68.5493 18.9201C63.1053 15.7928 56.7662 14 49.9999 14Z"   fill="#000000" >
</path>
<path d="M86.7346 50.0003C86.7346 47.515 84.6788 45.5002 82.1428 45.5002L17.8572 45.5002C15.3211 45.5002 13.2653 47.515 13.2653 50.0003C13.2653 52.4856 15.3211 54.5003 17.8572 54.5003L82.1428 54.5003C84.6788 54.5003 86.7346 52.4856 86.7346 50.0003Z"   fill="#000000" >
</path>
<path d="M69.1955 78.2026C70.1269 79.0506 69.646 80.4507 68.5493 81.0807C63.1053 84.2078 56.7662 86.0006 49.9999 86.0006C43.2336 86.0006 36.8946 84.2078 31.4505 81.0807C30.3539 80.4507 29.8729 79.0506 30.8043 78.2026C31.6238 77.4567 32.7218 77.0005 33.9285 77.0005L66.0713 77.0005C67.2782 77.0005 68.376 77.4567 69.1955 78.2026Z"   fill="#000000" >
</path>
<path d="M17.8572 34.2502C17.8572 31.7648 19.9129 29.7501 22.449 29.7501L77.5509 29.7501C80.0869 29.7501 82.1428 31.7648 82.1428 34.2502C82.1428 36.7355 80.0869 38.7502 77.5509 38.7502L22.449 38.7502C19.9129 38.7502 17.8572 36.7355 17.8572 34.2502Z"   fill="#000000" >
</path>
<path d="M17.8572 65.7504C17.8572 63.2651 19.9129 61.2504 22.449 61.2504L77.5509 61.2504C80.0869 61.2504 82.1428 63.2651 82.1428 65.7504C82.1428 68.2358 80.0869 70.2505 77.5509 70.2505L22.449 70.2505C19.9129 70.2505 17.8572 68.2358 17.8572 65.7504Z"   fill="#000000" >
</path>
</svg>
