<svg xmlns="http://www.w3.org/2000/svg" xmlns:xlink="http://www.w3.org/1999/xlink" width="100" height="100" viewBox="0 0 100 100" fill="none"><path d="M61.734 25.0232C62.2789 24.4532 63.1626 24.4532 63.7075 25.0232L86.5915 48.9547C87.1364 49.5247 87.1364 50.4488 86.5915 51.0187L63.7056 74.9521C63.1608 75.5221 62.277 75.5221 61.7321 74.9521L38.8484 51.0208C38.3035 50.4509 38.3035 49.5268 38.8484 48.9568L61.734 25.0232Z"   fill="#2A004E" ></path><path d="M30.0511 51.028C29.5076 50.4596 29.5075 49.5405 30.0511 48.9721L49.2 28.9471C49.8432 28.2744 49.7064 27.1494 48.8914 26.7243C45.5672 24.9902 41.8273 24 37.8587 24C24.1316 24 13 35.6413 13 50C13 64.3587 24.1316 75.9999 37.8587 75.9999C41.8265 75.9999 45.567 75.0089 48.8914 73.2747C49.7064 72.8498 49.8432 71.7245 49.1999 71.0521L30.0511 51.028Z"   fill="#F14A00" ></path></svg>