<svg xmlns="http://www.w3.org/2000/svg" xmlns:xlink="http://www.w3.org/1999/xlink" width="100" height="100" viewBox="0 0 100 100" fill="none">
<path     fill="#FFFFFF"  d="M0 100L100 100L100 0L0 0L0 100Z">
</path>
<ellipse cx="50.02520751953125" cy="48.67183876037598" rx="28.766357421875" ry="30.671838760375977" stroke="rgba(0, 0, 0, 1.00)" stroke-width="1.1214953271028036"      fill="#FFFFFF" >
</ellipse>
<path d="M83.4766 40.2613L16.5721 40.2613C16.5308 40.2613 16.4896 40.2624 16.4483 40.2645C16.4071 40.2667 16.3659 40.2699 16.3248 40.2742C16.2837 40.2785 16.2428 40.2839 16.2019 40.2903C16.161 40.2968 16.1204 40.3043 16.0799 40.3129C16.0394 40.3216 15.9991 40.3312 15.959 40.342C15.919 40.3526 15.8792 40.3644 15.8397 40.3772C15.8001 40.3899 15.7609 40.4038 15.7221 40.4186C15.6832 40.4334 15.6447 40.4493 15.6065 40.4661C15.5683 40.483 15.5306 40.5008 15.4933 40.5196C15.4559 40.5385 15.4191 40.5583 15.3826 40.5789C15.3462 40.5997 15.3103 40.6215 15.2749 40.6441C15.2395 40.6667 15.2046 40.6902 15.1702 40.7147C15.1359 40.7392 15.1022 40.7646 15.069 40.7908C15.0358 40.817 15.0033 40.844 14.9713 40.872C14.9394 40.8999 14.9082 40.9286 14.8776 40.9583C14.847 40.9878 14.8171 41.0182 14.7879 41.0492C14.7587 41.0805 14.7302 41.1124 14.7025 41.145C14.6747 41.1776 14.6478 41.2109 14.6216 41.2449C14.5954 41.279 14.57 41.3138 14.5454 41.3491C14.5208 41.3844 14.497 41.4204 14.474 41.4569C14.4511 41.4937 14.429 41.5308 14.4078 41.5685C14.3866 41.6063 14.3662 41.6446 14.3467 41.6835C14.3273 41.7224 14.3087 41.7617 14.2911 41.8015C14.2734 41.8413 14.2567 41.8816 14.2409 41.9222C14.2251 41.9629 14.2102 42.004 14.1963 42.0455C14.1824 42.0868 14.1694 42.1286 14.1574 42.1708C14.1455 42.2129 14.1344 42.2553 14.1244 42.298C14.1144 42.3407 14.1053 42.3837 14.0973 42.427C14.0892 42.4701 14.0822 42.5135 14.0761 42.557C14.07 42.6005 14.065 42.6442 14.0609 42.6881C14.0569 42.7319 14.0539 42.7758 14.0518 42.8198C14.0498 42.8638 14.0488 42.9078 14.0488 42.9518L14.0488 45.6961C14.0202 46.34 14 46.9714 14 47.6153C14 68.8148 30.1176 86 50 86C69.5813 86 85.5121 69.3296 85.9882 48.5714C85.9882 48.4925 86 48.4135 86 48.3328L86 42.9518C86 42.9078 85.999 42.8638 85.997 42.8198C85.995 42.7758 85.9919 42.7319 85.9879 42.6881C85.9838 42.6442 85.9788 42.6005 85.9727 42.557C85.9667 42.5135 85.9596 42.4701 85.9516 42.427C85.9435 42.3837 85.9344 42.3407 85.9243 42.298C85.9144 42.2553 85.9033 42.2129 85.8913 42.1708C85.8794 42.1286 85.8664 42.0868 85.8525 42.0455C85.8385 42.004 85.8237 41.9629 85.8079 41.9222C85.7921 41.8816 85.7754 41.8413 85.7578 41.8015C85.7401 41.7617 85.7214 41.7224 85.7021 41.6835C85.6826 41.6446 85.6622 41.6063 85.641 41.5685C85.6198 41.5308 85.5978 41.4937 85.5747 41.4569C85.5517 41.4204 85.528 41.3844 85.5034 41.349C85.4788 41.3137 85.4534 41.279 85.4272 41.2449C85.4011 41.2109 85.374 41.1776 85.3463 41.145C85.3185 41.1124 85.2901 41.0805 85.261 41.0492C85.2317 41.0182 85.2018 40.9878 85.1712 40.9583C85.1407 40.9286 85.1094 40.8999 85.0775 40.872C85.0455 40.844 85.0129 40.817 84.9797 40.7908C84.9466 40.7645 84.9129 40.7391 84.8786 40.7147C84.8441 40.6902 84.8093 40.6667 84.774 40.6441C84.7385 40.6215 84.7027 40.5997 84.6662 40.5789C84.6296 40.5583 84.5928 40.5385 84.5555 40.5196C84.5181 40.5008 84.4804 40.483 84.4422 40.4661C84.4041 40.4493 84.3655 40.4334 84.3267 40.4186C84.2878 40.4038 84.2486 40.3899 84.2091 40.3772C84.1695 40.3644 84.1299 40.3526 84.0898 40.342C84.0496 40.3312 84.0094 40.3216 83.9689 40.3129C83.9283 40.3043 83.8878 40.2968 83.8469 40.2903C83.806 40.2839 83.7651 40.2785 83.7239 40.2742C83.6829 40.2699 83.6417 40.2667 83.6004 40.2645C83.5592 40.2624 83.5179 40.2613 83.4766 40.2613Z"   fill="#000000" >
</path>
</svg>
