<svg xmlns="http://www.w3.org/2000/svg" xmlns:xlink="http://www.w3.org/1999/xlink" width="100" height="100" viewBox="0 0 100 100" fill="none">
<path     fill="#ECDC5A"  d="M0 100L100 100L100 0L0 0L0 100Z">
</path>
<path d="M82.5514 65.4405C83.5629 66.7798 84.0095 68.3085 84.1977 69.9168C84.2992 70.7843 84.3287 71.6638 84.332 72.5382C84.346 76.2193 84.3354 79.9006 84.3399 83.5818C84.341 84.4296 84.0649 85.1159 83.2869 85.5358C82.064 86.1958 80.5705 85.3358 80.5435 83.9464C80.526 83.0581 80.5409 82.1693 80.5399 81.2806C80.5364 78.0382 80.5459 74.7955 80.5212 71.553C80.5124 70.3783 80.2885 69.2375 79.6349 68.2267C78.9384 67.1497 77.9229 66.5665 76.6662 66.4235C74.0862 66.1295 71.9532 66.9808 70.306 68.9968C69.5994 69.8622 69.3189 70.8783 69.32 71.9867C69.3239 75.9217 69.3249 79.8568 69.3197 83.7919C69.3179 85.1636 68.0774 86.0654 66.7769 85.6559C66.0354 85.4226 65.5474 84.6933 65.525 83.7724C65.5165 83.4149 65.5237 83.0571 65.5237 82.6993C65.5237 76.964 65.5259 71.2285 65.5209 65.4932C65.5204 64.7275 65.7469 64.0762 66.4099 63.6525C67.0067 63.2713 67.6532 63.2405 68.2855 63.5643C68.9309 63.8948 69.2717 64.4447 69.3187 65.1702C69.3282 65.3182 69.32 65.4673 69.32 65.6717C69.4459 65.5693 69.5412 65.4988 69.6285 65.4197C71.245 63.9533 73.1154 62.9923 75.2985 62.7952C77.8159 62.5677 80.1804 62.9657 82.0579 64.875C82.2274 65.0473 82.3782 65.2378 82.5514 65.4405Z"   fill="#111827" >
</path>
<path d="M58.6305 63.3662C59.674 63.5475 60.3023 64.2565 60.301 65.325C60.2965 69.5832 60.3462 73.8433 60.2245 78.0983C60.1415 81.0006 58.833 83.3248 56.2609 84.8194C55.1717 85.4524 53.9762 85.7938 52.7255 85.9411C51.1069 86.1316 49.4912 86.1038 47.9229 85.6488C45.431 84.9259 43.5737 83.4403 42.5785 80.9794C42.0539 79.6822 41.9059 78.3232 41.9015 76.945C41.8897 73.0905 41.8947 69.2358 41.8989 65.3813C41.9002 64.1185 42.7542 63.2935 43.9655 63.3645C44.9434 63.4217 45.6909 64.3055 45.6934 65.4307C45.6987 67.7157 45.693 70.0008 45.6957 72.2858C45.6977 74.0515 45.687 75.8175 45.7182 77.5827C45.7335 78.4543 45.9402 79.2973 46.3649 80.0701C46.957 81.1484 47.864 81.8271 49.0469 82.1484C50.6062 82.5714 52.1569 82.5511 53.663 81.9568C55.2089 81.3473 56.0704 80.1436 56.3592 78.5372C56.4687 77.9283 56.501 77.2988 56.5032 76.6785C56.5159 72.9278 56.5082 69.1772 56.5104 65.4265C56.511 64.3807 57.0102 63.6605 57.916 63.4197C58.1334 63.3618 58.3712 63.381 58.6305 63.3662Z"   fill="#111827" >
</path>
</svg>
