<svg xmlns="http://www.w3.org/2000/svg" xmlns:xlink="http://www.w3.org/1999/xlink" width="100" height="100" viewBox="0 0 100 100" fill="none">
<path     fill="#FFFFFF"  d="M0 100L100 100L100 0L0 0L0 100Z">
</path>
<path d="M52.5807 69.2471C52.5807 59.9945 60.062 52.4942 69.2904 52.4942C78.5188 52.4942 86.0001 59.9945 86.0001 69.2471C86.0001 78.4994 78.5188 86 69.2904 86C60.062 86 52.5807 78.4994 52.5807 69.2471Z"   fill="#858585" >
</path>
<path d="M52.5807 30.7529C52.5807 21.5005 60.062 14 69.2904 14C78.5188 14 86.0001 21.5005 86.0001 30.7529L86.0001 45.8305C86.0001 46.7556 85.2518 47.5058 84.3291 47.5058L54.2517 47.5058C53.329 47.5058 52.5807 46.7556 52.5807 45.8305L52.5807 30.7529Z"   fill="#CCCCCC" >
</path>
<path d="M47.4193 69.2471C47.4193 78.4994 39.9381 86 30.7097 86C21.4812 86 14 78.4994 14 69.2471L14 54.1695C14 53.244 14.7481 52.4942 15.671 52.4942L45.7484 52.4942C46.6712 52.4942 47.4193 53.244 47.4193 54.1695L47.4193 69.2471Z"   fill="#4D4D4D" >
</path>
</svg>
