<svg xmlns="http://www.w3.org/2000/svg" xmlns:xlink="http://www.w3.org/1999/xlink" width="100" height="100" viewBox="0 0 100 100" fill="none">
<path     fill="#FFFFFF"  d="M0 100L100 100L100 0L0 0L0 100Z">
</path>
<path d="M84.7683 25.3606L51.8858 84.0862C51.2069 85.2987 49.4627 85.3058 48.7736 84.0993L15.2391 25.3662C14.4884 24.0514 15.6141 22.4587 17.106 22.725L50.0236 28.6015C50.2336 28.639 50.4486 28.6386 50.6586 28.6004L82.8879 22.7335C84.3748 22.4628 85.5059 24.0431 84.7683 25.3606Z"   fill="url(#linear_fill_ZJj_dKn7KQofwkFGRyndO)" >
</path>
<path d="M65.7042 15.0172L41.3701 19.7794C40.9702 19.8577 40.674 20.1962 40.6499 20.6024L39.153 45.8518C39.1178 46.4465 39.6647 46.9081 40.2459 46.7742L47.0208 45.2126C47.6547 45.0666 48.2275 45.6242 48.0972 46.2609L46.0844 56.1049C45.9489 56.7675 46.5717 57.334 47.2195 57.1375L51.404 55.8677C52.0528 55.671 52.6761 56.2392 52.5389 56.9022L49.3401 72.3651C49.14 73.3323 50.4281 73.8597 50.9653 73.0305L51.3242 72.4766L71.1529 32.9547C71.4849 32.293 70.9123 31.5384 70.1846 31.6787L63.211 33.0229C62.5556 33.1491 61.998 32.5396 62.183 31.8992L66.7346 16.1404C66.9198 15.4989 66.3602 14.8889 65.7042 15.0172Z"   fill="url(#linear_fill_ZacJ58r4Bmjxt8MkE5Z7r)" >
</path>
<defs>
<linearGradient id="linear_fill_ZJj_dKn7KQofwkFGRyndO" x1="14.420318603515625" y1="20.626266479492188" x2="55.34515380859375" y2="76.13563537597656" gradientUnits="userSpaceOnUse">
<stop offset="0" stop-color="#41D1FF"  />
<stop offset="1" stop-color="#BD34FE"  />
</linearGradient>
<linearGradient id="linear_fill_ZacJ58r4Bmjxt8MkE5Z7r" x1="48.13433837890625" y1="16.310150146484375" x2="55.5374755859375" y2="67.03085327148438" gradientUnits="userSpaceOnUse">
<stop offset="0" stop-color="#FFEA83"  />
<stop offset="0.0833333" stop-color="#FFDD35"  />
<stop offset="1" stop-color="#FFA800"  />
</linearGradient>
</defs>
</svg>
