<svg xmlns="http://www.w3.org/2000/svg" xmlns:xlink="http://www.w3.org/1999/xlink" width="100" height="100" viewBox="0 0 100 100" fill="none">
<path     fill="#FFFFFF"  d="M0 100L100 100L100 0L0 0L0 100Z">
</path>
<path d="M20.0476 30.4621C19.6763 27.9221 21.5172 25.5736 24.1593 25.2166L62.432 20.0458C65.0739 19.6888 67.517 21.4585 67.8883 23.9985L75.4524 75.7381C75.8236 78.2784 73.9827 80.6266 71.3405 80.9836L34.6627 85.9389C31.1399 86.4151 27.8826 84.0553 27.3875 80.669L20.0476 30.4621Z"   fill="url(#linear_fill_FsaOn34S7lMHkcRTBFFvA)" >
</path>
<path d="M23.8016 25.4648C23.3993 22.5795 25.3935 19.9118 28.2557 19.5063L66.7542 14.052C69.6162 13.6465 72.2626 15.6568 72.665 18.5421L79.9482 70.7851C80.3506 73.6704 78.3564 76.3381 75.4944 76.7439L36.9959 82.1979C34.1337 82.6036 31.4873 80.5933 31.0851 77.708L23.8016 25.4648Z"   fill="url(#linear_fill_hlJK0GmIUTbBeV6lrfhSg)" >
</path>
<path d="M27.1617 26.6531C26.8755 24.6032 28.2944 22.7079 30.3308 22.4198L65.7298 17.4119C67.766 17.1238 69.6489 18.5521 69.9354 20.602L76.7757 69.5967C77.0619 71.6469 75.6432 73.5421 73.6066 73.8301L38.2079 78.8379C36.1714 79.1263 34.2885 77.6979 34.0023 75.6481L27.1617 26.6531Z"   fill="#FFFFFF" >
</path>
<path d="M64.4934 52.7165L41.3085 55.766C40.3939 55.8864 39.7566 56.6776 39.8851 57.5337L41.398 67.6081C41.5265 68.4639 42.3722 69.0601 43.2868 68.9401L66.4715 65.8906C67.3861 65.7702 68.0236 64.9786 67.895 64.1229L66.3822 54.0485C66.2536 53.1924 65.408 52.5961 64.4934 52.7165Z" stroke="url(#linear_border_PbLgfVC_3wp1-r7buNUk4)" stroke-width="4"   >
</path>
<path d="M44.2429 66.6335L42.9846 57.9286L45.7153 57.5555L48.9087 60.3826L51.1768 56.8089L53.9076 56.4361L55.1662 65.1406L52.4352 65.5137L51.7135 60.5214L49.4454 64.0951L46.252 61.2676L46.9737 66.26L44.2429 66.6335ZM61.31 64.301L56.6034 60.6369L59.3341 60.2634L58.6861 55.7829L61.4173 55.4101L62.0649 59.8903L64.7956 59.5171L61.31 64.301Z"   fill="url(#linear_fill_l1c1L6xEmaB8yeEBGwv82)" >
</path>
<path d="M59.9228 28.1275L51.9086 47.4431C51.7431 47.8419 51.18 47.9203 50.9037 47.5831L37.4609 31.1694C37.16 30.802 37.4529 30.2679 37.9467 30.2837L48.842 30.6333C48.9116 30.6356 48.981 30.6261 49.0471 30.6053L59.1983 27.41C59.6667 27.2626 60.1025 27.6942 59.9228 28.1275Z"   fill="url(#linear_fill_gwzzVzaM4_Rnyozkk-3m1)" >
</path>
<path d="M53.3044 25.8124L45.6546 28.3261C45.5289 28.3674 45.4482 28.4834 45.4585 28.6081L46.0967 36.3602C46.1117 36.5427 46.3089 36.6593 46.4907 36.5932L48.61 35.8215C48.8083 35.7494 49.0181 35.8941 49.0043 36.0936L48.7914 39.1784C48.7771 39.386 49.0034 39.5313 49.204 39.4431L50.4994 38.8736C50.7002 38.7854 50.9268 38.9311 50.912 39.1389L50.5655 43.9861C50.5438 44.2893 50.9834 44.3936 51.1201 44.1176L51.2115 43.9333L55.8613 31.0347C55.9392 30.8187 55.7207 30.6141 55.492 30.6886L53.2986 31.4028C53.0926 31.4698 52.8855 31.3086 52.9168 31.1056L53.6873 26.1092C53.7186 25.9058 53.5105 25.7446 53.3044 25.8124Z"   fill="url(#linear_fill_kAmn5edVl_IF3sxgYW05R)" >
</path>
<defs>
<linearGradient id="linear_fill_FsaOn34S7lMHkcRTBFFvA" x1="20.1678466796875" y1="20.154861450195312" x2="75.66802978515625" y2="85.82786560058594" gradientUnits="userSpaceOnUse">
<stop offset="0" stop-color="#508AB7"  />
<stop offset="1" stop-color="#2D1342"  />
</linearGradient>
<linearGradient id="linear_fill_hlJK0GmIUTbBeV6lrfhSg" x1="24.19464111328125" y1="21.182601928710938" x2="79.578125" y2="75.00125122070312" gradientUnits="userSpaceOnUse">
<stop offset="0" stop-color="#49C7FF"  />
<stop offset="1" stop-color="#BD36FF"  />
</linearGradient>
<linearGradient id="linear_border_PbLgfVC_3wp1-r7buNUk4" x1="41.25494384765625" y1="56.89137268066406" x2="65.828369140625" y2="68.40798950195312" gradientUnits="userSpaceOnUse">
<stop offset="0" stop-color="#49C8FF"  />
<stop offset="1" stop-color="#BE35FF"  />
</linearGradient>
<linearGradient id="linear_fill_l1c1L6xEmaB8yeEBGwv82" x1="43.162109375" y1="58.076751708984375" x2="65.498046875" y2="64.20350646972656" gradientUnits="userSpaceOnUse">
<stop offset="0" stop-color="#4BC7FF"  />
<stop offset="1" stop-color="#B93DFF"  />
</linearGradient>
<linearGradient id="linear_fill_gwzzVzaM4_Rnyozkk-3m1" x1="36.98583984375" y1="29.762252807617188" x2="51.71942138671875" y2="45.75010681152344" gradientUnits="userSpaceOnUse">
<stop offset="0" stop-color="#41D1FF"  />
<stop offset="1" stop-color="#BD34FE"  />
</linearGradient>
<linearGradient id="linear_fill_kAmn5edVl_IF3sxgYW05R" x1="47.68572998046875" y1="26.974136352539062" x2="51.921630859375" y2="42.20503234863281" gradientUnits="userSpaceOnUse">
<stop offset="0" stop-color="#FFEA83"  />
<stop offset="0.0833333" stop-color="#FFDD35"  />
<stop offset="1" stop-color="#FFA800"  />
</linearGradient>
</defs>
</svg>
