<svg xmlns="http://www.w3.org/2000/svg" xmlns:xlink="http://www.w3.org/1999/xlink" width="100" height="100" viewBox="0 0 100 100" fill="none"><g  clip-path="url(#clip-path-0DCcvF10whV8akIQ9j0tE)"><path d="M53.0683 86.3154C52.9612 86.4621 52.8358 86.5874 52.6923 86.6918C52.5489 86.7962 52.394 86.8751 52.2278 86.9276C52.0616 86.98 51.892 87.0037 51.7188 86.9995C51.5457 86.9953 51.3773 86.9624 51.2136 86.9016C51.0499 86.8403 50.8988 86.754 50.76 86.6421C50.6213 86.5303 50.5017 86.3985 50.4011 86.2467C50.3006 86.095 50.2239 85.9302 50.171 85.7525C50.1181 85.5748 50.0916 85.3928 50.0913 85.2063L50.0913 68.8613C50.0916 68.6251 50.0705 68.3917 50.0279 68.1601C49.9854 67.9285 49.9223 67.7039 49.8386 67.4858C49.755 67.2681 49.6523 67.0607 49.5307 66.8644C49.409 66.6681 49.2708 66.4866 49.1159 66.32C48.961 66.1534 48.7925 66.0044 48.6103 65.8731C48.4282 65.7422 48.2359 65.6318 48.0334 65.5413C47.831 65.4512 47.6224 65.3835 47.4075 65.3375C47.1927 65.2916 46.9757 65.2689 46.7567 65.2693L29.9975 65.2693C29.8446 65.2698 29.6944 65.2475 29.5471 65.203C29.3998 65.1584 29.2608 65.0934 29.1302 65.0076C28.9996 64.9217 28.8822 64.8182 28.778 64.6976C28.6738 64.5769 28.5868 64.4433 28.5168 64.2966C28.4469 64.1504 28.3968 63.9963 28.3663 63.8349C28.3358 63.6734 28.3262 63.5105 28.3375 63.3457C28.3488 63.1814 28.3805 63.0218 28.4327 62.8672C28.4849 62.7122 28.5555 62.5679 28.6447 62.4338L39.661 45.8197C39.8391 45.5511 39.9802 45.2616 40.0843 44.9511C40.1884 44.6407 40.2515 44.3209 40.2737 43.9916C40.2959 43.6625 40.2764 43.3362 40.215 43.0128C40.1538 42.6893 40.053 42.3809 39.9128 42.0874C39.7725 41.794 39.5981 41.5264 39.3894 41.2847C39.1807 41.0431 38.9455 40.8363 38.6839 40.6645C38.4223 40.4926 38.1439 40.3621 37.8489 40.2729C37.5539 40.1837 37.2532 40.1392 36.9467 40.1393L16.672 40.1393C16.5185 40.1402 16.3677 40.1186 16.2198 40.0745C16.0718 40.0304 15.9322 39.9655 15.8009 39.8798C15.6696 39.7941 15.5516 39.6907 15.4469 39.5697C15.3422 39.4488 15.2547 39.3148 15.1844 39.1678C15.1142 39.0207 15.0638 38.8662 15.0332 38.7041C15.0027 38.542 14.9932 38.3785 15.0047 38.2136C15.0162 38.0487 15.0484 37.8886 15.101 37.7332C15.1537 37.5779 15.225 37.4332 15.3149 37.2991L29.5968 15.7518C29.7537 15.5174 29.9513 15.3339 30.1896 15.2014C30.4281 15.0689 30.6814 15.0018 30.9496 15L73.5154 15C74.8725 15 75.6653 16.6521 74.8725 17.8355L63.8563 34.4543C63.6784 34.7229 63.537 35.0124 63.4328 35.3228C63.329 35.6333 63.2656 35.9531 63.2436 36.2823C63.2212 36.6115 63.2406 36.9378 63.3022 37.2612C63.3634 37.5846 63.4642 37.8931 63.6047 38.1865C63.7447 38.48 63.9192 38.7476 64.1277 38.9893C64.3367 39.2309 64.5719 39.4377 64.8334 39.6095C65.0949 39.7814 65.3732 39.9119 65.6684 40.0011C65.9635 40.0903 66.2642 40.1348 66.5705 40.1347L83.3297 40.1347C84.7213 40.1347 85.5011 41.861 84.6394 43.0398L53.0683 86.3154Z"   fill="#6254FE" ></path><g filter="url(#filter_3gKe99Meu30zF2XIQumXl)"><g  mask="url(#mask-3l1NabMqk5FBeMyFQd1MF)"><ellipse transform="matrix(0.0030136944260448217, -0.9999954104423523, -0.9999939203262329, -0.003496873890981078, 8.25653076171875, 65.0130615234375)" cx="8.743291505268031" cy="21.662032967108907" rx="8.743291505268031" ry="21.662032967108907"   fill="#EDE6FF" ></ellipse></g></g><g filter="url(#filter_fLOFEVQi5u4zh36zv58ui)"><g  mask="url(#mask-3l1NabMqk5FBeMyFQd1MF)"><ellipse transform="matrix(0.003013694193214178, -0.9999954700469971, -0.9999938607215881, -0.003496873425319791, -43.0977783203125, 27.5062255859375)" cx="16.50273068632794" cy="43.97892565973345" rx="16.50273068632794" ry="43.97892565973345"   fill="#EDE6FF" ></ellipse></g></g><g filter="url(#filter_hnOg-JU0fnPev-A9-ubPH)"><g  mask="url(#mask-3l1NabMqk5FBeMyFQd1MF)"><ellipse transform="matrix(0.0030136944260448217, -0.9999954104423523, -0.9999939203262329, -0.0034968743566423655, -44.77069091796875, 32.96466064453125)" cx="8.74329293721006" cy="44.91382021626622" rx="8.74329293721006" ry="44.91382021626622"   fill="#4E14FF" ></ellipse></g></g><g filter="url(#filter_d4SZpUqjV3GwdjCk-nraG)"><g  mask="url(#mask-3l1NabMqk5FBeMyFQd1MF)"><ellipse transform="matrix(0.0030136944260448217, -0.9999954104423523, -0.9999939203262329, -0.003496873890981078, -38.009033203125, 61.53094482421875)" cx="8.743291506705079" cy="45.08184530801643" rx="8.743291506705079" ry="45.08184530801643"   fill="#4E14FF" ></ellipse></g></g><g filter="url(#filter_AnsNVCSd5VX8ZCXYavCjI)"><g  mask="url(#mask-3l1NabMqk5FBeMyFQd1MF)"><ellipse transform="matrix(0.0030136944260448217, -0.9999954104423523, -0.9999938607215881, -0.003496873425319791, -35.75244140625, 63.3525390625)" cx="8.743291506705079" cy="45.08185103002735" rx="8.743291506705079" ry="45.08185103002735"   fill="#4E14FF" ></ellipse></g></g><g filter="url(#filter_kZu_kA3b2PPnpKmL3Lbc4)"><g  mask="url(#mask-3l1NabMqk5FBeMyFQd1MF)"><ellipse transform="matrix(0.05426082760095596, 0.9985268712043762, 0.9980181455612183, -0.06292838603258133, 124.3807373046875, 57.631591796875)" cx="22.32634251085298" cy="32.53639421746451" rx="22.32634251085298" ry="32.53639421746451"   fill="#EDE6FF" ></ellipse></g></g><g filter="url(#filter_mRtBhyMQL_UOHx7ChYoy6)"><g  mask="url(#mask-3l1NabMqk5FBeMyFQd1MF)"><ellipse transform="matrix(-0.016056375578045845, 0.9998710751533508, 0.9998264312744141, 0.01862986758351326, 126.51153564453125, 43.66461181640625)" cx="5.508535974519551" cy="31.67952068636835" rx="5.508535974519551" ry="31.67952068636835"   fill="#4E14FF" ></ellipse></g></g><g filter="url(#filter_sAj92utPD0p5qs3fcasnW)"><g  mask="url(#mask-3l1NabMqk5FBeMyFQd1MF)"><ellipse transform="matrix(-0.016056375578045845, 0.9998710751533508, 0.9998264312744141, 0.01862986758351326, 126.51153564453125, 43.66461181640625)" cx="5.508535974519551" cy="31.67952068636835" rx="5.508535974519551" ry="31.67952068636835"   fill="#4E14FF" ></ellipse></g></g><g filter="url(#filter_3tgLSxsyMTNwoiJXJt_HX)"><g  mask="url(#mask-3l1NabMqk5FBeMyFQd1MF)"><ellipse transform="matrix(0.747635543346405, 0.6641092896461487, -0.6078682541847229, 0.794037938117981, 37.68426513671875, -10.851287841796875)" cx="6.699934858610938" cy="44.884295706390475" rx="6.699934858610938" ry="44.884295706390475"   fill="#4E14FF" ></ellipse></g></g><g filter="url(#filter_YgngsXqRLXDcG44ssh3aF)"><g  mask="url(#mask-3l1NabMqk5FBeMyFQd1MF)"><ellipse transform="matrix(0.7663365602493286, 0.642439067363739, -0.58563232421875, 0.810576856136322, 106.0670166015625, -35.418609619140625)" cx="6.686022213540871" cy="44.97471371213375" rx="6.686022213540871" ry="44.97471371213375"   fill="#4E14FF" ></ellipse></g></g><g filter="url(#filter_kmemzgL7762zRhK8Yg0bC)"><g  mask="url(#mask-3l1NabMqk5FBeMyFQd1MF)"><ellipse transform="matrix(0.7663367390632629, 0.6424393057823181, -0.5856323838233948, 0.8105769157409668, 76.73724365234375, 6.861480712890625)" cx="12.564573137951752" cy="19.30198322759974" rx="12.564573137951752" ry="19.30198322759974"   fill="#2BFDD2" ></ellipse></g></g><g filter="url(#filter_i-uWQ-TTE3UNBomE7kuSz)"><g  mask="url(#mask-3l1NabMqk5FBeMyFQd1MF)"><ellipse transform="matrix(0.7663365602493286, 0.642439067363739, -0.58563232421875, 0.810576856136322, 33.28564453125, 35.08099365234375)" cx="6.686022095382856" cy="44.97470606693967" rx="6.686022095382856" ry="44.97470606693967"   fill="#4E14FF" ></ellipse></g></g><g filter="url(#filter_91KXOzuhDjZQzKyJ6gEwv)"><g  mask="url(#mask-3l1NabMqk5FBeMyFQd1MF)"><ellipse transform="matrix(0.7663365602493286, 0.642439067363739, -0.58563232421875, 0.810576856136322, 33.28564453125, 35.08099365234375)" cx="6.686022095382856" cy="44.97470606693967" rx="6.686022095382856" ry="44.97470606693967"   fill="#4E14FF" ></ellipse></g></g><g filter="url(#filter_ZaGolg_Rd8o9rQj1eQguI)"><g  mask="url(#mask-3l1NabMqk5FBeMyFQd1MF)"><ellipse transform="matrix(0.7663367986679077, 0.6424391865730286, -0.58563232421875, 0.8105767965316772, 87.93963623046875, 21.1737060546875)" cx="7.103066752757729" cy="44.974712595128764" rx="7.103066752757729" ry="44.974712595128764"   fill="#4E14FF" ></ellipse></g></g><g filter="url(#filter_5QkNlInO-CtgCNj7irEXw)"><g  mask="url(#mask-3l1NabMqk5FBeMyFQd1MF)"><ellipse transform="matrix(0.7663367390632629, 0.6424392461776733, -0.58563232421875, 0.8105769753456116, 83.3438720703125, 33.14947509765625)" cx="12.20076865862646" cy="32.549507479777134" rx="12.20076865862646" ry="32.549507479777134"   fill="#2BFDD2" ></ellipse></g></g></g><defs><clipPath id="clip-path-0DCcvF10whV8akIQ9j0tE"><path d="M0 100L100 100L100 0L0 0L0 100Z" fill="white"/></clipPath><mask id="mask-3l1NabMqk5FBeMyFQd1MF" style="mask-type:alpha" maskUnits="userSpaceOnUse"><path d="M53.0683 86.3154C52.9612 86.4621 52.8358 86.5874 52.6923 86.6918C52.5489 86.7962 52.394 86.8751 52.2278 86.9276C52.0616 86.98 51.892 87.0037 51.7188 86.9995C51.5457 86.9953 51.3773 86.9624 51.2136 86.9016C51.0499 86.8403 50.8988 86.754 50.76 86.6421C50.6213 86.5303 50.5017 86.3985 50.4011 86.2467C50.3006 86.095 50.2239 85.9302 50.171 85.7525C50.1181 85.5748 50.0916 85.3928 50.0913 85.2063L50.0913 68.8613C50.0916 68.6251 50.0705 68.3917 50.0279 68.1601C49.9854 67.9285 49.9223 67.7039 49.8386 67.4858C49.755 67.2681 49.6523 67.0607 49.5307 66.8644C49.409 66.6681 49.2708 66.4866 49.1159 66.32C48.961 66.1534 48.7925 66.0044 48.6103 65.8731C48.4282 65.7422 48.2359 65.6318 48.0334 65.5413C47.831 65.4512 47.6224 65.3835 47.4075 65.3375C47.1927 65.2916 46.9757 65.2689 46.7567 65.2693L29.9975 65.2693C29.8446 65.2698 29.6944 65.2475 29.5471 65.203C29.3998 65.1584 29.2608 65.0934 29.1302 65.0076C28.9996 64.9217 28.8822 64.8182 28.778 64.6976C28.6738 64.5769 28.5868 64.4433 28.5168 64.2966C28.4469 64.1504 28.3968 63.9963 28.3663 63.8349C28.3358 63.6734 28.3262 63.5105 28.3375 63.3457C28.3488 63.1814 28.3805 63.0218 28.4327 62.8672C28.4849 62.7122 28.5555 62.5679 28.6447 62.4338L39.661 45.8197C39.8391 45.5511 39.9802 45.2616 40.0843 44.9511C40.1884 44.6407 40.2515 44.3209 40.2737 43.9916C40.2959 43.6625 40.2764 43.3362 40.215 43.0128C40.1538 42.6893 40.053 42.3809 39.9128 42.0874C39.7725 41.794 39.5981 41.5264 39.3894 41.2847C39.1807 41.0431 38.9455 40.8363 38.6839 40.6645C38.4223 40.4926 38.1439 40.3621 37.8489 40.2729C37.5539 40.1837 37.2532 40.1392 36.9467 40.1393L16.672 40.1393C16.5185 40.1402 16.3677 40.1186 16.2198 40.0745C16.0718 40.0304 15.9322 39.9655 15.8009 39.8798C15.6696 39.7941 15.5516 39.6907 15.4469 39.5697C15.3422 39.4488 15.2547 39.3148 15.1844 39.1678C15.1142 39.0207 15.0638 38.8662 15.0332 38.7041C15.0027 38.542 14.9932 38.3785 15.0047 38.2136C15.0162 38.0487 15.0484 37.8886 15.101 37.7332C15.1537 37.5779 15.225 37.4332 15.3149 37.2991L29.5968 15.7518C29.7537 15.5174 29.9513 15.3339 30.1896 15.2014C30.4281 15.0689 30.6814 15.0018 30.9496 15L73.5154 15C74.8725 15 75.6653 16.6521 74.8725 17.8355L63.8563 34.4543C63.6784 34.7229 63.537 35.0124 63.4328 35.3228C63.329 35.6333 63.2656 35.9531 63.2436 36.2823C63.2212 36.6115 63.2406 36.9378 63.3022 37.2612C63.3634 37.5846 63.4642 37.8931 63.6047 38.1865C63.7447 38.48 63.9192 38.7476 64.1277 38.9893C64.3367 39.2309 64.5719 39.4377 64.8334 39.6095C65.0949 39.7814 65.3732 39.9119 65.6684 40.0011C65.9635 40.0903 66.2642 40.1348 66.5705 40.1347L83.3297 40.1347C84.7213 40.1347 85.5011 41.861 84.6394 43.0398L53.0683 86.3154Z"   fill="#833BFF" ></path></mask><filter id="filter_3gKe99Meu30zF2XIQumXl" x="-45.06732177734375" y="9.150848388671875" width="63.37652587890625" height="22.82208251953125" filterUnits="userSpaceOnUse" color-interpolation-filters="sRGB"><feFlood flood-opacity="0" result="feFloodId_3gKe99Meu30zF2XIQumXl"/><feColorMatrix in="SourceAlpha" type="matrix" values="0 0 0 0 0 0 0 0 0 0 0 0 0 0 0 0 0 0 127 0" result="hardAlpha_3gKe99Meu30zF2XIQumXl"/><feOffset dx="undefined" dy="undefined"/><feComposite in2="hardAlpha_3gKe99Meu30zF2XIQumXl" operator="out"/><feColorMatrix type="matrix" values="0 0 0 0 0 0 0 0 0 0 0 0 0 0 0 0 0 0 0 0"/><feBlend mode="normal" in2="feFloodId_3gKe99Meu30zF2XIQumXl" result="dropShadow_1_3gKe99Meu30zF2XIQumXl"/><feBlend mode="normal" in="SourceGraphic" in2="dropShadow_1_3gKe99Meu30zF2XIQumXl" result="shape_3gKe99Meu30zF2XIQumXl"/><feGaussianBlur result="gaussian_blur_3gKe99Meu30zF2XIQumXl" stdDeviation="5"/></filter><filter id="filter_fLOFEVQi5u4zh36zv58ui" x="-141.05514526367188" y="0.641815185546875" width="108.05673217773438" height="25.330047607421875" filterUnits="userSpaceOnUse" color-interpolation-filters="sRGB"><feFlood flood-opacity="0" result="feFloodId_fLOFEVQi5u4zh36zv58ui"/><feColorMatrix in="SourceAlpha" type="matrix" values="0 0 0 0 0 0 0 0 0 0 0 0 0 0 0 0 0 0 127 0" result="hardAlpha_fLOFEVQi5u4zh36zv58ui"/><feOffset dx="undefined" dy="undefined"/><feComposite in2="hardAlpha_fLOFEVQi5u4zh36zv58ui" operator="out"/><feColorMatrix type="matrix" values="0 0 0 0 0 0 0 0 0 0 0 0 0 0 0 0 0 0 0 0"/><feBlend mode="normal" in2="feFloodId_fLOFEVQi5u4zh36zv58ui" result="dropShadow_1_fLOFEVQi5u4zh36zv58ui"/><feBlend mode="normal" in="SourceGraphic" in2="dropShadow_1_fLOFEVQi5u4zh36zv58ui" result="shape_fLOFEVQi5u4zh36zv58ui"/><feGaussianBlur result="gaussian_blur_fLOFEVQi5u4zh36zv58ui" stdDeviation="5"/></filter><filter id="filter_hnOg-JU0fnPev-A9-ubPH" x="-144.59783935546875" y="3.9970703125" width="109.87982177734375" height="22.848114013671875" filterUnits="userSpaceOnUse" color-interpolation-filters="sRGB"><feFlood flood-opacity="0" result="feFloodId_hnOg-JU0fnPev-A9-ubPH"/><feColorMatrix in="SourceAlpha" type="matrix" values="0 0 0 0 0 0 0 0 0 0 0 0 0 0 0 0 0 0 127 0" result="hardAlpha_hnOg-JU0fnPev-A9-ubPH"/><feOffset dx="undefined" dy="undefined"/><feComposite in2="hardAlpha_hnOg-JU0fnPev-A9-ubPH" operator="out"/><feColorMatrix type="matrix" values="0 0 0 0 0 0 0 0 0 0 0 0 0 0 0 0 0 0 0 0"/><feBlend mode="normal" in2="feFloodId_hnOg-JU0fnPev-A9-ubPH" result="dropShadow_1_hnOg-JU0fnPev-A9-ubPH"/><feBlend mode="normal" in="SourceGraphic" in2="dropShadow_1_hnOg-JU0fnPev-A9-ubPH" result="shape_hnOg-JU0fnPev-A9-ubPH"/><feGaussianBlur result="gaussian_blur_hnOg-JU0fnPev-A9-ubPH" stdDeviation="5"/></filter><filter id="filter_d4SZpUqjV3GwdjCk-nraG" x="-138.17218017578125" y="8.5675048828125" width="110.2158203125" height="22.848297119140625" filterUnits="userSpaceOnUse" color-interpolation-filters="sRGB"><feFlood flood-opacity="0" result="feFloodId_d4SZpUqjV3GwdjCk-nraG"/><feColorMatrix in="SourceAlpha" type="matrix" values="0 0 0 0 0 0 0 0 0 0 0 0 0 0 0 0 0 0 127 0" result="hardAlpha_d4SZpUqjV3GwdjCk-nraG"/><feOffset dx="undefined" dy="undefined"/><feComposite in2="hardAlpha_d4SZpUqjV3GwdjCk-nraG" operator="out"/><feColorMatrix type="matrix" values="0 0 0 0 0 0 0 0 0 0 0 0 0 0 0 0 0 0 0 0"/><feBlend mode="normal" in2="feFloodId_d4SZpUqjV3GwdjCk-nraG" result="dropShadow_1_d4SZpUqjV3GwdjCk-nraG"/><feBlend mode="normal" in="SourceGraphic" in2="dropShadow_1_d4SZpUqjV3GwdjCk-nraG" result="shape_d4SZpUqjV3GwdjCk-nraG"/><feGaussianBlur result="gaussian_blur_d4SZpUqjV3GwdjCk-nraG" stdDeviation="5"/></filter><filter id="filter_AnsNVCSd5VX8ZCXYavCjI" x="-135.91552734375" y="8.85894775390625" width="110.2158203125" height="22.848297119140625" filterUnits="userSpaceOnUse" color-interpolation-filters="sRGB"><feFlood flood-opacity="0" result="feFloodId_AnsNVCSd5VX8ZCXYavCjI"/><feColorMatrix in="SourceAlpha" type="matrix" values="0 0 0 0 0 0 0 0 0 0 0 0 0 0 0 0 0 0 127 0" result="hardAlpha_AnsNVCSd5VX8ZCXYavCjI"/><feOffset dx="undefined" dy="undefined"/><feComposite in2="hardAlpha_AnsNVCSd5VX8ZCXYavCjI" operator="out"/><feColorMatrix type="matrix" values="0 0 0 0 0 0 0 0 0 0 0 0 0 0 0 0 0 0 0 0"/><feBlend mode="normal" in2="feFloodId_AnsNVCSd5VX8ZCXYavCjI" result="dropShadow_1_AnsNVCSd5VX8ZCXYavCjI"/><feBlend mode="normal" in="SourceGraphic" in2="dropShadow_1_AnsNVCSd5VX8ZCXYavCjI" result="shape_AnsNVCSd5VX8ZCXYavCjI"/><feGaussianBlur result="gaussian_blur_AnsNVCSd5VX8ZCXYavCjI" stdDeviation="5"/></filter><filter id="filter_kZu_kA3b2PPnpKmL3Lbc4" x="114.38067626953125" y="10.13671875" width="87.36669921875" height="27.789093017578125" filterUnits="userSpaceOnUse" color-interpolation-filters="sRGB"><feFlood flood-opacity="0" result="feFloodId_kZu_kA3b2PPnpKmL3Lbc4"/><feColorMatrix in="SourceAlpha" type="matrix" values="0 0 0 0 0 0 0 0 0 0 0 0 0 0 0 0 0 0 127 0" result="hardAlpha_kZu_kA3b2PPnpKmL3Lbc4"/><feOffset dx="undefined" dy="undefined"/><feComposite in2="hardAlpha_kZu_kA3b2PPnpKmL3Lbc4" operator="out"/><feColorMatrix type="matrix" values="0 0 0 0 0 0 0 0 0 0 0 0 0 0 0 0 0 0 0 0"/><feBlend mode="normal" in2="feFloodId_kZu_kA3b2PPnpKmL3Lbc4" result="dropShadow_1_kZu_kA3b2PPnpKmL3Lbc4"/><feBlend mode="normal" in="SourceGraphic" in2="dropShadow_1_kZu_kA3b2PPnpKmL3Lbc4" result="shape_kZu_kA3b2PPnpKmL3Lbc4"/><feGaussianBlur result="gaussian_blur_kZu_kA3b2PPnpKmL3Lbc4" stdDeviation="5"/></filter><filter id="filter_mRtBhyMQL_UOHx7ChYoy6" x="116.33465576171875" y="8.557159423828125" width="83.52490234375" height="21.95135498046875" filterUnits="userSpaceOnUse" color-interpolation-filters="sRGB"><feFlood flood-opacity="0" result="feFloodId_mRtBhyMQL_UOHx7ChYoy6"/><feColorMatrix in="SourceAlpha" type="matrix" values="0 0 0 0 0 0 0 0 0 0 0 0 0 0 0 0 0 0 127 0" result="hardAlpha_mRtBhyMQL_UOHx7ChYoy6"/><feOffset dx="undefined" dy="undefined"/><feComposite in2="hardAlpha_mRtBhyMQL_UOHx7ChYoy6" operator="out"/><feColorMatrix type="matrix" values="0 0 0 0 0 0 0 0 0 0 0 0 0 0 0 0 0 0 0 0"/><feBlend mode="normal" in2="feFloodId_mRtBhyMQL_UOHx7ChYoy6" result="dropShadow_1_mRtBhyMQL_UOHx7ChYoy6"/><feBlend mode="normal" in="SourceGraphic" in2="dropShadow_1_mRtBhyMQL_UOHx7ChYoy6" result="shape_mRtBhyMQL_UOHx7ChYoy6"/><feGaussianBlur result="gaussian_blur_mRtBhyMQL_UOHx7ChYoy6" stdDeviation="5"/></filter><filter id="filter_sAj92utPD0p5qs3fcasnW" x="116.33465576171875" y="8.557159423828125" width="83.52490234375" height="21.95135498046875" filterUnits="userSpaceOnUse" color-interpolation-filters="sRGB"><feFlood flood-opacity="0" result="feFloodId_sAj92utPD0p5qs3fcasnW"/><feColorMatrix in="SourceAlpha" type="matrix" values="0 0 0 0 0 0 0 0 0 0 0 0 0 0 0 0 0 0 127 0" result="hardAlpha_sAj92utPD0p5qs3fcasnW"/><feOffset dx="undefined" dy="undefined"/><feComposite in2="hardAlpha_sAj92utPD0p5qs3fcasnW" operator="out"/><feColorMatrix type="matrix" values="0 0 0 0 0 0 0 0 0 0 0 0 0 0 0 0 0 0 0 0"/><feBlend mode="normal" in2="feFloodId_sAj92utPD0p5qs3fcasnW" result="dropShadow_1_sAj92utPD0p5qs3fcasnW"/><feBlend mode="normal" in="SourceGraphic" in2="dropShadow_1_sAj92utPD0p5qs3fcasnW" result="shape_sAj92utPD0p5qs3fcasnW"/><feGaussianBlur result="gaussian_blur_sAj92utPD0p5qs3fcasnW" stdDeviation="5"/></filter><filter id="filter_3tgLSxsyMTNwoiJXJt_HX" x="-26.8831787109375" y="-0.16534423828125" width="84.58563232421875" height="32.828582763671875" filterUnits="userSpaceOnUse" color-interpolation-filters="sRGB"><feFlood flood-opacity="0" result="feFloodId_3tgLSxsyMTNwoiJXJt_HX"/><feColorMatrix in="SourceAlpha" type="matrix" values="0 0 0 0 0 0 0 0 0 0 0 0 0 0 0 0 0 0 127 0" result="hardAlpha_3tgLSxsyMTNwoiJXJt_HX"/><feOffset dx="undefined" dy="undefined"/><feComposite in2="hardAlpha_3tgLSxsyMTNwoiJXJt_HX" operator="out"/><feColorMatrix type="matrix" values="0 0 0 0 0 0 0 0 0 0 0 0 0 0 0 0 0 0 0 0"/><feBlend mode="normal" in2="feFloodId_3tgLSxsyMTNwoiJXJt_HX" result="dropShadow_1_3tgLSxsyMTNwoiJXJt_HX"/><feBlend mode="normal" in="SourceGraphic" in2="dropShadow_1_3tgLSxsyMTNwoiJXJt_HX" result="shape_3tgLSxsyMTNwoiJXJt_HX"/><feGaussianBlur result="gaussian_blur_3tgLSxsyMTNwoiJXJt_HX" stdDeviation="5"/></filter><filter id="filter_YgngsXqRLXDcG44ssh3aF" x="43.38970947265625" y="-4.09613037109375" width="82.9248046875" height="33.040252685546875" filterUnits="userSpaceOnUse" color-interpolation-filters="sRGB"><feFlood flood-opacity="0" result="feFloodId_YgngsXqRLXDcG44ssh3aF"/><feColorMatrix in="SourceAlpha" type="matrix" values="0 0 0 0 0 0 0 0 0 0 0 0 0 0 0 0 0 0 127 0" result="hardAlpha_YgngsXqRLXDcG44ssh3aF"/><feOffset dx="undefined" dy="undefined"/><feComposite in2="hardAlpha_YgngsXqRLXDcG44ssh3aF" operator="out"/><feColorMatrix type="matrix" values="0 0 0 0 0 0 0 0 0 0 0 0 0 0 0 0 0 0 0 0"/><feBlend mode="normal" in2="feFloodId_YgngsXqRLXDcG44ssh3aF" result="dropShadow_1_YgngsXqRLXDcG44ssh3aF"/><feBlend mode="normal" in="SourceGraphic" in2="dropShadow_1_YgngsXqRLXDcG44ssh3aF" result="shape_YgngsXqRLXDcG44ssh3aF"/><feGaussianBlur result="gaussian_blur_YgngsXqRLXDcG44ssh3aF" stdDeviation="5"/></filter><filter id="filter_kmemzgL7762zRhK8Yg0bC" x="44.12945556640625" y="2.668670654296875" width="61.8651123046875" height="27.58966064453125" filterUnits="userSpaceOnUse" color-interpolation-filters="sRGB"><feFlood flood-opacity="0" result="feFloodId_kmemzgL7762zRhK8Yg0bC"/><feColorMatrix in="SourceAlpha" type="matrix" values="0 0 0 0 0 0 0 0 0 0 0 0 0 0 0 0 0 0 127 0" result="hardAlpha_kmemzgL7762zRhK8Yg0bC"/><feOffset dx="undefined" dy="undefined"/><feComposite in2="hardAlpha_kmemzgL7762zRhK8Yg0bC" operator="out"/><feColorMatrix type="matrix" values="0 0 0 0 0 0 0 0 0 0 0 0 0 0 0 0 0 0 0 0"/><feBlend mode="normal" in2="feFloodId_kmemzgL7762zRhK8Yg0bC" result="dropShadow_1_kmemzgL7762zRhK8Yg0bC"/><feBlend mode="normal" in="SourceGraphic" in2="dropShadow_1_kmemzgL7762zRhK8Yg0bC" result="shape_kmemzgL7762zRhK8Yg0bC"/><feGaussianBlur result="gaussian_blur_kmemzgL7762zRhK8Yg0bC" stdDeviation="5"/></filter><filter id="filter_i-uWQ-TTE3UNBomE7kuSz" x="-29.39166259765625" y="7.183807373046875" width="82.9248046875" height="33.040252685546875" filterUnits="userSpaceOnUse" color-interpolation-filters="sRGB"><feFlood flood-opacity="0" result="feFloodId_i-uWQ-TTE3UNBomE7kuSz"/><feColorMatrix in="SourceAlpha" type="matrix" values="0 0 0 0 0 0 0 0 0 0 0 0 0 0 0 0 0 0 127 0" result="hardAlpha_i-uWQ-TTE3UNBomE7kuSz"/><feOffset dx="undefined" dy="undefined"/><feComposite in2="hardAlpha_i-uWQ-TTE3UNBomE7kuSz" operator="out"/><feColorMatrix type="matrix" values="0 0 0 0 0 0 0 0 0 0 0 0 0 0 0 0 0 0 0 0"/><feBlend mode="normal" in2="feFloodId_i-uWQ-TTE3UNBomE7kuSz" result="dropShadow_1_i-uWQ-TTE3UNBomE7kuSz"/><feBlend mode="normal" in="SourceGraphic" in2="dropShadow_1_i-uWQ-TTE3UNBomE7kuSz" result="shape_i-uWQ-TTE3UNBomE7kuSz"/><feGaussianBlur result="gaussian_blur_i-uWQ-TTE3UNBomE7kuSz" stdDeviation="5"/></filter><filter id="filter_91KXOzuhDjZQzKyJ6gEwv" x="-29.39166259765625" y="7.183807373046875" width="82.9248046875" height="33.040252685546875" filterUnits="userSpaceOnUse" color-interpolation-filters="sRGB"><feFlood flood-opacity="0" result="feFloodId_91KXOzuhDjZQzKyJ6gEwv"/><feColorMatrix in="SourceAlpha" type="matrix" values="0 0 0 0 0 0 0 0 0 0 0 0 0 0 0 0 0 0 127 0" result="hardAlpha_91KXOzuhDjZQzKyJ6gEwv"/><feOffset dx="undefined" dy="undefined"/><feComposite in2="hardAlpha_91KXOzuhDjZQzKyJ6gEwv" operator="out"/><feColorMatrix type="matrix" values="0 0 0 0 0 0 0 0 0 0 0 0 0 0 0 0 0 0 0 0"/><feBlend mode="normal" in2="feFloodId_91KXOzuhDjZQzKyJ6gEwv" result="dropShadow_1_91KXOzuhDjZQzKyJ6gEwv"/><feBlend mode="normal" in="SourceGraphic" in2="dropShadow_1_91KXOzuhDjZQzKyJ6gEwv" result="shape_91KXOzuhDjZQzKyJ6gEwv"/><feGaussianBlur result="gaussian_blur_91KXOzuhDjZQzKyJ6gEwv" stdDeviation="5"/></filter><filter id="filter_ZaGolg_Rd8o9rQj1eQguI" x="25.2623291015625" y="4.9586181640625" width="83.56396484375" height="33.126007080078125" filterUnits="userSpaceOnUse" color-interpolation-filters="sRGB"><feFlood flood-opacity="0" result="feFloodId_ZaGolg_Rd8o9rQj1eQguI"/><feColorMatrix in="SourceAlpha" type="matrix" values="0 0 0 0 0 0 0 0 0 0 0 0 0 0 0 0 0 0 127 0" result="hardAlpha_ZaGolg_Rd8o9rQj1eQguI"/><feOffset dx="undefined" dy="undefined"/><feComposite in2="hardAlpha_ZaGolg_Rd8o9rQj1eQguI" operator="out"/><feColorMatrix type="matrix" values="0 0 0 0 0 0 0 0 0 0 0 0 0 0 0 0 0 0 0 0"/><feBlend mode="normal" in2="feFloodId_ZaGolg_Rd8o9rQj1eQguI" result="dropShadow_1_ZaGolg_Rd8o9rQj1eQguI"/><feBlend mode="normal" in="SourceGraphic" in2="dropShadow_1_ZaGolg_Rd8o9rQj1eQguI" result="shape_ZaGolg_Rd8o9rQj1eQguI"/><feGaussianBlur result="gaussian_blur_ZaGolg_Rd8o9rQj1eQguI" stdDeviation="5"/></filter><filter id="filter_5QkNlInO-CtgCNj7irEXw" x="35.21978759765625" y="6.874786376953125" width="76.82391357421875" height="30.951080322265625" filterUnits="userSpaceOnUse" color-interpolation-filters="sRGB"><feFlood flood-opacity="0" result="feFloodId_5QkNlInO-CtgCNj7irEXw"/><feColorMatrix in="SourceAlpha" type="matrix" values="0 0 0 0 0 0 0 0 0 0 0 0 0 0 0 0 0 0 127 0" result="hardAlpha_5QkNlInO-CtgCNj7irEXw"/><feOffset dx="undefined" dy="undefined"/><feComposite in2="hardAlpha_5QkNlInO-CtgCNj7irEXw" operator="out"/><feColorMatrix type="matrix" values="0 0 0 0 0 0 0 0 0 0 0 0 0 0 0 0 0 0 0 0"/><feBlend mode="normal" in2="feFloodId_5QkNlInO-CtgCNj7irEXw" result="dropShadow_1_5QkNlInO-CtgCNj7irEXw"/><feBlend mode="normal" in="SourceGraphic" in2="dropShadow_1_5QkNlInO-CtgCNj7irEXw" result="shape_5QkNlInO-CtgCNj7irEXw"/><feGaussianBlur result="gaussian_blur_5QkNlInO-CtgCNj7irEXw" stdDeviation="5"/></filter></defs></svg>