<svg xmlns="http://www.w3.org/2000/svg" xmlns:xlink="http://www.w3.org/1999/xlink" width="100" height="100" viewBox="0 0 100 100" fill="none">
<path     fill="#FFFFFF"  d="M0 100L100 100L100 0L0 0L0 100Z">
</path>
<path d="M68.0323 36.6176L50.8197 62.383C50.6372 62.6562 50.3733 62.8608 50.068 62.9658C49.7627 63.0709 49.4326 63.0699 49.1279 62.9644C48.8232 62.8583 48.5606 62.6527 48.3797 62.379C48.1988 62.1049 48.1096 61.7774 48.1257 61.4466L48.8146 47.2214L37.6933 44.7796C37.4557 44.7275 37.2342 44.6157 37.0486 44.4542C36.863 44.2928 36.7189 44.0865 36.6292 43.8538C36.5395 43.6211 36.5068 43.3692 36.5342 43.1202C36.5615 42.8713 36.648 42.633 36.7859 42.4265L53.9988 16.6611C54.1813 16.3877 54.4452 16.1831 54.7505 16.0783C55.0559 15.9734 55.3859 15.9739 55.6906 16.0799C55.9953 16.1858 56.2581 16.3913 56.4389 16.6653C56.6198 16.9392 56.7089 17.2666 56.6928 17.5978L56.0039 31.8231L67.125 34.2647C67.3627 34.3168 67.5842 34.4286 67.7699 34.59C67.9557 34.7515 68.0995 34.9578 68.1891 35.1905C68.2791 35.4232 68.3115 35.6751 68.2843 35.9241C68.2572 36.173 68.1705 36.4113 68.0323 36.6178L68.0323 36.6176Z"   fill="#FCC72B" >
</path>
<path d="M50.0069 84C49.5491 84.0005 49.0957 83.9078 48.6727 83.7263C48.2498 83.5449 47.8656 83.2786 47.5423 82.9433L31.2783 66.1065C30.6276 65.4294 30.2629 64.5127 30.2641 63.5576C30.2653 62.6024 30.6324 61.6862 31.2848 61.0112C31.9372 60.3356 32.8218 59.9554 33.7444 59.9539C34.6671 59.9529 35.5526 60.3302 36.2069 61.0038L50.0069 75.2892L80.0703 44.1663C80.7257 43.4987 81.6092 43.1263 82.5285 43.1302C83.4482 43.134 84.3289 43.5139 84.9786 44.1869C85.6288 44.86 85.996 45.7717 85.9998 46.7236C86.0031 47.6754 85.6435 48.5903 84.9986 49.2688L52.4709 82.9433C52.1477 83.2791 51.7636 83.5449 51.3407 83.7263C50.9179 83.9078 50.4646 84.0005 50.0069 84Z"   fill="#729B1B" >
</path>
<path d="M49.9929 84C50.4507 84.0005 50.9041 83.9078 51.3271 83.7263C51.75 83.5449 52.1342 83.2786 52.4575 82.9433L68.7216 66.1065C69.3723 65.4294 69.7371 64.5127 69.7357 63.5576C69.7347 62.6024 69.3675 61.6862 68.715 61.0112C68.0624 60.3356 67.1779 59.9554 66.2553 59.9539C65.3327 59.9529 64.4473 60.3302 63.7928 61.0038L49.9929 75.2892L19.9294 44.1663C19.274 43.4987 18.3903 43.1263 17.471 43.1302C16.5516 43.134 15.6709 43.5139 15.0208 44.1869C14.3707 44.86 14.0038 45.7717 14 46.7236C13.9963 47.6754 14.356 48.5903 15.0008 49.2688L47.5289 82.9433C47.8521 83.2791 48.2362 83.5449 48.659 83.7263C49.0819 83.9078 49.5352 84.0005 49.9929 84Z"   fill="#729B1B" fill-opacity="0.5">
</path>
</svg>
