<svg xmlns="http://www.w3.org/2000/svg" xmlns:xlink="http://www.w3.org/1999/xlink" width="100" height="100" viewBox="0 0 100 100" fill="none">
<path     fill="#FFFFFF"  d="M0 100L100 100L100 0L0 0L0 100Z">
</path>
<path d="M69.5168 16L69.5168 54.6237C69.5168 65.4185 60.6673 74.1687 49.75 74.1687C38.8327 74.1687 29.9832 65.4185 29.9832 54.6237L29.9832 16L43.9672 16L43.9672 54.6237C43.9671 54.7173 43.9694 54.8108 43.974 54.9044C43.9785 54.9979 43.9854 55.0912 43.9947 55.1844C44.0038 55.2776 44.0154 55.3705 44.0292 55.4631C44.0431 55.5556 44.0592 55.6479 44.0776 55.7397C44.096 55.8316 44.1167 55.9229 44.1396 56.0137C44.1626 56.1046 44.1878 56.1948 44.2152 56.2843C44.2426 56.374 44.2722 56.4628 44.3041 56.551C44.336 56.6392 44.37 56.7265 44.4062 56.8131C44.4424 56.8995 44.4807 56.9851 44.5211 57.0698C44.5616 57.1545 44.6041 57.2381 44.6487 57.3207C44.6933 57.4032 44.7399 57.4846 44.7886 57.565C44.8372 57.6453 44.8878 57.7244 44.9403 57.8022C44.9929 57.8801 45.0474 57.9566 45.1038 58.0319C45.1601 58.1071 45.2183 58.1809 45.2784 58.2533C45.3384 58.3257 45.4002 58.3966 45.4638 58.466C45.5274 58.5354 45.5926 58.6032 45.6595 58.6694C45.7264 58.7356 45.7949 58.8002 45.8651 58.8631C45.9352 58.926 46.0068 58.9871 46.0801 59.0465C46.1532 59.106 46.2278 59.1636 46.3038 59.2194C46.3799 59.2752 46.4572 59.329 46.536 59.3811C46.6147 59.4331 46.6947 59.4832 46.7758 59.5313C46.857 59.5795 46.9394 59.6256 47.0229 59.6698C47.1064 59.7139 47.1909 59.7561 47.2765 59.7961C47.3621 59.8361 47.4486 59.8741 47.5361 59.9099C47.6235 59.9457 47.7118 59.9795 47.801 60.011C47.8901 60.0425 47.98 60.072 48.0705 60.0991C48.1612 60.1263 48.2524 60.1513 48.3443 60.1741C48.4361 60.1968 48.5284 60.2173 48.6213 60.2356C48.7142 60.2539 48.8074 60.2698 48.9011 60.2836C48.9948 60.2973 49.0887 60.3088 49.1829 60.318C49.2771 60.3272 49.3715 60.3341 49.4661 60.3387C49.5607 60.3433 49.6553 60.3456 49.75 60.3456C49.8447 60.3456 49.9393 60.3433 50.0339 60.3387C50.1285 60.3341 50.2228 60.3272 50.3171 60.318C50.4113 60.3088 50.5052 60.2973 50.5989 60.2836C50.6925 60.2698 50.7858 60.2539 50.8786 60.2356C50.9715 60.2173 51.0639 60.1968 51.1557 60.1741C51.2475 60.1513 51.3388 60.1263 51.4293 60.0991C51.52 60.072 51.6099 60.0425 51.699 60.011C51.7881 59.9795 51.8764 59.9457 51.9639 59.9099C52.0513 59.8741 52.1379 59.8361 52.2235 59.7961C52.3091 59.7561 52.3936 59.7139 52.4771 59.6698C52.5606 59.6256 52.6429 59.5795 52.7241 59.5313C52.8053 59.4832 52.8852 59.4331 52.964 59.3811C53.0427 59.329 53.12 59.2752 53.1961 59.2194C53.2721 59.1636 53.3467 59.106 53.4199 59.0465C53.493 58.9871 53.5647 58.926 53.6349 58.8631C53.705 58.8002 53.7736 58.7356 53.8404 58.6694C53.9073 58.6032 53.9726 58.5354 54.0362 58.466C54.0997 58.3966 54.1615 58.3257 54.2216 58.2533C54.2816 58.1809 54.3398 58.1071 54.3962 58.0319C54.4526 57.9566 54.5071 57.8801 54.5596 57.8022C54.6122 57.7244 54.6627 57.6453 54.7114 57.565C54.7601 57.4846 54.8067 57.4032 54.8512 57.3207C54.8958 57.2381 54.9384 57.1545 54.9788 57.0698C55.0193 56.9851 55.0575 56.8995 55.0938 56.8131C55.1299 56.7265 55.1639 56.6392 55.1958 56.551C55.2276 56.4628 55.2573 56.374 55.2847 56.2843C55.3121 56.1948 55.3374 56.1046 55.3603 56.0137C55.3833 55.9229 55.404 55.8316 55.4224 55.7397C55.4408 55.6479 55.4569 55.5556 55.4707 55.4631C55.4846 55.3705 55.4961 55.2776 55.5053 55.1844C55.5145 55.0912 55.5214 54.9979 55.526 54.9044C55.5306 54.8108 55.5329 54.7173 55.5328 54.6237L55.5328 16L69.5168 16Z"   fill="#35495E" >
</path>
<path d="M83.5 16L83.5 54.6236C83.5 73.0546 68.39 88 49.75 88C31.11 88 16 73.0546 16 54.6236L16 16L29.9832 16L29.9832 54.6236C29.9832 65.4184 38.8335 74.1687 49.75 74.1687C60.6664 74.1687 69.5168 65.4184 69.5168 54.6236L69.5168 16L83.5 16Z"   fill="#41B883" >
</path>
</svg>
