<svg xmlns="http://www.w3.org/2000/svg" xmlns:xlink="http://www.w3.org/1999/xlink" width="100" height="100" viewBox="0 0 100 100" fill="none">
<path     fill="#FFFFFF"  d="M0 100L100 100L100 0L0 0L0 100Z">
</path>
<path d="M78.41 83.4981C80.0765 83.3909 80.4834 81.9651 79.3907 80.9894C69.6692 72.1626 65.0319 67.93 65.4797 68.2926C64.9468 67.8119 64.3067 67.5715 63.5597 67.5715L58.4897 67.5715C57.1127 67.5715 55.8182 67.9563 55.1192 69.5571L50.0826 80.4629C49.4694 81.9445 49.8722 83.5645 51.4374 83.4981L78.41 83.4981Z"   fill="#FF3F57" >
</path>
<path d="M53.1204 16.9892L21.6391 81.4206C21.2393 82.4099 21.9724 83.4981 23.0719 83.4981L39.3654 83.4981C39.9984 83.4981 40.565 83.1025 40.7982 82.5418L72.2463 18.0774C72.646 17.0881 71.9133 16 70.8138 16L54.5532 16C53.9202 16.033 53.3536 16.3957 53.1204 16.9892Z"   fill="#000000" >
</path>
<path d="M43.3854 16L23.7066 16C22.9763 16 22.3455 16.4359 22.0799 17.1065L20.1212 22.1024C19.8224 22.8735 20.088 23.7788 20.7852 24.2147L31.3993 31.5432C32.0277 31.9265 32.6497 31.9265 33.2203 31.9265L36.8971 31.9265C37.6272 31.9265 38.3784 30.9757 38.6442 30.3051L44.705 18.1196C45.1032 16.9796 44.6139 16 43.3854 16Z"   fill="#FF3F57" >
</path>
</svg>
