<svg xmlns="http://www.w3.org/2000/svg" xmlns:xlink="http://www.w3.org/1999/xlink" width="100" height="100" viewBox="0 0 100 100" fill="none">
<path     fill="#FFFFFF"  d="M0 100L100 100L100 0L0 0L0 100Z">
</path>
<path d="M28.2682 20.0163C28.3453 20.0162 28.4225 20.016 28.4996 20.0159C28.7114 20.0156 28.9232 20.0156 29.1351 20.0157C29.3656 20.0157 29.5961 20.0154 29.8266 20.0152C30.2837 20.0147 30.7409 20.0146 31.1981 20.0146C31.7456 20.0145 32.2932 20.0141 32.8408 20.0137C34.1643 20.0128 35.4878 20.0124 36.8112 20.0121C37.4374 20.012 38.0636 20.0118 38.6897 20.0116C40.8335 20.0108 42.9772 20.0102 45.121 20.0099C45.2556 20.0099 45.3901 20.0099 45.5246 20.0099C45.6596 20.0099 45.7944 20.0099 45.9293 20.0099C46.1999 20.0098 46.4705 20.0098 46.741 20.0098C46.8081 20.0098 46.8752 20.0098 46.9443 20.0098C49.1196 20.0096 51.2948 20.0086 53.4701 20.0072C55.7703 20.0058 58.0705 20.0049 60.3707 20.0049C60.6233 20.0049 60.8759 20.0048 61.1284 20.0048C61.1906 20.0048 61.2528 20.0048 61.3169 20.0048C62.3172 20.0047 63.3174 20.0041 64.3177 20.0032C65.3233 20.0024 66.3289 20.0022 67.3345 20.0027C67.9317 20.0029 68.5288 20.0027 69.126 20.0018C69.5251 20.0012 69.9243 20.0012 70.3241 20.0018C70.5513 20.0022 70.7786 20.0022 71.0058 20.0014C73.1101 19.9949 73.1101 19.9949 74.0666 20.3627C74.1076 20.3779 74.1479 20.393 74.1894 20.4087C75.9786 21.1021 77.3226 22.4913 78.1332 24.3354C78.3881 24.9333 78.5827 25.5562 78.7834 26.1767C78.8967 26.5275 79.0117 26.8777 79.1267 27.2279C79.166 27.3486 79.2058 27.4693 79.2451 27.5899C79.5033 28.3779 79.7681 29.1629 80.0346 29.9475C80.4084 31.0499 80.7777 32.1537 81.1437 33.2591C81.1669 33.3284 81.1896 33.3977 81.2134 33.4691C81.236 33.5383 81.2593 33.6073 81.2825 33.6785C81.3284 33.8171 81.3743 33.9556 81.4202 34.0941C81.4428 34.1622 81.4655 34.2303 81.4887 34.3004C81.7226 35.0068 81.9581 35.7125 82.1942 36.418C82.2246 36.5092 82.2246 36.5092 82.2561 36.6023C82.3579 36.9074 82.4602 37.2125 82.5624 37.5177C82.7488 38.0737 82.9345 38.6298 83.1203 39.1859C83.2243 39.4962 83.3277 39.8063 83.4316 40.1165C83.4731 40.2406 83.5145 40.3646 83.556 40.4886C83.5765 40.55 83.5969 40.6114 83.6179 40.6746C83.8042 41.2327 83.8042 41.2327 83.8667 41.4188C83.9082 41.5429 83.9497 41.667 83.9911 41.7912C84.0945 42.0996 84.1974 42.4081 84.3002 42.7166C84.4932 43.2943 84.6867 43.8719 84.8818 44.4489C84.9731 44.7194 85.0643 44.99 85.1555 45.2606C85.1986 45.3888 85.2418 45.5169 85.2855 45.6449C86.0086 47.7749 86.368 49.9804 85.4574 52.1224C84.9012 53.3752 84.1094 54.3786 83.1275 55.2677C83.0037 55.3803 82.8809 55.4932 82.7576 55.6063C82.7244 55.6367 82.6913 55.6672 82.6575 55.6985C82.3933 55.9423 82.1367 56.1939 81.8824 56.4491C81.6911 56.6407 81.4976 56.8282 81.2996 57.0121C81.1736 57.1307 81.0497 57.2522 80.9259 57.3737C80.7395 57.5555 80.5493 57.7291 80.3525 57.8983C80.0169 58.1902 79.7062 58.5077 79.3921 58.826C79.2196 59.0011 79.0433 59.1709 78.8636 59.3376C78.7353 59.4576 78.6092 59.5802 78.4832 59.7029C78.1885 59.9886 77.8921 60.2709 77.5897 60.5471C77.2259 60.8802 76.8687 61.2185 76.5193 61.5689C76.328 61.7604 76.1345 61.9477 75.9371 62.1315C75.8077 62.2531 75.68 62.377 75.5528 62.501C75.2581 62.7867 74.9618 63.069 74.6593 63.3452C74.2955 63.6782 73.9384 64.0166 73.5889 64.367C73.3976 64.5586 73.2041 64.7462 73.0062 64.93C72.8801 65.0486 72.7563 65.1702 72.6324 65.2916C72.4461 65.4734 72.2559 65.647 72.0591 65.8163C71.7235 66.1081 71.4127 66.4256 71.0987 66.7439C70.9262 66.919 70.7498 67.0888 70.5701 67.2555C70.4418 67.3755 70.3158 67.4981 70.1897 67.6208C69.895 67.9065 69.5987 68.1888 69.2962 68.465C68.9327 68.7981 68.5753 69.1364 68.2257 69.4868C68.0346 69.6785 67.8409 69.866 67.6433 70.0499C67.5171 70.1685 67.3935 70.29 67.2696 70.4115C67.0829 70.5933 66.8926 70.7669 66.696 70.9361C66.3606 71.228 66.0494 71.5454 65.7358 71.8638C65.5631 72.0388 65.387 72.2087 65.2073 72.3754C65.0788 72.4953 64.9527 72.618 64.8265 72.7407C64.5322 73.0264 64.2355 73.3087 63.9334 73.5849C63.5696 73.918 63.2122 74.2563 62.8626 74.6067C62.6717 74.7982 62.4781 74.9854 62.2808 75.1692C62.1513 75.2909 62.0237 75.4147 61.8962 75.5387C61.6018 75.8244 61.3052 76.1068 61.0031 76.3829C60.6393 76.716 60.2818 77.0543 59.9323 77.4048C59.7412 77.5964 59.5474 77.7839 59.3498 77.9678C59.2236 78.0864 59.1 78.2079 58.9762 78.3294C58.7895 78.5112 58.5991 78.6848 58.4025 78.854C58.0672 79.1459 57.756 79.4633 57.4423 79.7814C57.2697 79.9565 57.0936 80.1267 56.9138 80.2928C56.7854 80.4131 56.6593 80.5357 56.5331 80.6584C56.1072 81.0715 55.674 81.4758 55.2374 81.8758C55.1156 81.9877 54.9954 82.1003 54.8759 82.2151C53.9794 83.0581 52.9349 83.5612 51.7782 83.8434C51.723 83.8571 51.6678 83.8708 51.611 83.8845C50.2362 84.1643 48.7144 83.9285 47.4656 83.2481C47.3842 83.2052 47.3842 83.2052 47.3012 83.1617C46.5703 82.7599 45.9688 82.1919 45.354 81.6157C45.2528 81.5204 45.1514 81.4257 45.0499 81.3317C44.8762 81.1698 44.7027 81.0078 44.5292 80.8453C44.3562 80.684 44.1831 80.522 44.01 80.3607C43.9409 80.2964 43.8718 80.2315 43.8027 80.1672C43.7513 80.1196 43.7513 80.1196 43.699 80.0708C40.2779 76.8782 36.8569 73.6858 20.892 58.7876C20.8229 58.7232 20.7538 58.6587 20.6848 58.5943C20.5112 58.4324 20.3378 58.2704 20.1644 58.1083C20.0947 58.0433 20.0251 57.9782 19.9555 57.9132C19.9214 57.8813 19.8872 57.8494 19.852 57.8166C19.5833 57.5657 19.313 57.3169 19.0425 57.0683C18.8535 56.894 18.6675 56.7169 18.4834 56.5365C18.299 56.3561 18.1105 56.1842 17.9167 56.0156C17.6524 55.7855 17.402 55.5426 17.1522 55.2945C17.0089 55.1563 16.8617 55.0275 16.7107 54.8994C15.2161 53.5917 14.2542 51.8831 14.0262 49.8023C13.8813 48.0586 14.3594 46.5314 14.9177 44.9221C15.0352 44.5833 15.1519 44.2442 15.2685 43.905C15.2951 43.8277 15.3217 43.7504 15.3483 43.6731C15.609 42.916 15.8636 42.1567 16.1164 41.3965C16.4646 40.35 16.8191 39.3062 17.1772 38.2635C17.5968 37.0417 18.0096 35.8174 18.4178 34.5911C19.0709 32.629 19.7336 30.6707 20.403 28.715C20.416 28.6773 20.4289 28.6395 20.4422 28.6006C20.5797 28.1987 20.7174 27.797 20.8552 27.3953C20.901 27.2616 20.9469 27.128 20.9926 26.9943C21.0148 26.9297 21.037 26.8651 21.0598 26.7985C21.1727 26.4685 21.2844 26.1379 21.3942 25.8066C21.4163 25.74 21.4384 25.6734 21.4612 25.6047C21.5026 25.4795 21.5439 25.3542 21.5849 25.2288C21.9643 24.0814 22.461 23.1094 23.2487 22.2268C23.2932 22.1759 23.3376 22.1249 23.3835 22.0724C24.6642 20.6417 26.4586 20.0136 28.2682 20.0163Z"   fill="#408DFF" >
</path>
<path d="M30.3375 26.446C30.3949 26.4459 30.4523 26.4457 30.5114 26.4455C30.5742 26.4456 30.637 26.4457 30.7017 26.4458C30.7689 26.4457 30.836 26.4456 30.9053 26.4455C31.0924 26.4452 31.2795 26.4452 31.4666 26.4453C31.6699 26.4453 31.8732 26.445 32.0766 26.4448C32.4801 26.4443 32.8837 26.4442 33.2872 26.4441C33.7705 26.4441 34.2538 26.4437 34.7371 26.4433C35.9054 26.4423 37.0736 26.442 38.2419 26.4417C38.7946 26.4416 39.3473 26.4413 39.9 26.4411C41.7919 26.4403 43.6838 26.4397 45.5757 26.4395C45.6945 26.4395 45.8133 26.4395 45.9321 26.4395C46.0512 26.4395 46.1703 26.4394 46.2893 26.4394C46.5282 26.4394 46.7671 26.4394 47.006 26.4393C47.0652 26.4393 47.1245 26.4393 47.1855 26.4393C49.1055 26.4391 51.0256 26.4382 52.9457 26.4368C54.9757 26.4353 57.0057 26.4345 59.0356 26.4344C59.2585 26.4344 59.4814 26.4344 59.7043 26.4344C59.7867 26.4344 59.7867 26.4344 59.8707 26.4344C60.7535 26.4343 61.6364 26.4337 62.5193 26.4328C63.407 26.4319 64.2947 26.4317 65.1824 26.4322C65.7096 26.4325 66.2368 26.4323 66.7639 26.4313C67.1165 26.4307 67.469 26.4308 67.8215 26.4314C68.0221 26.4317 68.2228 26.4318 68.4233 26.431C70.1584 26.4249 71.4618 26.7085 72.7329 28.061C73.1895 28.5611 73.4888 29.1695 73.7195 29.8194C73.7428 29.8835 73.766 29.9477 73.79 30.0138C74.0252 30.6673 74.2452 31.3266 74.4618 31.9874C74.557 32.2777 74.6527 32.5677 74.7484 32.8577C74.7977 33.0071 74.847 33.1566 74.8963 33.306C75.1084 33.9499 75.3228 34.593 75.5381 35.2357C75.5976 35.4135 75.6572 35.5913 75.7166 35.7692C75.9009 36.3202 76.0854 36.8712 76.27 37.4222C76.4012 37.8139 76.5325 38.2058 76.6635 38.5976C76.735 38.8114 76.8065 39.0251 76.8782 39.2388C76.9456 39.4397 77.0129 39.6406 77.08 39.8416C77.1166 39.9509 77.1533 40.0601 77.19 40.1692C77.6333 41.4976 77.8102 42.7148 77.2457 44.0381C76.8315 44.9663 76.1922 45.5494 75.3937 46.0847C75.3329 46.126 75.272 46.1674 75.2093 46.21C75.0291 46.3324 74.8486 46.4541 74.668 46.5759C74.5313 46.6687 74.3946 46.7618 74.258 46.855C74.1319 46.9408 74.0057 47.0265 73.8795 47.1121C73.5889 47.3095 73.2991 47.5082 73.0093 47.707C72.4148 48.1147 71.819 48.5201 71.2228 48.925C70.7118 49.2719 70.2015 49.6198 69.692 49.9693C69.0974 50.3769 68.5016 50.7824 67.9054 51.1872C67.3425 51.5694 66.7806 51.953 66.2193 52.338C65.8512 52.5904 65.4823 52.8417 65.1131 53.0924C64.7774 53.3205 64.4425 53.5498 64.1077 53.7794C63.5132 54.1871 62.9173 54.5925 62.3211 54.9974C61.8102 55.3443 61.2998 55.6922 60.7903 56.0416C60.1935 56.451 59.5953 56.8581 58.9966 57.2644C58.9052 57.3264 58.8139 57.3885 58.7226 57.4505C58.6381 57.5078 58.5537 57.5652 58.4692 57.6224C58.0803 57.8866 57.694 58.1551 57.3071 58.423C61.2664 58.4426 65.2257 58.4623 69.3049 58.4825C69.1965 58.716 69.1173 58.8098 68.9386 58.9773C68.8889 59.0244 68.8392 59.0715 68.7879 59.1199C68.7154 59.1875 68.7154 59.1875 68.6415 59.2564C68.5678 59.3258 68.494 59.3953 68.4203 59.4648C68.385 59.498 68.3496 59.5311 68.3132 59.5652C68.1342 59.7346 67.9577 59.907 67.7808 60.0789C67.6642 60.1916 67.5468 60.303 67.4286 60.4136C67.2501 60.5809 67.0747 60.7516 66.8998 60.9234C66.6905 61.1289 66.4794 61.3318 66.2656 61.5319C66.1349 61.6552 66.0059 61.7803 65.877 61.9057C65.7134 62.0646 65.5492 62.2226 65.3829 62.3782C65.2073 62.5425 65.0358 62.711 64.8645 62.8805C64.6677 63.0741 64.4679 63.2594 64.2598 63.4386C63.9253 63.729 63.6155 64.0454 63.303 64.3625C63.1303 64.5376 62.9542 64.7075 62.7745 64.8742C62.6461 64.9941 62.52 65.1168 62.3937 65.2395C62.1938 65.4338 61.9921 65.6258 61.789 65.8162C61.6579 65.9403 61.5282 66.0661 61.3985 66.192C61.1985 66.3864 60.9969 66.5783 60.7938 66.7687C60.6627 66.8929 60.533 67.0186 60.4033 67.1446C60.2032 67.3391 60.0014 67.5312 59.7979 67.7218C59.6701 67.8428 59.5444 67.9662 59.4185 68.0897C59.2318 68.2714 59.0414 68.445 58.8449 68.6143C58.5095 68.9062 58.1983 69.2236 57.8846 69.5419C57.7119 69.717 57.5358 69.8869 57.3561 70.0535C57.2277 70.1735 57.1016 70.2961 56.9754 70.4189C56.7754 70.6132 56.5737 70.8052 56.3707 70.9956C56.2395 71.1197 56.1098 71.2455 55.9801 71.3714C55.6858 71.6571 55.3892 71.9394 55.0871 72.2156C54.7232 72.5486 54.3659 72.887 54.0163 73.2374C53.825 73.4292 53.6313 73.6168 53.4334 73.8006C53.3553 73.8742 53.2783 73.9492 53.2018 74.0248C52.1849 75.0321 51.2125 75.6309 49.7916 75.5892C49.4335 75.5693 49.1217 75.4826 48.7925 75.3304C48.7105 75.2945 48.7105 75.2945 48.6268 75.2581C48.1533 75.0293 47.7903 74.69 47.4103 74.3183C47.3618 74.2712 47.3133 74.2242 47.2634 74.1757C47.1731 74.0879 47.083 73.9999 46.993 73.9118C46.8519 73.7772 46.707 73.6494 46.5602 73.5221C46.3084 73.3029 46.0702 73.0724 45.8333 72.835C45.6558 72.6581 45.4737 72.4907 45.2851 72.3277C45.0209 72.0989 44.7735 71.8555 44.5263 71.6062C44.2934 71.3727 44.0506 71.156 43.8024 70.9414C43.636 70.7928 43.477 70.6369 43.3188 70.4784C43.1124 70.2716 42.9028 70.0735 42.683 69.8831C42.4332 69.6666 42.1976 69.4384 41.963 69.2034C41.7855 69.0265 41.6034 68.8591 41.4148 68.6961C41.1506 68.4673 40.9032 68.224 40.656 67.9746C40.4231 67.7412 40.1804 67.5245 39.9321 67.3099C39.7362 67.135 39.5506 66.9491 39.3644 66.7626C39.1869 66.5857 39.0048 66.4183 38.8162 66.2553C38.552 66.0265 38.3046 65.7831 38.0574 65.5338C37.8245 65.3003 37.5818 65.0836 37.3335 64.869C37.1376 64.6941 36.952 64.5083 36.7658 64.3217C36.5883 64.1448 36.4062 63.9774 36.2176 63.8144C35.9534 63.5856 35.706 63.3423 35.4588 63.0929C35.2259 62.8594 34.9831 62.6427 34.7349 62.4282C34.539 62.2533 34.3534 62.0674 34.1672 61.8808C33.9896 61.704 33.8076 61.5366 33.619 61.3736C33.3548 61.1448 33.1074 60.9014 32.8602 60.6521C32.6273 60.4186 32.3845 60.2019 32.1363 59.9873C31.9408 59.8128 31.7554 59.6276 31.5699 59.441C31.3343 59.2057 31.0874 58.9906 30.8333 58.7785C30.7141 58.6623 30.6682 58.5772 30.6022 58.423C30.7595 58.3202 30.9167 58.2173 31.074 58.1145C31.2128 58.0237 31.3517 57.9329 31.4906 57.8422C31.8447 57.6106 32.1989 57.3791 32.5531 57.1476C33.3076 56.6545 34.0618 56.1609 34.8156 55.6666C35.079 55.4939 35.3425 55.3213 35.6059 55.1486C35.7119 55.0792 35.8178 55.0097 35.9238 54.9403C36.9836 54.2457 38.0433 53.5511 39.103 52.8566C39.1817 52.8051 39.1817 52.8051 39.2619 52.7524C39.3681 52.6828 39.4743 52.6132 39.5805 52.5436C39.842 52.3723 40.1035 52.2009 40.3649 52.0294C40.9769 51.6281 41.5892 51.2274 42.2017 50.8271C42.7993 50.4365 43.3966 50.0453 43.9937 49.6538C44.3103 49.4462 44.627 49.2387 44.9436 49.0311C45.2051 48.8598 45.4666 48.6884 45.728 48.5169C46.34 48.1157 46.9523 47.715 47.5648 47.3147C48.1624 46.9241 48.7597 46.5329 49.3568 46.1413C49.6202 45.9686 49.8836 45.796 50.1471 45.6233C50.2531 45.5539 50.3591 45.4844 50.465 45.415C50.677 45.276 50.8889 45.1371 51.1008 44.9982C51.1533 44.9638 51.2057 44.9295 51.2597 44.8941C51.366 44.8245 51.4721 44.7549 51.5783 44.6853C51.8398 44.5139 52.1013 44.3425 52.3628 44.171C52.9748 43.7698 53.587 43.369 54.1995 42.9688C54.8487 42.5445 55.4974 42.1194 56.146 41.6941C56.3787 41.5416 56.6114 41.389 56.844 41.2365C56.8975 41.2014 56.9509 41.1664 57.006 41.1302C57.0559 41.0976 57.1058 41.0648 57.1572 41.0311C57.2009 41.0024 57.2447 40.9738 57.2897 40.9442C57.4243 40.8563 57.5592 40.7692 57.6941 40.6821C46.1447 40.6624 34.5952 40.6428 22.6958 40.6225C22.8823 39.8859 22.8823 39.8859 22.9669 39.6423C22.9861 39.5865 23.0053 39.5308 23.0251 39.4734C23.0455 39.4146 23.066 39.3559 23.0871 39.2954C23.1092 39.2314 23.1313 39.1674 23.154 39.1015C23.2018 38.9629 23.2497 38.8245 23.2976 38.6861C23.429 38.3069 23.5594 37.9273 23.6897 37.5477C23.7033 37.5081 23.7169 37.4685 23.7309 37.4278C24.0344 36.544 24.3305 35.6576 24.6256 34.7706C24.6921 34.5708 24.7587 34.371 24.8253 34.1712C24.845 34.1121 24.845 34.1121 24.8651 34.0518C24.9047 33.933 24.9443 33.8143 24.9839 33.6955C25.0033 33.6372 25.0033 33.6372 25.0232 33.5776C25.1008 33.3447 25.1784 33.112 25.2561 32.8791C25.2943 32.7644 25.3326 32.6497 25.3708 32.535C25.5158 32.1001 25.6613 31.6653 25.8076 31.2309C25.8517 31.0994 25.8958 30.9678 25.9396 30.8362C26.4052 29.4384 26.9256 28.147 28.1142 27.2871C28.1837 27.2366 28.1837 27.2366 28.2546 27.185C28.8512 26.7807 29.6224 26.4465 30.3375 26.446Z"   fill="#BCD6FF" >
</path>
<path d="M30.3376 26.446C30.3949 26.4459 30.4523 26.4457 30.5114 26.4455C30.5742 26.4456 30.637 26.4457 30.7017 26.4458C30.7689 26.4457 30.836 26.4456 30.9053 26.4455C31.0924 26.4452 31.2795 26.4452 31.4666 26.4453C31.6699 26.4453 31.8732 26.445 32.0766 26.4448C32.4801 26.4443 32.8837 26.4442 33.2873 26.4441C33.7705 26.4441 34.2538 26.4437 34.7371 26.4433C35.9054 26.4423 37.0737 26.442 38.2419 26.4417C38.7946 26.4416 39.3473 26.4413 39.9 26.4411C41.7919 26.4403 43.6838 26.4397 45.5758 26.4395C45.6945 26.4395 45.8133 26.4395 45.9321 26.4395C46.0512 26.4395 46.1703 26.4394 46.2893 26.4394C46.5282 26.4394 46.7671 26.4394 47.006 26.4393C47.0653 26.4393 47.1245 26.4393 47.1855 26.4393C49.1056 26.4391 51.0257 26.4382 52.9457 26.4368C54.9757 26.4353 57.0057 26.4345 59.0356 26.4344C59.2586 26.4344 59.4814 26.4344 59.7043 26.4344C59.7867 26.4344 59.7867 26.4344 59.8707 26.4344C60.7535 26.4343 61.6364 26.4337 62.5193 26.4328C63.407 26.4319 64.2947 26.4317 65.1824 26.4322C65.7096 26.4325 66.2368 26.4323 66.7639 26.4313C67.1165 26.4307 67.469 26.4308 67.8215 26.4314C68.0221 26.4317 68.2228 26.4318 68.4234 26.431C70.1584 26.4249 71.4619 26.7085 72.7329 28.061C73.1895 28.5611 73.4888 29.1695 73.7195 29.8194C73.7428 29.8835 73.7661 29.9477 73.79 30.0138C74.0253 30.6673 74.2452 31.3267 74.4619 31.9875C74.5569 32.2774 74.6525 32.567 74.7481 32.8566C74.7974 33.0058 74.8466 33.1551 74.8957 33.3044C75.1104 33.9556 75.3269 34.6061 75.5445 35.2562C75.6044 35.4353 75.6642 35.6144 75.724 35.7935C75.9428 36.4479 76.163 37.1018 76.3847 37.755C76.4661 37.9953 76.5474 38.2356 76.6287 38.4758C76.7076 38.7091 76.7868 38.9422 76.8663 39.1752C76.927 39.3535 76.9873 39.532 77.0477 39.7104C77.081 39.8077 77.081 39.8077 77.1151 39.907C77.1451 39.9964 77.1451 39.9964 77.1759 40.0876C77.1935 40.1394 77.2111 40.1913 77.2293 40.2447C77.2667 40.3844 77.2667 40.3844 77.2667 40.6225C74.8146 40.6245 72.3626 40.6256 69.9106 40.6262C69.7584 40.6262 69.6062 40.6263 69.454 40.6263C64.2781 40.6277 59.1022 40.6249 39.2447 40.593C39.0414 40.5927 38.8382 40.5923 38.6349 40.5919C34.084 40.5839 29.5331 40.5757 22.7511 40.563C22.7831 40.3085 22.819 40.0773 22.9008 39.8358C22.9204 39.7775 22.9399 39.7192 22.96 39.6592C22.9815 39.5966 23.0029 39.534 23.0249 39.4695C23.0587 39.3694 23.0587 39.3694 23.0932 39.2672C23.1548 39.0848 23.2167 38.9025 23.2788 38.7203C23.3448 38.5265 23.4103 38.3325 23.4759 38.1386C23.8765 36.9553 24.2813 35.7737 24.6873 34.5926C24.9338 33.8745 25.1776 33.1557 25.4166 32.4347C25.4582 32.3094 25.4998 32.1841 25.5414 32.0588C25.7025 31.5742 25.7025 31.5742 25.8624 31.0891C26.3511 29.5999 26.8443 28.2059 28.1142 27.2871C28.1837 27.2366 28.1837 27.2366 28.2546 27.185C28.8512 26.7807 29.6224 26.4465 30.3376 26.446Z"   fill="#FEFEFF" >
</path>
<path d="M30.6022 58.4825C43.3741 58.4825 56.146 58.4825 69.305 58.4825C69.1965 58.7161 69.1173 58.8098 68.9387 58.9774C68.8889 59.0244 68.8391 59.0715 68.7879 59.1199C68.7396 59.165 68.6913 59.21 68.6415 59.2564C68.5677 59.3259 68.494 59.3953 68.4203 59.4648C68.385 59.498 68.3496 59.5311 68.3132 59.5653C68.1342 59.7347 67.9577 59.9071 67.7809 60.079C67.6642 60.1916 67.5468 60.303 67.4285 60.4136C67.2501 60.581 67.0747 60.7517 66.8999 60.9234C66.6905 61.129 66.4794 61.3318 66.2655 61.532C66.1349 61.6553 66.0059 61.7804 65.877 61.9057C65.7134 62.0647 65.5492 62.2226 65.3828 62.3782C65.2073 62.5425 65.0358 62.711 64.8645 62.8805C64.6678 63.0741 64.468 63.2595 64.2598 63.4387C63.9253 63.7291 63.6155 64.0454 63.303 64.3626C63.1303 64.5376 62.9542 64.7075 62.7745 64.8742C62.646 64.9942 62.52 65.1168 62.3938 65.2395C62.1938 65.4338 61.9921 65.6258 61.789 65.8163C61.6579 65.9404 61.5281 66.0661 61.3986 66.1921C61.1986 66.3864 60.9969 66.5783 60.7938 66.7688C60.6626 66.8929 60.5329 67.0186 60.4033 67.1446C60.2032 67.3391 60.0014 67.5313 59.798 67.7218C59.6701 67.8429 59.5444 67.9663 59.4185 68.0897C59.2318 68.2715 59.0414 68.445 58.8448 68.6143C58.5095 68.9062 58.1983 69.2237 57.8846 69.542C57.7119 69.717 57.5359 69.8869 57.3562 70.0536C57.2277 70.1736 57.1016 70.2962 56.9754 70.4189C56.7754 70.6132 56.5738 70.8052 56.3706 70.9957C56.2395 71.1197 56.1098 71.2455 55.9802 71.3714C55.6859 71.6572 55.3892 71.9395 55.0871 72.2156C54.7233 72.5487 54.3658 72.887 54.0163 73.2375C53.825 73.4292 53.6313 73.6169 53.4334 73.8007C53.3553 73.8743 53.2782 73.9492 53.2019 74.0248C52.1849 75.0321 51.2125 75.631 49.7916 75.5893C49.4335 75.5693 49.1218 75.4826 48.7925 75.3304C48.7378 75.3065 48.6832 75.2827 48.6269 75.2581C48.1534 75.0293 47.7903 74.6901 47.4103 74.3183C47.3618 74.2713 47.3134 74.2243 47.2634 74.1758C47.1731 74.0879 47.083 74 46.993 73.9118C46.8519 73.7773 46.707 73.6494 46.5602 73.5221C46.3084 73.3029 46.0702 73.0724 45.8334 72.835C45.6558 72.6581 45.4737 72.4907 45.2851 72.3277C45.0209 72.0989 44.7735 71.8556 44.5263 71.6062C44.2934 71.3727 44.0507 71.156 43.8024 70.9414C43.636 70.7929 43.477 70.6369 43.3188 70.4784C43.1124 70.2716 42.9028 70.0736 42.683 69.8831C42.4332 69.6667 42.1976 69.4385 41.963 69.2035C41.7855 69.0266 41.6034 68.8591 41.4148 68.6961C41.1507 68.4674 40.9032 68.224 40.656 67.9747C40.4231 67.7412 40.1804 67.5245 39.9321 67.3099C39.7362 67.135 39.5506 66.9492 39.3644 66.7626C39.1869 66.5858 39.0048 66.4183 38.8162 66.2553C38.5521 66.0266 38.3046 65.7832 38.0574 65.5339C37.8245 65.3003 37.5818 65.0836 37.3335 64.8691C37.1376 64.6941 36.952 64.5083 36.7658 64.3217C36.5883 64.1449 36.4062 63.9774 36.2176 63.8145C35.9534 63.5857 35.706 63.3423 35.4588 63.093C35.2259 62.8594 34.9832 62.6427 34.7349 62.4282C34.539 62.2533 34.3534 62.0675 34.1672 61.8809C33.9897 61.704 33.8076 61.5366 33.619 61.3736C33.3548 61.1448 33.1074 60.9014 32.8602 60.6521C32.6273 60.4186 32.3845 60.2019 32.1363 59.9874C31.9409 59.8128 31.7555 59.6276 31.5699 59.4412C31.3335 59.2053 31.0865 58.9877 30.8333 58.7727C30.7128 58.6611 30.7128 58.6611 30.6022 58.4825Z"   fill="#EFF4FF" >
</path>
</svg>
