<svg xmlns="http://www.w3.org/2000/svg" xmlns:xlink="http://www.w3.org/1999/xlink" width="100" height="100" viewBox="0 0 100 100" fill="none"><g  clip-path="url(#clip-path-45_3)"><path     fill="#FFFFFF"  d="M0 100L100 100L100 0L0 0L0 100Z"></path><path d="M4.5 -2C0.910147 -2 -2 0.910147 -2 4.5L-2 95.5C-2 99.0898 0.910147 102 4.5 102L60.14 102C63.4172 102 65.5009 98.5059 63.91 95.6408C59.6333 87.9393 55.5509 81.1383 52.9792 78.1992C45.651 69.8248 11.2638 77.6363 10.1767 50.3142C10.1053 48.5201 11.3116 46.9494 13.015 46.3817L29.7958 40.7917C30.7767 40.4647 31.609 39.7979 32.1683 38.9283C33.7531 36.4644 37.2852 31.2656 40.5208 28.6367C43.5824 26.1491 48.5398 22.9816 57.5833 21.53C59.392 21.2397 60.8298 19.8969 61.7108 18.2908C63.8261 14.4348 68.0153 12.0972 72.4358 12.7333C78.2097 13.5644 82.1817 19.1541 81.3083 25.2242C81.2442 25.6695 81.3954 26.1268 81.7308 26.4267C85.5811 29.8685 89.6517 34.6272 93.68 40.0117C96.2632 43.4647 102 41.724 102 37.4117L102 4.5C102 0.910147 99.0898 -2 95.5 -2L4.5 -2Z"   fill="#0284C7" ></path><circle transform="matrix(-1.0000001192092896, 0, 0, 1.0000001192092896, 55.9583740234375, 34.29168701171875)" cx="5.416666030883789" cy="5.416666030883789" r="5.416666030883789"   fill="#0284C7" ></circle></g><defs><clipPath id="clip-path-45_3"><path d="M0 100L100 100L100 0L0 0L0 100Z" fill="white"/></clipPath></defs></svg>