<svg xmlns="http://www.w3.org/2000/svg" xmlns:xlink="http://www.w3.org/1999/xlink" width="100" height="100" viewBox="0 0 100 100" fill="none"><path     fill="#000020"  d="M0 100L100 100L100 0L0 0L0 100Z"></path><path d="M48.0126 40.9293C48.6337 40.0252 49.3147 39.9083 49.869 39.9083C50.4193 39.9083 51.339 40.0252 51.9601 40.9293C60.058 51.9598 76.849 81.0577 78.4017 82.642C80.7014 84.9888 83.8587 83.5288 85.6905 80.8675C87.4988 78.2455 88 76.403 88 74.4414C88 73.1048 61.8429 24.8549 59.2052 20.8374C56.6736 16.9732 55.8498 16 51.5178 16L48.2747 16C43.9506 16 43.3264 16.9771 40.7948 20.8374C38.1532 24.8627 12 73.1103 12 74.4468C12 76.4124 12.5012 78.2455 14.3095 80.8675C16.1413 83.5288 19.2986 84.9982 21.5983 82.6474C23.151 81.0632 39.9186 51.9668 48.0126 40.9402L48.0126 40.9293Z"   fill="#FFFFFF" ></path></svg>