<svg xmlns="http://www.w3.org/2000/svg" xmlns:xlink="http://www.w3.org/1999/xlink" width="100" height="100" viewBox="0 0 100 100" fill="none"><g opacity="0.993"><path d="M51.3886 13.0064C51.587 12.9811 51.7622 13.0307 51.914 13.155C57.4974 19.9001 62.7517 26.8839 67.6767 34.1064C71.323 39.5402 74.4254 45.2857 76.9842 51.343C81.0707 62.1313 78.9439 71.5174 70.6041 79.5011C63.307 85.6055 54.9002 87.983 45.3837 86.6334C34.0086 84.3379 26.2773 77.8246 22.19 67.0937C21.1254 63.6001 20.7751 60.0339 21.1392 56.3951C21.7454 50.1315 23.2466 44.0887 25.6428 38.2669C26.6412 35.8916 27.9424 33.7123 29.5459 31.7289C30.8543 33.2713 32.1052 34.8563 33.299 36.4838C33.8517 37.0558 34.4271 37.6007 35.0254 38.1183C39.5916 29.1488 45.0461 20.7781 51.3886 13.0064Z"   fill="#FF5B11" ></path></g><path d="M50.3378 25.0423C55.8462 31.3664 60.8252 38.1024 65.2748 45.2507C66.6699 47.616 67.8207 50.0926 68.7276 52.6803C70.6167 60.0368 68.5901 66.1044 62.6477 70.8828C56.9005 74.8857 50.5954 76.0744 43.7324 74.449C36.3316 72.1758 32.0531 67.2475 30.8971 59.6641C30.6165 57.2731 30.8667 54.9451 31.6477 52.6803C32.7613 49.8813 34.1123 47.2066 35.7009 44.6564C37.2021 42.477 38.7034 40.2977 40.2046 38.1183C43.6147 33.778 46.9925 29.4194 50.3378 25.0423Z"   fill="#FF9758" ></path></svg>