<svg xmlns="http://www.w3.org/2000/svg" xmlns:xlink="http://www.w3.org/1999/xlink" width="100" height="100" viewBox="0 0 100 100" fill="none"><path    stroke="rgba(191, 191, 191, 1.00)" stroke-width="4"  stroke-linecap="round"  d="M33.4286 18L33.4286 27.9738"></path><path    stroke="rgba(255, 255, 255, 1.00)" stroke-width="8"  stroke-linecap="round"  d="M26.8 44.5967L26.8 71.1935"></path><path    stroke="rgba(137, 137, 137, 1.00)" stroke-width="4"  stroke-linecap="round"  d="M26.8 34.6229L26.8 71.1934"></path><path    stroke="rgba(255, 255, 255, 1.00)" stroke-width="8"  stroke-linecap="round"  d="M73.2 44.5967L73.2 71.1935"></path><path    stroke="rgba(137, 137, 137, 1.00)" stroke-width="4"  stroke-linecap="round"  d="M73.2001 34.6229L73.2001 71.1934M73.2001 71.1934L26.8 71.1934"></path><path    stroke="rgba(255, 255, 255, 1.00)" stroke-width="8" stroke-linejoin="round" stroke-linecap="round"  d="M50 18L78.1714 36.2852"></path><path    stroke="rgba(137, 137, 137, 1.00)" stroke-width="4" stroke-linejoin="round" stroke-linecap="round"  d="M50 18L78.1714 36.2852"></path><path    stroke="rgba(255, 255, 255, 1.00)" stroke-width="8" stroke-linejoin="round" stroke-linecap="round"  d="M50 18L21.8286 36.2852"></path><path    stroke="rgba(137, 137, 137, 1.00)" stroke-width="4" stroke-linejoin="round" stroke-linecap="round"  d="M50 18L21.8286 36.2852"></path><path    stroke="rgba(191, 191, 191, 1.00)" stroke-width="3"  stroke-linecap="round"  d="M79 81.9984L21 81.9984"></path><path    stroke="rgba(255, 255, 255, 1.00)" stroke-width="8"  stroke-linecap="round"  d="M50 59.5574L50 76.1803"></path><path    stroke="rgba(0, 102, 196, 1.00)" stroke-width="4"  stroke-linecap="round"  d="M50 49.5836L50 76.1803"></path><ellipse cx="50.000030517578125" cy="46.2590446472168" rx="6.628570556640625" ry="6.649181365966797" stroke="rgba(255, 255, 255, 1.00)" stroke-width="2"      fill="#0066C4" ></ellipse><ellipse cx="50.000030517578125" cy="46.2590446472168" rx="6.628570556640625" ry="6.649181365966797" stroke="rgba(255, 255, 255, 1.00)" stroke-width="2"      fill="#0066C4" ></ellipse></svg>