<svg xmlns="http://www.w3.org/2000/svg" xmlns:xlink="http://www.w3.org/1999/xlink" width="100" height="100" viewBox="0 0 100 100" fill="none"><path     fill="#000000"  d="M0 100L100 100L100 0L0 0L0 100Z"></path><path d="M16.7716 45.9852L16.7702 45.9864C16.7093 46.0444 16.6516 46.1051 16.5969 46.1685C16.5423 46.2318 16.491 46.2976 16.4432 46.3658C16.3953 46.434 16.3511 46.5042 16.3105 46.5765C16.2699 46.6488 16.2331 46.7228 16.2002 46.7986C16.1672 46.8743 16.1382 46.9514 16.1132 47.0299C16.0882 47.1083 16.0673 47.1877 16.0505 47.2682C16.0337 47.3486 16.0211 47.4295 16.0127 47.5111C16.0042 47.5927 16 47.6745 16 47.7565C16 48.4478 16.2943 49.0735 16.7702 49.5266C17.2461 49.9795 17.9036 50.2597 18.6297 50.2597C19.3559 50.2597 20.0133 49.9795 20.4892 49.5266L20.4906 49.5253L50.2412 21.206C53.322 18.2734 58.3172 18.2732 61.3979 21.2059C64.4789 24.1387 64.4789 28.8934 61.398 31.8261L38.9292 53.2142C38.4533 53.6672 38.159 54.293 38.159 54.9842L38.159 54.9903L38.159 54.9905C38.1592 55.0722 38.1636 55.1538 38.1722 55.2351C38.1808 55.3164 38.1936 55.3971 38.2105 55.4772C38.2274 55.5573 38.2484 55.6365 38.2735 55.7146C38.2985 55.7928 38.3275 55.8696 38.3604 55.9451C38.3934 56.0205 38.4301 56.0943 38.4707 56.1663C38.5112 56.2383 38.5554 56.3083 38.6031 56.3763C38.6508 56.4442 38.702 56.5097 38.7564 56.5729C38.8109 56.636 38.8685 56.6965 38.9292 56.7543C38.9901 56.8122 39.0538 56.8672 39.1203 56.9192C39.1869 56.9712 39.2559 57.0199 39.3275 57.0654C39.3991 57.111 39.4728 57.153 39.5487 57.1917C39.6247 57.2303 39.7024 57.2653 39.7819 57.2967C39.8614 57.328 39.9424 57.3556 40.0247 57.3795C40.1071 57.4033 40.1905 57.4232 40.2749 57.4392C40.3593 57.4552 40.4444 57.4672 40.53 57.4753C40.6157 57.4833 40.7016 57.4874 40.7877 57.4874L40.7887 57.4874C41.5149 57.4874 42.1723 57.2072 42.6482 56.7542L65.117 35.3662C70.252 30.4784 70.252 22.5537 65.117 17.6659C59.9824 12.778 51.657 12.7781 46.5222 17.6659L16.7716 45.9852Z" fill-rule="evenodd"  fill="#FFFFFF" ></path><path d="M61.3984 31.8262L39.2398 52.9193C39.2389 52.9202 39.2379 52.921 39.237 52.9219C39.2345 52.9243 39.2319 52.9268 39.2294 52.9292C38.7596 53.3814 38.4696 54.0031 38.4696 54.6893C38.4696 55.3805 38.7639 56.0064 39.2398 56.4593C39.2435 56.4629 39.2473 56.4664 39.251 56.4699C39.2723 56.4899 39.2939 56.5096 39.3158 56.5289C39.7846 56.9408 40.4111 57.1925 41.0993 57.1925C41.8202 57.1925 42.4733 56.9164 42.9483 56.4692C42.9509 56.4668 42.9535 56.4644 42.956 56.462C42.957 56.4611 42.9579 56.4602 42.9588 56.4593L65.1175 35.3663C68.1984 32.4337 73.194 32.4334 76.2747 35.3662L76.4297 35.5137C79.5107 38.4464 79.5108 43.2013 76.4297 46.1339L49.5219 71.7477C47.1256 74.0285 47.1256 77.7268 49.522 80.0077L55.0472 85.2672C55.5231 85.72 56.1805 86 56.9067 86C57.6329 86 58.2903 85.72 58.7662 85.2672L58.7664 85.2667C58.8271 85.2091 58.8847 85.1486 58.9392 85.0853C58.9936 85.0223 59.0447 84.9568 59.0924 84.889C59.1402 84.8208 59.1843 84.7508 59.2248 84.6791C59.2654 84.607 59.3021 84.5332 59.335 84.4578C59.368 84.3821 59.397 84.3052 59.422 84.2271C59.4471 84.149 59.4681 84.07 59.4849 83.9901C59.5019 83.9099 59.5146 83.829 59.5232 83.7476C59.5318 83.6665 59.5362 83.585 59.5364 83.5033L59.5364 83.5029L59.5364 83.497C59.5364 82.8057 59.2421 82.1801 58.7662 81.7268L53.2408 76.4673C52.8986 76.1416 52.8986 75.6135 53.2409 75.2877L80.1486 49.6741C85.2837 44.7864 85.2837 36.8614 80.1487 31.9737L79.9939 31.8263C74.8592 26.9382 66.5334 26.9384 61.3984 31.8262Z" fill-rule="evenodd"  fill="#FFFFFF" ></path><path d="M35.6751 49.2316L57.6793 28.2861C58.1552 27.8331 58.4495 27.2073 58.4495 26.516C58.4495 25.1335 57.2721 24.0128 55.8198 24.0128C55.0936 24.0128 54.4362 24.293 53.9603 24.746L31.9561 45.6914C30.6959 46.8911 29.7332 48.2716 29.068 49.833C28.426 51.34 28.105 52.9095 28.105 54.5415C28.105 56.1735 28.426 57.743 29.068 59.25C29.7332 60.8115 30.6959 62.192 31.9561 63.3916C37.0909 68.2796 45.4163 68.2796 50.5511 63.3916L72.5551 42.4464C73.031 41.9933 73.3254 41.3676 73.3254 40.6763C73.3254 39.9851 73.031 39.3593 72.5551 38.9063C72.5384 38.8903 72.5215 38.8746 72.5043 38.8592C72.0329 38.4339 71.3963 38.1731 70.6956 38.1731C69.9694 38.1731 69.312 38.4533 68.8361 38.9063L68.8352 38.9072L46.8321 59.8516C43.7512 62.7844 38.7561 62.7844 35.6752 59.8516C34.9177 59.1306 34.34 58.3029 33.9419 57.3686C33.5569 56.4649 33.3644 55.5225 33.3644 54.5415C33.3644 53.5605 33.5569 52.6181 33.9419 51.7145C34.3399 50.7802 34.9177 49.9526 35.6751 49.2316Z" fill-rule="evenodd"  fill="#FFFFFF" ></path></svg>