<svg xmlns="http://www.w3.org/2000/svg" xmlns:xlink="http://www.w3.org/1999/xlink" width="100" height="100" viewBox="0 0 100 100" fill="none"><path d="M61.3991 21.2061C61.2146 21.0318 61.022 20.8666 60.8208 20.7104C60.6199 20.5541 60.4116 20.4077 60.1962 20.271C59.9807 20.1343 59.7591 20.0079 59.531 19.892C59.3029 19.7761 59.0696 19.6711 58.8309 19.5771C58.5926 19.483 58.35 19.4003 58.103 19.329C57.8564 19.2577 57.6067 19.1981 57.3541 19.1502C57.1016 19.1023 56.8472 19.0663 56.5907 19.0422C56.3345 19.0181 56.0776 19.0061 55.8201 19.0061C55.5627 19.0061 55.3061 19.0181 55.0496 19.0422C54.7934 19.0663 54.5387 19.1023 54.2861 19.1502C54.0336 19.1981 53.7839 19.2577 53.5372 19.329C53.2903 19.4003 53.0476 19.483 52.8093 19.5771C52.5707 19.6711 52.3374 19.7761 52.1092 19.892C51.8811 20.0079 51.6595 20.1343 51.4441 20.271C51.2287 20.4077 51.0203 20.5541 50.8194 20.7104C50.6182 20.8666 50.4257 21.0318 50.2411 21.2061L20.4886 49.5259C20.3653 49.6423 20.2316 49.7461 20.0877 49.8373C19.9437 49.9285 19.792 50.0053 19.6327 50.0683C19.4734 50.131 19.3093 50.1784 19.1405 50.2105C18.9718 50.2423 18.8014 50.2585 18.6294 50.2585C18.4575 50.2585 18.2871 50.2423 18.1183 50.2105C17.9496 50.1784 17.7855 50.131 17.6262 50.0683C17.4669 50.0053 17.3152 49.9285 17.1712 49.8373C17.0272 49.7461 16.8936 49.6423 16.7703 49.5259C16.6484 49.4107 16.5395 49.2853 16.4436 49.1491C16.3477 49.0126 16.2666 48.8683 16.2005 48.7165C16.1343 48.5644 16.0844 48.4075 16.0506 48.2461C16.0169 48.0841 16 47.9209 16 47.7559C16 47.5909 16.0169 47.4274 16.0506 47.2657C16.0844 47.104 16.1343 46.9471 16.2005 46.7953C16.2666 46.6432 16.3477 46.4989 16.4436 46.3627C16.5395 46.2265 16.6484 46.1008 16.7703 45.9859L46.5229 17.6661C46.8303 17.3757 47.1515 17.1003 47.4863 16.84C47.821 16.5797 48.1681 16.3356 48.5273 16.1078C48.8864 15.88 49.2561 15.6695 49.6363 15.4764C50.0161 15.2832 50.405 15.1083 50.8024 14.9515C51.1999 14.7948 51.6042 14.657 52.0156 14.5381C52.4267 14.4193 52.8427 14.32 53.264 14.2401C53.685 14.1603 54.109 14.1003 54.5359 14.0602C54.963 14.0201 55.3911 14 55.8201 14C56.2491 14 56.6772 14.0201 57.1041 14.0602C57.5312 14.1003 57.9553 14.1603 58.3763 14.2401C58.7976 14.32 59.2136 14.4193 59.6247 14.5381C60.0361 14.657 60.4403 14.7948 60.8378 14.9515C61.2353 15.1083 61.6241 15.2832 62.004 15.4764C62.3842 15.6695 62.7539 15.88 63.113 16.1078C63.4722 16.3356 63.8193 16.5797 64.154 16.84C64.4888 17.1003 64.8099 17.3757 65.1174 17.6661C65.4763 18.0048 65.8132 18.3627 66.1284 18.7399C66.4437 19.1172 66.7349 19.5111 67.0022 19.9217C67.2696 20.3323 67.5113 20.7568 67.727 21.1951C67.9428 21.6333 68.1313 22.0824 68.2924 22.5423C68.4534 23.0021 68.5863 23.4696 68.6905 23.9446C68.7946 24.4197 68.87 24.8991 68.9161 25.3827C68.9622 25.8664 68.9785 26.351 68.9655 26.8366C68.9529 27.3221 68.9105 27.8053 68.8388 28.286C69.3408 28.2167 69.8452 28.1754 70.3521 28.1622C70.8587 28.1489 71.3647 28.1638 71.87 28.2067C72.3751 28.2496 72.8761 28.3204 73.3728 28.4189C73.8695 28.5175 74.3588 28.6433 74.8407 28.7962C75.3225 28.9492 75.7939 29.1283 76.2547 29.3336C76.7156 29.5389 77.1628 29.769 77.5965 30.024C78.0301 30.2789 78.4474 30.5571 78.8483 30.8584C79.2491 31.1597 79.6309 31.4822 79.9937 31.826L80.1483 31.976C80.3 32.1193 80.4481 32.2663 80.5924 32.4168C80.7368 32.5674 80.8774 32.7213 81.0137 32.8786C81.15 33.036 81.282 33.1965 81.4103 33.3603C81.5385 33.524 81.6622 33.6908 81.7818 33.8605C81.9014 34.0303 82.0164 34.2029 82.127 34.3782C82.2377 34.5536 82.3437 34.7315 82.4454 34.9119C82.5468 35.0925 82.6435 35.2753 82.7356 35.4605C82.8277 35.6457 82.9149 35.8329 82.9974 36.0224C83.0799 36.2118 83.1572 36.4031 83.2299 36.5963C83.3025 36.7894 83.3699 36.9842 83.4326 37.1807C83.4951 37.3771 83.5525 37.575 83.6051 37.7742C83.6573 37.9734 83.7046 38.1738 83.7467 38.3754C83.7887 38.5769 83.8255 38.7793 83.857 38.9826C83.8888 39.1859 83.9151 39.3899 83.9361 39.5945C83.9574 39.799 83.9732 40.004 83.9837 40.2094C83.9945 40.4148 83.9998 40.6203 83.9998 40.8259C83.9998 41.0315 83.9945 41.237 83.9837 41.4423C83.9732 41.6477 83.9574 41.8527 83.9361 42.0573C83.9151 42.2619 83.8888 42.4658 83.857 42.6691C83.8255 42.8724 83.7887 43.0749 83.7467 43.2764C83.7046 43.4779 83.6573 43.6783 83.6051 43.8775C83.5525 44.0768 83.4951 44.2747 83.4326 44.4712C83.3699 44.6674 83.3025 44.8624 83.2299 45.0556C83.1572 45.2488 83.0799 45.4399 82.9974 45.6295C82.9149 45.8188 82.8277 46.006 82.7356 46.1914C82.6435 46.3765 82.5468 46.5592 82.4454 46.7398C82.3437 46.9204 82.2377 47.0983 82.127 47.2735C82.0164 47.4487 81.9014 47.6215 81.7818 47.7913C81.6622 47.9611 81.5385 48.1279 81.4103 48.2917C81.282 48.4552 81.15 48.6157 81.0137 48.7732C80.8774 48.9304 80.7368 49.0846 80.5924 49.2352C80.4481 49.3855 80.3 49.5325 80.1483 49.6759L53.2393 75.2866C53.1988 75.325 53.1623 75.3667 53.1305 75.412C53.0986 75.4573 53.0714 75.5053 53.0495 75.556C53.0275 75.6064 53.0109 75.6589 52.9994 75.7129C52.9883 75.7666 52.9827 75.8209 52.9827 75.8761C52.9827 75.931 52.9883 75.9853 52.9994 76.0393C53.0109 76.0933 53.0275 76.1455 53.0495 76.1962C53.0714 76.2466 53.0986 76.2946 53.1305 76.3402C53.1623 76.3852 53.1988 76.4272 53.2393 76.4656L58.7657 81.7275C58.8875 81.8424 58.9963 81.9681 59.0924 82.1043C59.1882 82.2405 59.2692 82.3848 59.3357 82.5369C59.4018 82.6887 59.4516 82.8456 59.4853 83.0073C59.519 83.169 59.536 83.3325 59.536 83.4975C59.536 83.6625 59.519 83.8257 59.4853 83.9877C59.4516 84.1491 59.4018 84.306 59.3357 84.4581C59.2692 84.6099 59.1882 84.7542 59.0924 84.8907C58.9963 85.0269 58.8875 85.1523 58.7657 85.2675C58.6424 85.3839 58.5089 85.4877 58.3648 85.5789C58.2208 85.6701 58.069 85.7469 57.9099 85.8099C57.7507 85.8726 57.5866 85.92 57.4178 85.9521C57.2487 85.9839 57.0784 86.0001 56.9066 86.0001C56.7344 86.0001 56.5641 85.9839 56.3953 85.9521C56.2266 85.92 56.0625 85.8726 55.9033 85.8099C55.7441 85.7469 55.5923 85.6701 55.4483 85.5789C55.3043 85.4877 55.1707 85.3839 55.0474 85.2675L49.521 80.0085C49.3791 79.8747 49.2443 79.7343 49.1167 79.5873C48.9893 79.4403 48.87 79.2873 48.7581 79.129C48.6463 78.9703 48.543 78.8068 48.4481 78.6382C48.3532 78.4696 48.2673 78.2968 48.1904 78.1201C48.1134 77.9431 48.0454 77.7628 47.987 77.5792C47.9286 77.3956 47.8797 77.2099 47.8405 77.0215C47.8012 76.8331 47.7715 76.6435 47.7518 76.4524C47.732 76.261 47.7221 76.0696 47.7221 75.8776C47.7221 75.6853 47.732 75.4936 47.7518 75.3028C47.7715 75.1114 47.8012 74.9218 47.8405 74.7337C47.8797 74.5453 47.9286 74.3593 47.987 74.176C48.0454 73.9924 48.1134 73.8121 48.1904 73.6351C48.2673 73.4581 48.3532 73.2856 48.4481 73.117C48.543 72.9484 48.6463 72.7846 48.7581 72.6262C48.87 72.4675 48.9893 72.3148 49.1167 72.1678C49.2443 72.0208 49.3791 71.8804 49.521 71.7466L76.43 46.1329C76.6123 45.9607 76.7854 45.7801 76.9489 45.5911C77.1124 45.4021 77.2661 45.2056 77.4095 45.0019C77.5529 44.7979 77.6855 44.5876 77.8073 44.371C77.929 44.1542 78.0394 43.9322 78.1386 43.7047C78.2375 43.4773 78.3244 43.2456 78.3995 43.0098C78.4746 42.7739 78.5373 42.535 78.5877 42.293C78.6381 42.0511 78.6761 41.8073 78.7014 41.5616C78.7268 41.316 78.7395 41.0697 78.7395 40.8229C78.7395 40.576 78.7268 40.3297 78.7014 40.0841C78.6761 39.8385 78.6381 39.5947 78.5877 39.3527C78.5373 39.1108 78.4746 38.8718 78.3995 38.636C78.3244 38.4001 78.2375 38.1684 78.1386 37.941C78.0394 37.7136 77.929 37.4915 77.8073 37.2748C77.6855 37.058 77.5529 36.8477 77.4095 36.6439C77.2661 36.44 77.1124 36.2436 76.9489 36.0547C76.7854 35.8657 76.6123 35.6851 76.43 35.5129L76.2754 35.3659C76.0912 35.1918 75.8987 35.0268 75.6981 34.8707C75.4975 34.7146 75.2894 34.5682 75.074 34.4316C74.8586 34.295 74.6373 34.1688 74.4095 34.0529C74.1817 33.937 73.9486 33.8321 73.7103 33.738C73.472 33.644 73.2297 33.5612 72.9834 33.4899C72.737 33.4185 72.4876 33.3588 72.2351 33.3108C71.9828 33.2628 71.7288 33.2267 71.4725 33.2024C71.2166 33.1782 70.9601 33.166 70.7029 33.1658C70.4458 33.1656 70.1892 33.1774 69.9333 33.2012C69.6771 33.225 69.423 33.2607 69.1705 33.3083C68.918 33.3559 68.6685 33.4152 68.4219 33.4862C68.1755 33.5572 67.9329 33.6395 67.6946 33.7332C67.4563 33.8269 67.2229 33.9314 66.9948 34.0469C66.767 34.1624 66.5451 34.2883 66.3297 34.4246C66.1142 34.5608 65.9059 34.7068 65.705 34.8626C65.5041 35.0184 65.3112 35.1831 65.1267 35.3569L42.9591 56.4588L42.953 56.4648L42.6501 56.7558C42.5267 56.8722 42.393 56.9763 42.2489 57.0678C42.1048 57.159 41.9531 57.2361 41.7936 57.2991C41.6341 57.3621 41.4699 57.4095 41.301 57.4416C41.132 57.4734 40.9615 57.4896 40.7894 57.4896C40.6172 57.4896 40.4467 57.4734 40.2777 57.4416C40.1088 57.4095 39.9446 57.3621 39.7851 57.2991C39.6256 57.2361 39.4739 57.159 39.3298 57.0678C39.1857 56.9763 39.052 56.8722 38.9287 56.7558C38.8068 56.6406 38.6979 56.5152 38.602 56.379C38.506 56.2425 38.425 56.0982 38.3588 55.9464C38.2927 55.7943 38.2427 55.6374 38.209 55.476C38.1752 55.314 38.1584 55.1508 38.1584 54.9858C38.1584 54.8208 38.1752 54.6573 38.209 54.4956C38.2427 54.3339 38.2927 54.177 38.3588 54.0252C38.425 53.8731 38.506 53.7288 38.602 53.5926C38.6979 53.4564 38.8068 53.3307 38.9287 53.2158L61.4084 31.817C61.5901 31.6447 61.7626 31.464 61.9258 31.275C62.089 31.086 62.242 30.8895 62.3851 30.6857C62.5282 30.4818 62.6602 30.2716 62.7817 30.0549C62.9028 29.8383 63.0126 29.6163 63.1112 29.389C63.2098 29.1617 63.2966 28.9302 63.3711 28.6945C63.4459 28.4588 63.5083 28.2201 63.5584 27.9783C63.6085 27.7366 63.6462 27.493 63.6712 27.2476C63.6963 27.0022 63.7089 26.7562 63.7086 26.5096C63.7083 26.2631 63.6956 26.0171 63.67 25.7717C63.6443 25.5263 63.6063 25.2828 63.5559 25.0412C63.5052 24.7995 63.4425 24.5609 63.3674 24.3253C63.2923 24.0898 63.2051 23.8584 63.1062 23.6312C63.0073 23.4041 62.897 23.1823 62.7752 22.9658C62.6537 22.7494 62.5211 22.5394 62.3777 22.3358C62.2346 22.1322 62.081 21.936 61.9175 21.7472C61.754 21.5585 61.5812 21.3781 61.3991 21.2061Z" fill-rule="evenodd"  fill="#00DC82" ></path><path d="M57.6809 28.286C57.8027 28.1709 57.9116 28.0453 58.0076 27.909C58.1036 27.7728 58.1847 27.6287 58.2509 27.4767C58.317 27.3247 58.3669 27.1678 58.4005 27.0061C58.4342 26.8444 58.4511 26.681 58.4511 26.516C58.4511 26.351 58.4342 26.1876 58.4005 26.0259C58.3669 25.8642 58.317 25.7073 58.2509 25.5553C58.1847 25.4033 58.1036 25.2592 58.0076 25.1229C57.9116 24.9867 57.8027 24.861 57.6809 24.746C57.5575 24.6295 57.4238 24.5255 57.2797 24.4341C57.1357 24.3426 56.9839 24.2655 56.8244 24.2026C56.6649 24.1397 56.5007 24.0922 56.3317 24.0601C56.1628 24.0281 55.9923 24.0121 55.8202 24.0121C55.6481 24.0121 55.4777 24.0281 55.3087 24.0601C55.1397 24.0922 54.9755 24.1397 54.816 24.2026C54.6565 24.2655 54.5047 24.3426 54.3607 24.4341C54.2167 24.5255 54.0829 24.6295 53.9595 24.746L31.9557 45.6918C31.8039 45.8352 31.6557 45.9821 31.5114 46.1325C31.3671 46.2831 31.2268 46.437 31.0904 46.5944C30.954 46.7519 30.8218 46.9124 30.6936 47.0759C30.5655 47.2397 30.4417 47.4065 30.3222 47.5763C30.2027 47.7461 30.0876 47.9187 29.9769 48.0941C29.8663 48.2693 29.7602 48.4472 29.6587 48.6278C29.5572 48.8082 29.4604 48.991 29.3684 49.1762C29.2763 49.3614 29.1891 49.5487 29.1066 49.7381C29.0242 49.9275 28.9467 50.1188 28.8741 50.312C28.8015 50.5052 28.7339 50.7 28.6714 50.8964C28.6088 51.0928 28.5514 51.2907 28.499 51.4901C28.4466 51.6893 28.3994 51.8897 28.3574 52.0913C28.3153 52.2927 28.2785 52.4951 28.2468 52.6985C28.2152 52.9017 28.1888 53.1056 28.1677 53.3102C28.1466 53.5148 28.1307 53.7198 28.1201 53.9252C28.1095 54.1305 28.1042 54.336 28.1042 54.5415C28.1042 54.7473 28.1095 54.9528 28.1201 55.158C28.1307 55.3635 28.1466 55.5684 28.1677 55.773C28.1888 55.9776 28.2152 56.1816 28.2468 56.3847C28.2785 56.5881 28.3153 56.7906 28.3574 56.9919C28.3994 57.1935 28.4466 57.3939 28.499 57.5931C28.5514 57.7926 28.6088 57.9906 28.6714 58.1868C28.7339 58.3833 28.8015 58.578 28.8741 58.7712C28.9467 58.9644 29.0242 59.1558 29.1066 59.3451C29.1891 59.5347 29.2763 59.7219 29.3684 59.907C29.4604 60.0924 29.5572 60.2751 29.6587 60.4554C29.7602 60.636 29.8663 60.8139 29.9769 60.9891C30.0876 61.1646 30.2027 61.3371 30.3222 61.5069C30.4417 61.6767 30.5655 61.8434 30.6936 62.0072C30.8218 62.171 30.954 62.3315 31.0904 62.4887C31.2268 62.6462 31.3671 62.8001 31.5114 62.9507C31.6557 63.1013 31.8039 63.248 31.9557 63.3914C32.2632 63.6818 32.5844 63.9572 32.9193 64.2173C33.2542 64.4777 33.6012 64.7216 33.9604 64.9493C34.3196 65.1773 34.6892 65.3876 35.0692 65.5805C35.4493 65.7737 35.8381 65.9486 36.2356 66.1052C36.6331 66.2618 37.0374 66.3995 37.4486 66.5183C37.8597 66.6371 38.2758 66.7367 38.6969 66.8165C39.1179 66.8963 39.542 66.9563 39.969 66.9962C40.396 67.0364 40.824 67.0565 41.253 67.0565C41.682 67.0565 42.11 67.0364 42.537 66.9962C42.964 66.9563 43.3881 66.8963 43.8091 66.8165C44.2301 66.7367 44.6462 66.6371 45.0575 66.5183C45.4686 66.3995 45.8729 66.2618 46.2704 66.1052C46.6679 65.9486 47.0567 65.7737 47.4369 65.5805C47.8168 65.3876 48.1864 65.1773 48.5456 64.9493C48.9047 64.7216 49.2517 64.4777 49.5866 64.2173C49.9216 63.9572 50.2429 63.6818 50.5503 63.3914L72.5573 42.4458C72.679 42.3307 72.7878 42.2051 72.884 42.0689C72.9798 41.9326 73.0611 41.7885 73.1272 41.6365C73.1934 41.4845 73.2431 41.3276 73.2768 41.1659C73.3105 41.0042 73.3275 40.8408 73.3275 40.6758C73.3275 40.5108 73.3105 40.3474 73.2768 40.1857C73.2431 40.024 73.1934 39.8671 73.1272 39.7151C73.0611 39.5631 72.9798 39.419 72.884 39.2827C72.7878 39.1465 72.679 39.0209 72.5573 38.9058C72.4336 38.7893 72.3001 38.6853 72.1561 38.5939C72.012 38.5025 71.8603 38.4253 71.7008 38.3624C71.5413 38.2995 71.3769 38.252 71.2081 38.22C71.039 38.1879 70.8684 38.1719 70.6966 38.1719C70.5244 38.1719 70.3538 38.1879 70.185 38.22C70.016 38.252 69.8518 38.2995 69.6924 38.3624C69.5329 38.4253 69.3811 38.5025 69.2371 38.5939C69.093 38.6853 68.9592 38.7893 68.8359 38.9058L46.832 59.8515C46.6476 60.0258 46.4548 60.1911 46.2537 60.3474C46.0528 60.5037 45.8446 60.6501 45.629 60.7866C45.4137 60.9234 45.192 61.0497 44.9639 61.1655C44.7358 61.2816 44.5024 61.3866 44.2638 61.4805C44.0254 61.5747 43.7828 61.6572 43.5361 61.7285C43.2893 61.7999 43.0396 61.8596 42.7869 61.9073C42.5343 61.9553 42.2798 61.9913 42.0236 62.0153C41.7673 62.0396 41.5104 62.0516 41.253 62.0516C40.9956 62.0516 40.7387 62.0396 40.4825 62.0153C40.2262 61.9913 39.9717 61.9553 39.7191 61.9073C39.4664 61.8596 39.2167 61.7999 38.9699 61.7285C38.7232 61.6572 38.4806 61.5747 38.2421 61.4805C38.0036 61.3866 37.7703 61.2816 37.5422 61.1655C37.3141 61.0497 37.0923 60.9234 36.8768 60.7866C36.6613 60.6501 36.4531 60.5037 36.2522 60.3474C36.0512 60.1911 35.8585 60.0258 35.674 59.8515C35.4917 59.6793 35.3188 59.4987 35.1551 59.3097C34.9915 59.1207 34.8379 58.9245 34.6944 58.7205C34.551 58.5168 34.4184 58.3065 34.2966 58.0896C34.1748 57.873 34.0644 57.6507 33.9655 57.4233C33.8666 57.1959 33.7796 56.9643 33.7045 56.7285C33.6295 56.4927 33.5667 56.2536 33.5162 56.0118C33.4658 55.77 33.4279 55.5261 33.4025 55.2804C33.3772 55.0347 33.3645 54.7884 33.3645 54.5415C33.3645 54.2949 33.3772 54.0486 33.4025 53.8028C33.4279 53.5572 33.4658 53.3134 33.5162 53.0714C33.5667 52.8296 33.6295 52.5907 33.7045 52.3547C33.7796 52.1189 33.8666 51.8873 33.9655 51.6599C34.0644 51.4325 34.1748 51.2104 34.2966 50.9936C34.4184 50.7768 34.551 50.5665 34.6945 50.3627C34.8379 50.1589 34.9915 49.9625 35.1551 49.7735C35.3188 49.5845 35.4917 49.4039 35.674 49.2317L57.6809 28.286Z" fill-rule="evenodd"  fill="#00DC82" ></path></svg>