<svg xmlns="http://www.w3.org/2000/svg" xmlns:xlink="http://www.w3.org/1999/xlink" width="100" height="100" viewBox="0 0 100 100" fill="none"><path     fill="#202123"  d="M0 100L100 100L100 0L0 0L0 100Z"></path><path d="M68.7488 84C79.0948 77.5564 86 65.94 86 52.6804C86 32.4224 69.8821 16 50 16C30.1177 16 14 32.4224 14 52.6804C14 61.3601 16.9587 69.3355 21.9046 75.6167L35.0445 64.9291L35.0445 50.0581L35.0445 43.3695L27.0143 35.1872L35.0445 35.1872L65.2514 35.1872C68.1145 35.1872 70.4354 37.552 70.4354 40.4691L70.4354 49.9155C67.7307 48.0077 65.7835 46.4734 65.7835 46.4734L56.6449 52.1163L72.2912 65.6602L68.7488 84ZM51.0033 39.2954L61.9387 39.2954C61.9387 39.2954 62.3491 43.934 56.3677 43.934C51.0033 39.295 51.0033 39.2954 51.0033 39.2954Z" fill-rule="evenodd"  fill="#FFFFFF" ></path></svg>