<svg xmlns="http://www.w3.org/2000/svg" xmlns:xlink="http://www.w3.org/1999/xlink" width="100" height="100" viewBox="0 0 100 100" fill="none"><path d="M54.9819 13.0036C55.624 13.0097 56.266 13.0158 56.9275 13.022C65.0962 13.2355 70.6254 15.7453 76.2546 21.3932C81.2101 27.1212 82.0766 34.055 81.9949 41.244C81.9885 41.9786 81.9821 42.7132 81.9755 43.4702C81.6661 56.5787 77.8002 68.9032 68.0151 78.5187C61.2812 84.3593 54.577 87.1014 45.4791 86.9972C44.7974 86.9913 44.1156 86.9847 43.4132 86.9789C36.0675 86.7977 30.6122 85.0481 25.1802 80.2207C17.0787 70.9382 17.6803 59.9213 18.3697 48.5333C19.797 37.0149 26.1193 25.8789 35.5482 18.5766C41.5555 14.5085 47.6494 12.9135 54.9819 13.0036ZM33.9022 27.3731C25.0564 38.5522 23.4323 51.8553 24.5441 65.4042C25.7192 71.2994 28.519 76.048 33.67 79.5703C39.0318 82.3657 45.6191 82.4555 51.5571 81.5416C60.6504 78.7749 65.867 73.3204 70.4089 65.5991C75.62 55.3251 78.1415 41.0453 74.2287 29.9662C72.0305 25.2639 68.8698 21.4274 63.9058 19.1927C53.069 15.8619 41.2454 19.3618 33.9022 27.3731Z"   fill="#000000" ></path><path d="M34.5775 36.7971C43.0673 36.7971 43.0673 36.7971 45.1402 38.1762C45.6033 38.8075 46.0663 39.4388 46.5434 40.0893C47.3276 41.1169 47.3276 41.1169 48.1277 42.1652C48.6386 42.89 49.1495 43.6147 49.6758 44.3615C50.4824 45.4358 50.4824 45.4358 51.3053 46.5319C53.2416 49.1237 55.1046 51.7569 56.9597 54.4015C57.2144 48.592 57.4691 42.7826 57.7315 36.7971C59.7691 36.7971 61.8066 36.7971 63.9059 36.7971C63.9059 46.4795 63.9059 56.1619 63.9059 66.1377C57.7315 66.1377 57.7315 66.1377 55.9582 64.8052C55.4978 64.1925 55.0373 63.5799 54.5629 62.9486C54.0431 62.2769 53.5233 61.6051 52.9876 60.9129C52.4678 60.2013 51.9479 59.4898 51.4124 58.7567C50.8836 58.0651 50.3548 57.3734 49.81 56.6608C48.3145 54.6977 46.847 52.7181 45.3827 50.7339C44.1092 49.0395 42.8358 47.345 41.5237 45.5993C41.269 52.377 41.0143 59.1547 40.7519 66.1377C38.7144 66.1377 36.6768 66.1377 34.5775 66.1377C34.5775 56.4553 34.5775 46.7729 34.5775 36.7971Z"   fill="#000000" ></path></svg>